<?xml version="1.0" encoding="UTF-8" standalone="no"?>
<!-- Created with Inkscape (http://www.inkscape.org/) -->

<svg
   width="427.25342mm"
   height="407.62665mm"
   viewBox="0 0 427.25342 407.62665"
   version="1.1"
   id="svg5"
   xml:space="preserve"
   inkscape:version="1.4-rc1 (61ec3f2, 2024-09-26)"
   sodipodi:docname="frame_test.svg"
   xmlns:inkscape="http://www.inkscape.org/namespaces/inkscape"
   xmlns:sodipodi="http://sodipodi.sourceforge.net/DTD/sodipodi-0.dtd"
   xmlns="http://www.w3.org/2000/svg"
   xmlns:svg="http://www.w3.org/2000/svg"><sodipodi:namedview
     id="namedview7"
     pagecolor="#ffffff"
     bordercolor="#000000"
     borderopacity="0.25"
     inkscape:showpageshadow="2"
     inkscape:pageopacity="0.0"
     inkscape:pagecheckerboard="0"
     inkscape:deskcolor="#d1d1d1"
     inkscape:document-units="mm"
     showgrid="true"
     inkscape:zoom="1"
     inkscape:cx="1119"
     inkscape:cy="170.5"
     inkscape:window-width="1920"
     inkscape:window-height="1009"
     inkscape:window-x="-8"
     inkscape:window-y="-8"
     inkscape:window-maximized="1"
     inkscape:current-layer="layer1"><inkscape:grid
       type="xygrid"
       id="grid2062"
       originx="-15.403817"
       originy="247.00871"
       spacingy="1"
       spacingx="1"
       units="mm" /></sodipodi:namedview><defs
     id="defs2" /><g
     inkscape:label="Layer 1"
     inkscape:groupmode="layer"
     id="layer1"
     transform="translate(-15.403817,247.0087)"><path
       id="rect1"
       style="fill:none;fill-opacity:1;stroke:#ff0000;stroke-width:0.25;stroke-linejoin:round;stroke-dasharray:none;paint-order:markers stroke fill;stroke-opacity:1"
       d="m 23.403846,-112.50424 c -4.432,0 -8.000028,3.56803 -8.000028,8.00003 V 10.123928 c 0,4.432 3.568028,8.00003 8.000028,8.00003 H 220.06109 c 4.432,0 8.00003,-3.56803 8.00003,-8.00003 V -104.50421 c 0,-4.432 -3.56803,-8.00003 -8.00003,-8.00003 z m 14.313855,16.864083 H 202.27044 V 3.7894283 h -64.77796 v 2.27222 h -31.61201 v -2.27222 H 37.717701 Z m 184.822819,10.118245 a 3,3 0 0 1 2.99982,2.999818 3,3 0 0 1 -2.99982,3.000333 3,3 0 0 1 -2.99981,-3.000333 3,3 0 0 1 2.99981,-2.999818 z m -201.615593,0.01188 a 3,3 0 0 1 2.999818,2.999816 3,3 0 0 1 -2.999818,2.999818 3,3 0 0 1 -3.000333,-2.999818 3,3 0 0 1 3.000333,-2.999816 z m 0,70.627734 a 3,3 0 0 1 2.999818,3.00033 3,3 0 0 1 -2.999818,2.9998205 3,3 0 0 1 -3.000333,-2.9998205 3,3 0 0 1 3.000333,-3.00033 z m 201.615593,0.02377 a 3,3 0 0 1 2.99982,2.99981 3,3 0 0 1 -2.99982,2.9998205 3,3 0 0 1 -2.99981,-2.9998205 3,3 0 0 1 2.99981,-2.99981 z" /><path
       id="rect1-2"
       style="fill:none;fill-opacity:1;stroke:#ff0000;stroke-width:0.25;stroke-linejoin:round;stroke-dasharray:none;stroke-opacity:1;paint-order:markers stroke fill"
       d="m 23.403845,-246.6087 c -4.432,0 -8.000028,3.56803 -8.000028,8.00003 v 114.62815 c 0,4.432 3.568028,8.00003 8.000028,8.00003 H 220.06109 c 4.432,0 8.00003,-3.56803 8.00003,-8.00003 v -114.62815 c 0,-4.432 -3.56803,-8.00003 -8.00003,-8.00003 z m 15.978353,16.00988 H 204.00109 c 0.55343,0 0.9989,0.44549 0.9989,0.99891 V -135 c 0,0.55343 -0.44547,0.99942 -0.9989,0.99942 H 39.382198 c -0.55343,0 -0.998905,-0.44599 -0.998905,-0.99942 v -94.59991 c 0,-0.55342 0.445475,-0.99891 0.998905,-0.99891 z m 183.158322,10.97246 a 3,3 0 0 1 2.99982,2.99981 3,3 0 0 1 -2.99982,3.00034 3,3 0 0 1 -2.99981,-3.00034 3,3 0 0 1 2.99981,-2.99981 z m -201.615593,0.0119 a 3,3 0 0 1 2.999817,2.99982 3,3 0 0 1 -2.999817,2.99982 3,3 0 0 1 -3.000334,-2.99982 3,3 0 0 1 3.000334,-2.99982 z m 0,70.62773 a 3,3 0 0 1 2.999817,3.00034 3,3 0 0 1 -2.999817,2.99981 3,3 0 0 1 -3.000334,-2.99981 3,3 0 0 1 3.000334,-3.00034 z m 201.615593,0.0238 a 3,3 0 0 1 2.99982,2.99982 3,3 0 0 1 -2.99982,2.99982 3,3 0 0 1 -2.99981,-2.99982 3,3 0 0 1 2.99981,-2.99982 z" /><path
       id="rect1-2-1"
       style="fill:none;fill-opacity:1;stroke:#ff0000;stroke-width:0.25;stroke-linejoin:round;stroke-dasharray:none;paint-order:markers stroke fill;stroke-opacity:1"
       d="m 130.01973,29.989761 c -4.432,0 -8.00003,3.56802 -8.00003,8.00002 V 152.61793 c 0,4.432 3.56803,8.00002 8.00003,8.00002 h 196.65725 c 4.432,0 8.00003,-3.56802 8.00003,-8.00002 V 37.989781 c 0,-4.432 -3.56803,-8.00002 -8.00003,-8.00002 z M 140,40.000001 h 176.61558 c 4.43199,0 8.00003,3.568026 8.00003,8.000026 v 94.599903 c 0,4.432 -3.56804,8.00003 -8.00003,8.00003 H 140 c -4.432,0 -8.00003,-3.56803 -8.00003,-8.00003 V 48.000027 c 0,-4.432 3.56803,-8.000026 8.00003,-8.000026 z m 189.15641,16.972088 a 3,3 0 0 1 2.99982,2.999817 3,3 0 0 1 -2.99982,3.000334 3,3 0 0 1 -2.99981,-3.000334 3,3 0 0 1 2.99981,-2.999817 z m -201.6156,0.01189 a 3,3 0 0 1 2.99982,2.999817 3,3 0 0 1 -2.99982,2.999817 3,3 0 0 1 -3.00033,-2.999817 3,3 0 0 1 3.00033,-2.999817 z m 0,70.627731 a 3,3 0 0 1 2.99982,3.00033 3,3 0 0 1 -2.99982,2.99982 3,3 0 0 1 -3.00033,-2.99982 3,3 0 0 1 3.00033,-3.00033 z m 201.6156,0.0238 a 3,3 0 0 1 2.99982,2.99982 3,3 0 0 1 -2.99982,2.99982 3,3 0 0 1 -2.99981,-2.99982 3,3 0 0 1 2.99981,-2.99982 z" /><path
       id="rect1-7"
       style="fill:none;fill-opacity:1;stroke:#ff0000;stroke-width:0.25;stroke-linejoin:round;stroke-dasharray:none;stroke-opacity:1;paint-order:markers stroke fill"
       d="m 239.64583,-247.0087 c -4.432,0 -8.00003,3.56802 -8.00003,8.00003 v 114.62815 c 0,4.432 3.56803,8.00003 8.00003,8.00003 H 438.3028 c 4.432,0 8.00003,-3.56803 8.00003,-8.00003 v -114.62815 c 0,-4.432 -3.56803,-8.00003 -8.00003,-8.00003 z m 15.31382,7.34 h 167.91517 v 115.95377 H 254.95965 v -7.00009 z m 184.82334,12.64225 c 2.76139,1.7e-4 4.99982,2.23882 4.9997,5.00021 v 5.00021 c -5.9e-4,0.87608 -0.23137,1.73663 -0.66921,2.49546 l -0.005,0.008 c -0.43781,0.75639 -1.06624,1.38482 -1.82263,1.82263 l -0.008,0.005 c -0.75867,0.43775 -1.61903,0.66852 -2.49494,0.66921 -0.86161,-0.004 -1.7075,-0.23099 -2.45566,-0.65836 -0.0281,-0.0168 -0.056,-0.0339 -0.0837,-0.0512 -0.7214,-0.42766 -1.32365,-1.02991 -1.75131,-1.75131 -0.0175,-0.0281 -0.0347,-0.0564 -0.0517,-0.0848 -0.42702,-0.7479 -0.65362,-1.59342 -0.65784,-2.45463 v -5.00021 c -1.2e-4,-2.76159 2.23862,-5.00033 5.00021,-5.00021 z m -201.6156,0.0119 c 2.76139,1.7e-4 4.99982,2.23882 4.9997,5.00021 v 5.00022 c -7.1e-4,0.32219 -0.0326,0.64356 -0.0951,0.95963 -0.002,0.0102 -0.004,0.0203 -0.006,0.0305 -0.0632,0.31594 -0.15686,0.62502 -0.27957,0.92294 v 5.1e-4 c -0.12398,0.29755 -0.27645,0.5824 -0.45527,0.8506 -0.005,0.008 -0.0106,0.0162 -0.016,0.0243 -0.36107,0.53713 -0.82299,0.99905 -1.36012,1.36012 -0.007,0.005 -0.0144,0.01 -0.0217,0.0145 -0.53855,0.35775 -1.14137,0.60765 -1.77508,0.73587 l -0.0315,0.006 c -0.3159,0.0625 -0.6371,0.0944 -0.95912,0.0951 -0.86139,-0.004 -1.7071,-0.23074 -2.45515,-0.65784 -0.029,-0.0174 -0.0577,-0.0352 -0.0863,-0.0532 -0.71989,-0.4272 -1.32101,-1.02832 -1.74821,-1.74821 -0.0182,-0.0291 -0.0361,-0.0584 -0.0537,-0.0879 -0.42606,-0.74693 -0.65228,-1.59113 -0.65681,-2.45102 l -5.2e-4,-0.003 5.2e-4,-0.002 v -4.99763 c -1.2e-4,-2.76159 2.23862,-5.00033 5.00021,-5.00021 z m -5.2e-4,70.62722 c 2.76139,1.7e-4 4.99982,2.23882 4.9997,5.00021 v 5.00021 5.2e-4 c -7.3e-4,0.87511 -0.23114,1.7347 -0.66818,2.49287 -0.002,0.004 -0.005,0.008 -0.007,0.0119 -0.43753,0.75537 -1.06519,1.38304 -1.82057,1.82056 -0.003,0.002 -0.007,0.004 -0.0103,0.006 -0.75847,0.43722 -1.61845,0.66763 -2.49391,0.66818 -0.86081,-0.004 -1.70595,-0.23066 -2.45359,-0.65732 -0.0295,-0.0176 -0.0588,-0.0356 -0.0879,-0.0538 -0.71939,-0.42705 -1.32013,-1.02779 -1.74718,-1.74718 -0.0182,-0.0291 -0.0362,-0.0584 -0.0538,-0.0879 -0.42685,-0.74759 -0.65344,-1.59273 -0.65784,-2.45359 v -5.2e-4 -5.00021 c -1.2e-4,-2.76159 2.23862,-5.00033 5.00021,-5.00021 z m 201.61612,0.0238 c 2.76139,1.7e-4 4.99982,2.23882 4.9997,5.00021 v 5.00021 c -7.1e-4,0.32026 -0.0322,0.63971 -0.094,0.95395 -0.003,0.0141 -0.005,0.0283 -0.008,0.0424 -0.0628,0.31159 -0.15523,0.61649 -0.27595,0.91054 -0.002,0.004 -0.003,0.008 -0.005,0.0124 -0.12274,0.29394 -0.27329,0.57548 -0.44959,0.84078 -0.008,0.0114 -0.0151,0.0228 -0.0227,0.0341 -0.17868,0.26612 -0.38253,0.51445 -0.60875,0.74155 -0.2271,0.22622 -0.47543,0.43007 -0.74156,0.60875 -0.0113,0.008 -0.0227,0.0152 -0.0341,0.0227 -0.2653,0.1763 -0.54683,0.32684 -0.84077,0.44958 -0.004,0.002 -0.008,0.003 -0.0124,0.005 -0.29422,0.12075 -0.59929,0.21315 -0.91106,0.27595 -0.0138,0.003 -0.0275,0.005 -0.0413,0.008 -0.31424,0.0618 -0.63369,0.0933 -0.95395,0.094 h -5.1e-4 c -0.86121,-0.004 -1.70674,-0.23082 -2.45464,-0.65784 -0.029,-0.0174 -0.0577,-0.0352 -0.0863,-0.0532 -0.71989,-0.4272 -1.32101,-1.02832 -1.74821,-1.74821 -0.018,-0.0287 -0.0358,-0.0577 -0.0532,-0.0868 -0.42675,-0.7478 -0.65317,-1.59312 -0.65732,-2.45411 v -5.00021 c -1.2e-4,-2.76159 2.23862,-5.00033 5.00021,-5.00021 z"
       sodipodi:nodetypes="sssssssssccccccscccccccccccccsscccscccccscccccccccccccccccsscsccccccscccccccccscsscscscscsscccccccc" /><path
       id="rect1-7-1"
       style="fill:none;fill-opacity:1;stroke:#ff0000;stroke-width:0.25;stroke-linejoin:round;stroke-dasharray:none;stroke-opacity:1;paint-order:markers stroke fill"
       d="m 239.64583,-112.50424 c -4.432,0 -8.00003,3.56802 -8.00003,8.00002 V 10.12393 c 0,4.432 3.56803,8.000028 8.00003,8.000028 H 438.3028 c 4.432,0 8.00003,-3.568028 8.00003,-8.000028 v -114.62815 c 0,-4.432 -3.56803,-8.00002 -8.00003,-8.00002 z m 15.31382,7.33554 h 167.86417 l 0,115.958222 H 254.95965 V 3.7894328 Z m 184.82231,12.647216 h 5.2e-4 c 2.76159,-1.16e-4 5.00033,2.238623 5.00021,5.000211 -0.004,0.785793 -0.19265,1.55964 -0.55139,2.258777 h 0.0119 l -1.58698,3.602364 h -0.002 c -0.38034,1.268468 -1.54739,2.137509 -2.87165,2.138371 -1.32123,-6.66e-4 -2.48649,-0.865634 -2.8696,-2.130103 h -0.002 l -1.59371,-3.6189 h 0.0114 c -0.35569,-0.697086 -0.54278,-1.46793 -0.54622,-2.250509 -1.2e-4,-2.761389 2.23831,-5.000045 4.9997,-5.000211 z m -201.6156,0.01137 h 5.1e-4 c 2.76159,-1.22e-4 5.00034,2.23862 5.00022,5.000212 -0.004,0.785793 -0.19265,1.55964 -0.55139,2.258777 h 0.0119 l -1.58698,3.602364 h -0.002 c -0.38034,1.268472 -1.54739,2.137513 -2.87166,2.138371 -1.32123,-6.7e-4 -2.48648,-0.865638 -2.86959,-2.130103 h -0.002 l -1.59371,-3.6189 h 0.0114 c -0.35569,-0.697086 -0.54278,-1.46793 -0.54622,-2.250509 -1.2e-4,-2.761389 2.23831,-5.000046 4.9997,-5.000212 z m 0,70.628248 h 5.1e-4 c 2.76159,-1.22e-4 5.00034,2.238619 5.00022,5.000211 -0.004,0.785793 -0.19265,1.55964 -0.55139,2.258777 h 0.0119 l -1.58698,3.602364 h -0.002 c -0.38034,1.2684719 -1.54739,2.137513 -2.87166,2.1383708 -1.32123,-6.7e-4 -2.48648,-0.8656378 -2.86959,-2.1301028 h -0.002 l -1.59371,-3.6189 h 0.0114 c -0.35569,-0.697086 -0.54278,-1.46793 -0.54622,-2.250509 -1.2e-4,-2.761389 2.23831,-5.000045 4.9997,-5.000211 z m 201.6156,0.02325 h 5.2e-4 c 2.76159,-1.16e-4 5.00033,2.238623 5.00021,5.000211 -0.004,0.785793 -0.19265,1.55964 -0.55139,2.258777 h 0.0119 l -1.58698,3.602364 h -0.002 c -0.38034,1.2684685 -1.54739,2.1375089 -2.87165,2.1383712 -1.32123,-6.655e-4 -2.48649,-0.8656339 -2.8696,-2.1301022 h -0.002 l -1.59371,-3.618901 h 0.0114 c -0.35569,-0.697086 -0.54278,-1.46793 -0.54622,-2.250509 -1.2e-4,-2.761389 2.23831,-5.000045 4.9997,-5.000211 z"
       sodipodi:nodetypes="ssssssssscccccccsccccccccccccccsccccccccccccccsccccccccccccccsccccccccccccc" /><g
       id="g7"
       transform="translate(0.04056829,-0.00584155)" /><path
       id="path14"
       style="fill:none;fill-opacity:1;stroke:#ff0000;stroke-width:0.25;stroke-linejoin:round;stroke-dasharray:none;stroke-opacity:1;paint-order:markers stroke fill"
       d="m 261.99966,-82.000222 a 5,5 0 0 0 -4.9997,5.00022 5,5 0 0 0 4.9997,4.9997 5,5 0 0 0 5.00021,-4.9997 5,5 0 0 0 -5.00021,-5.00022 z m 0,1.99988 a 3,3 0 0 1 3.00033,3.00034 3,3 0 0 1 -3.00033,2.99982 3,3 0 0 1 -2.99982,-2.99982 3,3 0 0 1 2.99982,-3.00034 z" /><path
       id="path14-0"
       style="fill:none;fill-opacity:1;stroke:#ff0000;stroke-width:0.25;stroke-linejoin:round;stroke-dasharray:none;stroke-opacity:1;paint-order:markers stroke fill"
       d="m 272.99966,-82.000222 a 5,5 0 0 0 -4.9997,5.00022 5,5 0 0 0 4.9997,4.9997 5,5 0 0 0 5.00021,-4.9997 5,5 0 0 0 -5.00021,-5.00022 z m 0,1.99988 a 3,3 0 0 1 3.00033,3.00034 3,3 0 0 1 -3.00033,2.99982 3,3 0 0 1 -2.99982,-2.99982 3,3 0 0 1 2.99982,-3.00034 z" /><path
       id="path14-9"
       style="fill:none;fill-opacity:1;stroke:#ff0000;stroke-width:0.25;stroke-linejoin:round;stroke-dasharray:none;stroke-opacity:1;paint-order:markers stroke fill"
       d="m 283.99999,-82.000042 a 5,5 0 0 0 -4.9997,5.00022 5,5 0 0 0 4.9997,4.9997 5,5 0 0 0 5.00021,-4.9997 5,5 0 0 0 -5.00021,-5.00022 z m 0,1.99988 a 3,3 0 0 1 3.00033,3.00034 3,3 0 0 1 -3.00033,2.99982 3,3 0 0 1 -2.99982,-2.99982 3,3 0 0 1 2.99982,-3.00034 z" /><path
       id="path14-00"
       style="fill:none;fill-opacity:1;stroke:#ff0000;stroke-width:0.25;stroke-linejoin:round;stroke-dasharray:none;stroke-opacity:1;paint-order:markers stroke fill"
       d="m 294.99999,-81.999882 a 5,5 0 0 0 -4.9997,5.00022 5,5 0 0 0 4.9997,4.9997 5,5 0 0 0 5.00021,-4.9997 5,5 0 0 0 -5.00021,-5.00022 z m 0,1.99988 a 3,3 0 0 1 3.00033,3.00034 3,3 0 0 1 -3.00033,2.99982 3,3 0 0 1 -2.99982,-2.99982 3,3 0 0 1 2.99982,-3.00034 z" /><path
       id="path14-6"
       style="fill:none;fill-opacity:1;stroke:#ff0000;stroke-width:0.25;stroke-linejoin:round;stroke-dasharray:none;stroke-opacity:1;paint-order:markers stroke fill"
       d="m 261.99966,-93.000222 a 5,5 0 0 0 -4.9997,5.00022 5,5 0 0 0 4.9997,4.9997 5,5 0 0 0 5.00021,-4.9997 5,5 0 0 0 -5.00021,-5.00022 z m 0,1.99988 a 3,3 0 0 1 3.00033,3.00034 3,3 0 0 1 -3.00033,2.99982 3,3 0 0 1 -2.99982,-2.99982 3,3 0 0 1 2.99982,-3.00034 z" /><path
       id="path14-1"
       style="fill:none;fill-opacity:1;stroke:#ff0000;stroke-width:0.25;stroke-linejoin:round;stroke-dasharray:none;stroke-opacity:1;paint-order:markers stroke fill"
       d="m 272.99999,-93.000042 a 5,5 0 0 0 -4.9997,5.00022 5,5 0 0 0 4.9997,4.9997 5,5 0 0 0 5.00021,-4.9997 5,5 0 0 0 -5.00021,-5.00022 z m 0,1.99988 a 3,3 0 0 1 3.00033,3.00034 3,3 0 0 1 -3.00033,2.99982 3,3 0 0 1 -2.99982,-2.99982 3,3 0 0 1 2.99982,-3.00034 z" /><path
       id="path14-3"
       style="fill:none;fill-opacity:1;stroke:#ff0000;stroke-width:0.25;stroke-linejoin:round;stroke-dasharray:none;stroke-opacity:1;paint-order:markers stroke fill"
       d="m 283.99999,-93.000042 a 5,5 0 0 0 -4.9997,5.00022 5,5 0 0 0 4.9997,4.9997 5,5 0 0 0 5.00021,-4.9997 5,5 0 0 0 -5.00021,-5.00022 z m 0,1.99988 a 3,3 0 0 1 3.00033,3.00034 3,3 0 0 1 -3.00033,2.99982 3,3 0 0 1 -2.99982,-2.99982 3,3 0 0 1 2.99982,-3.00034 z" /><path
       id="path14-8"
       style="fill:none;fill-opacity:1;stroke:#ff0000;stroke-width:0.25;stroke-linejoin:round;stroke-dasharray:none;stroke-opacity:1;paint-order:markers stroke fill"
       d="m 294.99999,-93.000042 a 5,5 0 0 0 -4.9997,5.00022 5,5 0 0 0 4.9997,4.9997 5,5 0 0 0 5.00021,-4.9997 5,5 0 0 0 -5.00021,-5.00022 z m 0,1.99988 a 3,3 0 0 1 3.00033,3.00034 3,3 0 0 1 -3.00033,2.99982 3,3 0 0 1 -2.99982,-2.99982 3,3 0 0 1 2.99982,-3.00034 z" /><path
       id="path1"
       style="fill:#0000ff;fill-opacity:1;stroke:none;stroke-width:0.11414;stroke-linejoin:round;stroke-dasharray:none;stroke-opacity:1;paint-order:markers stroke fill"
       d="m 129.54207,-133.11798 -10.36526,0.0289 -10.69237,-0.017 c -0.58987,0.11779 -1.62784,0.8783 -2.04949,1.75493 -0.3151,0.65507 -0.31614,0.74684 -0.32504,3.29024 l -0.005,2.44016 c 0.54385,0.0326 0.54784,0.19613 0.60151,0.35812 -0.0143,0.33826 0.004,1.53072 -0.004,1.95388 -0.057,0.11909 0.0379,0.2625 -0.62115,0.29301 v 0.16175 c 0,0.48258 0.0261,0.15901 0.0584,0.33331 0.12224,0.66121 0.47823,1.12244 1.10329,1.4304 0.36672,0.18068 0.37164,0.18143 1.25677,0.19896 l 0.88883,0.0181 -0.0181,0.37569 c -0.0453,0.94683 0.34369,1.97334 1.19992,2.69699 0.764,0.64567 1.69313,0.7493 2.64015,0.7953 l 0.014,-0.0326 c 1.51812,-0.0731 1.8656,-0.49029 2.51405,-0.81907 0.54599,-0.56576 0.80481,-1.02112 0.98341,-1.73116 0.0678,-0.26971 0.1142,-0.62397 0.1142,-0.87334 v -0.42012 l 3.8933,0.0134 c 0.0127,2.9e-4 0.0232,-0.004 0.0351,-0.005 h 5.5268 c -0.0511,0.54796 0.0181,1.11456 0.22789,1.65726 0.1974,0.51075 0.45659,0.89502 0.89504,1.32705 0.53551,0.35636 0.9869,0.72776 2.70423,0.87489 l 0.0103,0.01 c 1.37188,-0.13898 1.98458,-0.53347 2.55798,-0.94102 0.67919,-0.71502 1.03952,-1.54895 1.05369,-2.43913 l 0.008,-0.49713 0.9679,-0.001 c 0.53236,-4.5e-4 1.02228,-0.0158 1.08883,-0.0336 0.0271,-0.007 0.0482,-0.0105 0.0646,-0.0114 0.92647,-0.0299 1.48875,-0.92769 1.50172,-1.60765 0.005,-0.10862 0.009,-0.12761 0.01,-0.11059 -0.002,0.002 -0.004,0.0679 -0.004,-0.24805 0,-1.41288 -0.0123,-2.27971 -0.061,-2.46238 -0.21099,-0.79092 -0.54326,-1.25056 -1.21491,-1.70067 -0.21666,-0.14519 -0.73867,-0.24986 -0.77566,-0.27027 -0.037,-0.0205 -0.64029,-1.08441 -1.23507,-2.10478 -0.59481,-1.02036 -1.18562,-2.00224 -1.3131,-2.18178 -0.69693,-0.98138 -1.6488,-1.47348 -2.85357,-1.47485 h -0.38189 z m -2.31924,1.39837 c 0.38059,1.3e-4 0.47336,0.0233 0.62012,0.0982 0.27123,0.13837 0.4783,0.38285 0.54984,0.64854 0.0362,0.13422 0.002,1.84732 -0.007,3.9362 l -0.0139,3.21427 -0.37466,0.22014 c -0.6485,0.38116 -1.13383,0.95305 -1.42162,1.61386 -5.04182,-0.0589 -5.301,0.0514 -5.46116,-0.12402 -0.19411,-0.24007 -0.14538,0.0627 -0.0941,-3.77549 l 0.0408,-5.10511 c -0.0328,-0.45829 0.27156,-0.65142 0.77515,-0.65371 0.32732,-0.0169 4.09902,-0.0502 4.89686,-0.0661 0.20358,-0.004 0.36251,-0.007 0.48937,-0.007 z m 3.31504,0.51314 c 0.32798,-1e-4 1.06227,0.10983 1.22784,0.29198 0.0981,0.1079 1.29746,2.09227 1.79989,2.97811 0.17451,0.30768 0.18918,0.8046 0.0703,1.03456 -0.14691,0.28415 -0.31504,0.31535 -1.67535,0.31523 -1.05861,-5e-5 -1.58351,0.0348 -1.74615,-0.0465 -0.12237,-0.0612 -0.23158,-0.17856 -0.31161,-0.3359 -0.12084,-0.23753 -0.40591,-0.62778 -0.39067,-2.10581 0.0145,-1.40066 -0.0729,-1.58037 0.0289,-1.75545 0.14247,-0.24516 0.63998,-0.37611 0.99683,-0.37621 z m -13.69838,1.1405 h 0.96014 c 0.65438,0.004 1.5083,0.003 1.6304,0.67231 v 1.50585 c 0,1.70387 -0.0125,1.76314 -0.40256,1.96216 -0.20122,0.10278 -0.31226,0.10822 -2.21692,0.10594 -1.59979,-0.002 -2.04061,-0.0173 -2.1792,-0.0775 -0.28696,-0.12474 -0.39045,-0.35897 -0.39067,-0.88367 l -5.2e-4,-0.45268 c 8.8e-4,0 0.002,-0.002 0.003,-0.003 l 0.008,-1.79059 c 0.003,-0.61777 0.0866,-0.7649 0.43098,-0.94361 0.15326,-0.0795 0.28766,-0.0966 0.65681,-0.0842 l 1.4981,-0.007 z m 17.79271,3.85248 c 0.41447,-0.0142 0.93484,0.089 1.09502,0.18139 0.60482,0.34913 0.72431,1.37519 0.51212,1.44073 -0.38968,0.12034 -1.36481,0.20234 -1.75235,-0.16329 -0.23676,-0.22336 -0.52572,-1.04256 -0.38551,-1.279 0.0716,-0.12066 0.28204,-0.17129 0.53072,-0.17983 z m -3.59978,1.00407 c 0.64615,-4.6e-4 1.36886,0.005 2.08773,0.0186 l 0.25579,0.0894 c 0.34196,0.28774 0.15907,0.79271 -0.32039,0.88521 -0.29404,0.0567 -3.40408,0.0859 -3.70003,0.0289 -0.45285,-0.0871 -0.62127,-0.5999 -0.29456,-0.88315 0.0597,-0.0518 0.17664,-0.11028 0.34468,-0.11627 0.41123,-0.0145 0.98064,-0.0221 1.62678,-0.0227 z m -23.51588,0.0336 2.08101,0.0202 10.57403,0.0372 0.16537,0.13953 c 0.34196,0.28773 0.15958,0.79272 -0.31988,0.88522 -0.29404,0.0567 -12.07538,-0.003 -12.37134,-0.06 -0.45283,-0.0871 -0.62532,-0.60467 -0.29455,-0.88315 z m 22.41775,2.5244 c 0.0776,-0.004 0.15655,-0.004 0.23565,0.001 0.18081,0.0104 0.36443,0.0428 0.5488,0.0997 0.93374,0.2884 1.61791,1.36319 1.45883,2.29185 -0.12673,0.73984 -0.55761,1.33759 -1.18804,1.64796 -0.3101,0.15267 -0.41095,0.17437 -0.8661,0.18707 -0.32826,0.009 -0.59717,-0.0125 -0.74156,-0.0594 -0.84141,-0.27399 -1.46619,-1.05946 -1.51153,-1.89963 -0.0671,-1.2435 0.89992,-2.21201 2.06395,-2.26859 z m -16.67805,0.005 c 0.32128,0.017 0.5166,0.0604 0.74673,0.16589 0.40144,0.18396 0.8838,0.66535 1.08934,1.08727 0.14157,0.29058 0.15766,0.37611 0.15813,0.86041 4.6e-4,0.47923 -0.0166,0.57411 -0.154,0.87178 -0.19192,0.41547 -0.66173,0.87782 -1.09451,1.07746 -0.2552,0.11776 -0.40229,0.14627 -0.82165,0.15864 -0.32647,0.01 -0.5926,-0.0117 -0.73742,-0.0589 -0.56021,-0.18243 -1.09538,-0.65975 -1.34928,-1.20354 -0.12374,-0.26499 -0.14371,-0.37831 -0.14417,-0.81856 -4.5e-4,-0.46173 0.0155,-0.54521 0.16794,-0.86713 0.41464,-0.87512 1.16984,-1.32442 2.13889,-1.27331 z"
       sodipodi:nodetypes="cccscccccscscccsccccsccccscccccccccccscscsccccsccccccccccsssssscssccscccscccccccccccscsscscccscsccccccsccccccssccsccsssccccsccc" /></g></svg>
