<?xml version="1.0" encoding="UTF-8" standalone="no"?>
<svg
   height="441.40mm"
   viewBox="0.0 0.0 316.60 441.40"
   width="316.60mm"
   version="1.1"
   id="svg45"
   sodipodi:docname="interface_case_small.svg"
   inkscape:version="1.2.2 (b0a8486541, 2022-12-01)"
   xmlns:inkscape="http://www.inkscape.org/namespaces/inkscape"
   xmlns:sodipodi="http://sodipodi.sourceforge.net/DTD/sodipodi-0.dtd"
   xmlns="http://www.w3.org/2000/svg"
   xmlns:svg="http://www.w3.org/2000/svg"
   xmlns:rdf="http://www.w3.org/1999/02/22-rdf-syntax-ns#"
   xmlns:cc="http://creativecommons.org/ns#"
   xmlns:dc="http://purl.org/dc/elements/1.1/">
  <defs
     id="defs45">
    <rect
       x="353.8923"
       y="886.84802"
       width="200.5403"
       height="101.28087"
       id="rect5022" />
  </defs>
  <sodipodi:namedview
     id="namedview45"
     pagecolor="#ffffff"
     bordercolor="#000000"
     borderopacity="0.25"
     inkscape:showpageshadow="2"
     inkscape:pageopacity="0.0"
     inkscape:pagecheckerboard="0"
     inkscape:deskcolor="#d1d1d1"
     inkscape:document-units="mm"
     inkscape:zoom="0.68409859"
     inkscape:cx="1105.1039"
     inkscape:cy="1130.685"
     inkscape:window-width="2494"
     inkscape:window-height="1371"
     inkscape:window-x="0"
     inkscape:window-y="0"
     inkscape:window-maximized="1"
     inkscape:current-layer="g5722"
     showgrid="false" />
  <!--
ElectronicsBox - Closed box with screw on top and mounting holes

Created with Boxes.py (https://boxes.hackerspace-bamberg.de/)
Creation date: 2024-10-13 13:16:33
Command line (remove spaces between dashes): boxes ElectronicsBox - -x=160.0 - -y=120.0 - -h=50.0 - -outside=0 - -thickness=3.6 - -labels=0
Url: https://boxes.hackerspace-bamberg.de/ElectronicsBox?FingerJoint_style=rectangular&FingerJoint_surroundingspaces=2.0&FingerJoint_bottom_lip=0.0&FingerJoint_edge_width=1.0&FingerJoint_extra_length=0.0&FingerJoint_finger=2.0&FingerJoint_play=0.0&FingerJoint_space=2.0&FingerJoint_width=1.0&x=160.0&y=120.0&h=50.0&outside=0&triangle=25.0&d1=2.0&d2=3.0&d3=3.0&outsidemounts=0&outsidemounts=1&holedist=7.0&thickness=3.6&format=svg&tabs=0.0&qr_code=0&debug=0&labels=0&reference=100.0&inner_corners=loop&burn=0.1&language=en&render=1
Url short: https://boxes.hackerspace-bamberg.de/ElectronicsBox?x=160.0&y=120.0&h=50.0&outside=0&thickness=3.6&labels=0
SettingsUrl: https://boxes.hackerspace-bamberg.de/ElectronicsBox?FingerJoint_style=rectangular&FingerJoint_surroundingspaces=2.0&FingerJoint_bottom_lip=0.0&FingerJoint_edge_width=1.0&FingerJoint_extra_length=0.0&FingerJoint_finger=2.0&FingerJoint_play=0.0&FingerJoint_space=2.0&FingerJoint_width=1.0&x=160.0&y=120.0&h=50.0&outside=0&triangle=25.0&d1=2.0&d2=3.0&d3=3.0&outsidemounts=0&outsidemounts=1&holedist=7.0&thickness=3.6&format=svg&tabs=0.0&qr_code=0&debug=0&labels=0&reference=100.0&inner_corners=loop&burn=0.1&language=en
SettingsUrl short: https://boxes.hackerspace-bamberg.de/ElectronicsBox?x=160.0&y=120.0&h=50.0&outside=0&thickness=3.6&labels=0
-->
  <title
     id="title1">ElectronicsBox</title>
  <metadata
     id="metadata1">
    <rdf:RDF>
      <cc:Work>
        <dc:title>Box - ElectronicsBox</dc:title>
        <dc:date>2024-10-13 13:16:33</dc:date>
        <dc:source>https://boxes.hackerspace-bamberg.de/ElectronicsBox?FingerJoint_style=rectangular&amp;FingerJoint_surroundingspaces=2.0&amp;FingerJoint_bottom_lip=0.0&amp;FingerJoint_edge_width=1.0&amp;FingerJoint_extra_length=0.0&amp;FingerJoint_finger=2.0&amp;FingerJoint_play=0.0&amp;FingerJoint_space=2.0&amp;FingerJoint_width=1.0&amp;x=160.0&amp;y=120.0&amp;h=50.0&amp;outside=0&amp;triangle=25.0&amp;d1=2.0&amp;d2=3.0&amp;d3=3.0&amp;outsidemounts=0&amp;outsidemounts=1&amp;holedist=7.0&amp;thickness=3.6&amp;format=svg&amp;tabs=0.0&amp;qr_code=0&amp;debug=0&amp;labels=0&amp;reference=100.0&amp;inner_corners=loop&amp;burn=0.1&amp;language=en&amp;render=1</dc:source>
        <dc:source>https://boxes.hackerspace-bamberg.de/ElectronicsBox?x=160.0&amp;y=120.0&amp;h=50.0&amp;outside=0&amp;thickness=3.6&amp;labels=0</dc:source>
        <dc:description>Closed box with screw on top and mounting holes

Created with Boxes.py (https://boxes.hackerspace-bamberg.de/)
Command line: boxes ElectronicsBox --FingerJoint_style=rectangular --FingerJoint_surroundingspaces=2.0 --FingerJoint_bottom_lip=0.0 --FingerJoint_edge_width=1.0 --FingerJoint_extra_length=0.0 --FingerJoint_finger=2.0 --FingerJoint_play=0.0 --FingerJoint_space=2.0 --FingerJoint_width=1.0 --x=160.0 --y=120.0 --h=50.0 --outside=0 --triangle=25.0 --d1=2.0 --d2=3.0 --d3=3.0 --outsidemounts=0 --outsidemounts=1 --holedist=7.0 --thickness=3.6 --format=svg --tabs=0.0 --qr_code=0 --debug=0 --labels=0 --reference=100.0 --inner_corners=loop --burn=0.1
Command line short: boxes ElectronicsBox --x=160.0 --y=120.0 --h=50.0 --outside=0 --thickness=3.6 --labels=0
Url: https://boxes.hackerspace-bamberg.de/ElectronicsBox?FingerJoint_style=rectangular&amp;FingerJoint_surroundingspaces=2.0&amp;FingerJoint_bottom_lip=0.0&amp;FingerJoint_edge_width=1.0&amp;FingerJoint_extra_length=0.0&amp;FingerJoint_finger=2.0&amp;FingerJoint_play=0.0&amp;FingerJoint_space=2.0&amp;FingerJoint_width=1.0&amp;x=160.0&amp;y=120.0&amp;h=50.0&amp;outside=0&amp;triangle=25.0&amp;d1=2.0&amp;d2=3.0&amp;d3=3.0&amp;outsidemounts=0&amp;outsidemounts=1&amp;holedist=7.0&amp;thickness=3.6&amp;format=svg&amp;tabs=0.0&amp;qr_code=0&amp;debug=0&amp;labels=0&amp;reference=100.0&amp;inner_corners=loop&amp;burn=0.1&amp;language=en&amp;render=1
Url short: https://boxes.hackerspace-bamberg.de/ElectronicsBox?x=160.0&amp;y=120.0&amp;h=50.0&amp;outside=0&amp;thickness=3.6&amp;labels=0
SettingsUrl: https://boxes.hackerspace-bamberg.de/ElectronicsBox?FingerJoint_style=rectangular&amp;FingerJoint_surroundingspaces=2.0&amp;FingerJoint_bottom_lip=0.0&amp;FingerJoint_edge_width=1.0&amp;FingerJoint_extra_length=0.0&amp;FingerJoint_finger=2.0&amp;FingerJoint_play=0.0&amp;FingerJoint_space=2.0&amp;FingerJoint_width=1.0&amp;x=160.0&amp;y=120.0&amp;h=50.0&amp;outside=0&amp;triangle=25.0&amp;d1=2.0&amp;d2=3.0&amp;d3=3.0&amp;outsidemounts=0&amp;outsidemounts=1&amp;holedist=7.0&amp;thickness=3.6&amp;format=svg&amp;tabs=0.0&amp;qr_code=0&amp;debug=0&amp;labels=0&amp;reference=100.0&amp;inner_corners=loop&amp;burn=0.1&amp;language=en
SettingsUrl short: https://boxes.hackerspace-bamberg.de/ElectronicsBox?x=160.0&amp;y=120.0&amp;h=50.0&amp;outside=0&amp;thickness=3.6&amp;labels=0
</dc:description>
      </cc:Work>
    </rdf:RDF>
  </metadata>
  <g
     id="g5800">
    <rect
       style="fill:none;stroke:#ff0000;stroke-width:0.25;stroke-linejoin:round;paint-order:markers stroke fill"
       id="rect45"
       width="25"
       height="15"
       x="106.86517"
       y="368.73972"
       rx="2"
       ry="2" />
    <rect
       style="fill:none;stroke:#ff0000;stroke-width:0.25;stroke-linejoin:round;paint-order:markers stroke fill"
       id="rect45-3"
       width="25"
       height="15"
       x="140.61862"
       y="368.73972"
       rx="2"
       ry="2" />
    <rect
       style="fill:none;stroke:#ff0000;stroke-width:0.25;stroke-linejoin:round;paint-order:markers stroke fill"
       id="rect45-4"
       width="25"
       height="15"
       x="174.37207"
       y="368.73972"
       rx="2"
       ry="2" />
    <path
       id="path1-6"
       style="fill:#0000ff;fill-opacity:1;stroke:none;stroke-width:0.11414;stroke-linejoin:round;stroke-dasharray:none;stroke-opacity:1;paint-order:markers stroke fill"
       d="m 61.474489,368.18268 -10.36526,0.0289 -10.69237,-0.017 c -0.58987,0.11779 -1.62784,0.8783 -2.04949,1.75493 -0.3151,0.65507 -0.31614,0.74684 -0.32504,3.29024 l -0.005,2.44016 c 0.54385,0.0326 0.54784,0.19612 0.60151,0.35811 -0.0143,0.33826 0.004,1.53072 -0.004,1.95389 -0.057,0.11909 0.0379,0.2625 -0.62115,0.29301 v 0.16174 c 0,0.48258 0.0261,0.15902 0.0584,0.33331 0.12224,0.66121 0.47823,1.12244 1.10329,1.4304 0.36672,0.18068 0.37164,0.18143 1.25677,0.19896 l 0.88883,0.0181 -0.0181,0.3757 c -0.0453,0.94682 0.34369,1.97334 1.19992,2.69699 0.764,0.64567 1.69313,0.7493 2.64015,0.7953 l 0.014,-0.0326 c 1.51812,-0.0731 1.8656,-0.49029 2.51405,-0.81907 0.54599,-0.56576 0.80481,-1.02112 0.98341,-1.73116 0.0678,-0.26971 0.1142,-0.62397 0.1142,-0.87334 v -0.42012 l 3.8933,0.0134 c 0.0127,2.9e-4 0.0232,-0.004 0.0351,-0.005 h 5.5268 c -0.0511,0.54796 0.0181,1.11456 0.22789,1.65726 0.1974,0.51075 0.45659,0.89502 0.89504,1.32705 0.53551,0.35636 0.9869,0.72776 2.70423,0.87489 l 0.0103,0.01 c 1.37188,-0.13898 1.98458,-0.53347 2.55798,-0.94102 0.67919,-0.71502 1.03952,-1.54895 1.05369,-2.43913 l 0.008,-0.49713 0.9679,-10e-4 c 0.53236,-4.5e-4 1.02228,-0.0158 1.08883,-0.0336 0.0271,-0.007 0.0482,-0.0105 0.0646,-0.0114 0.92647,-0.0299 1.48875,-0.92769 1.50172,-1.60765 0.005,-0.10862 0.009,-0.12761 0.01,-0.11059 -0.002,0.002 -0.004,0.0679 -0.004,-0.24805 0,-1.41288 -0.0123,-2.27971 -0.061,-2.46238 -0.21099,-0.79092 -0.54326,-1.25056 -1.21491,-1.70067 -0.21666,-0.14519 -0.73867,-0.24986 -0.77566,-0.27027 -0.037,-0.0205 -0.64029,-1.08441 -1.23507,-2.10478 -0.59481,-1.02036 -1.18562,-2.00224 -1.3131,-2.18178 -0.69693,-0.98138 -1.6488,-1.47348 -2.85357,-1.47485 h -0.38189 z m -2.31924,1.39837 c 0.38059,1.3e-4 0.47336,0.0233 0.62012,0.0982 0.27123,0.13837 0.4783,0.38285 0.54984,0.64854 0.0362,0.13422 0.002,1.84732 -0.007,3.9362 l -0.0139,3.21427 -0.37466,0.22014 c -0.6485,0.38116 -1.13383,0.95305 -1.42162,1.61386 -5.04182,-0.0589 -5.301,0.0514 -5.46116,-0.12402 -0.19411,-0.24007 -0.14538,0.0627 -0.0941,-3.77549 l 0.0408,-5.10511 c -0.0328,-0.45829 0.27156,-0.65142 0.77515,-0.65371 0.32732,-0.0169 4.09902,-0.0502 4.89686,-0.0661 0.20358,-0.004 0.36251,-0.007 0.48937,-0.007 z m 3.31504,0.51314 c 0.32798,-1e-4 1.06227,0.10983 1.22784,0.29198 0.0981,0.1079 1.29746,2.09227 1.79989,2.97811 0.17451,0.30768 0.18918,0.8046 0.0703,1.03456 -0.14691,0.28415 -0.31504,0.31535 -1.67535,0.31523 -1.05861,-5e-5 -1.58351,0.0348 -1.74615,-0.0465 -0.12237,-0.0612 -0.23158,-0.17856 -0.31161,-0.3359 -0.12084,-0.23753 -0.40591,-0.62778 -0.39067,-2.10581 0.0145,-1.40066 -0.0729,-1.58037 0.0289,-1.75545 0.14247,-0.24516 0.63998,-0.37611 0.99683,-0.37621 z m -13.69838,1.1405 h 0.96014 c 0.65438,0.004 1.5083,0.003 1.6304,0.6723 v 1.50585 c 0,1.70387 -0.0125,1.76315 -0.40256,1.96216 -0.20122,0.10278 -0.31226,0.10822 -2.21692,0.10594 -1.59979,-0.002 -2.04061,-0.0173 -2.1792,-0.0775 -0.28696,-0.12474 -0.39045,-0.35897 -0.39067,-0.88367 l -5.2e-4,-0.45268 c 8.8e-4,0 0.002,-0.002 0.003,-0.003 l 0.008,-1.7906 c 0.003,-0.61777 0.0866,-0.7649 0.43098,-0.9436 0.15326,-0.0795 0.28766,-0.0966 0.65681,-0.0842 l 1.4981,-0.007 z m 17.79271,3.85248 c 0.41447,-0.0142 0.93484,0.089 1.09502,0.18139 0.60482,0.34913 0.72431,1.37519 0.51212,1.44073 -0.38968,0.12034 -1.36481,0.20234 -1.75235,-0.1633 -0.23676,-0.22336 -0.52572,-1.04255 -0.38551,-1.27899 0.0716,-0.12066 0.28204,-0.17129 0.53072,-0.17983 z m -3.59978,1.00407 c 0.64615,-4.6e-4 1.36886,0.005 2.08773,0.0186 l 0.25579,0.0894 c 0.34196,0.28774 0.15907,0.79271 -0.32039,0.88521 -0.29404,0.0567 -3.40408,0.0859 -3.70003,0.0289 -0.45285,-0.0871 -0.62127,-0.5999 -0.29456,-0.88315 0.0597,-0.0518 0.17664,-0.11028 0.34468,-0.11627 0.41123,-0.0145 0.98064,-0.0221 1.62678,-0.0227 z m -23.51588,0.0336 2.08101,0.0202 10.57403,0.0372 0.16537,0.13953 c 0.34196,0.28773 0.15958,0.79272 -0.31988,0.88522 -0.29404,0.0567 -12.07538,-0.003 -12.37134,-0.06 -0.45283,-0.0871 -0.62532,-0.60467 -0.29455,-0.88315 z m 22.41775,2.5244 c 0.0776,-0.004 0.15655,-0.004 0.23565,10e-4 0.18081,0.0104 0.36443,0.0428 0.5488,0.0997 0.93374,0.28841 1.61791,1.36319 1.45883,2.29185 -0.12673,0.73985 -0.55761,1.33759 -1.18804,1.64797 -0.3101,0.15267 -0.41095,0.17437 -0.8661,0.18707 -0.32826,0.009 -0.59717,-0.0125 -0.74156,-0.0594 -0.84141,-0.27399 -1.46619,-1.05946 -1.51153,-1.89963 -0.0671,-1.2435 0.89992,-2.21201 2.06395,-2.26859 z m -16.67805,0.005 c 0.32128,0.017 0.5166,0.0604 0.74673,0.16589 0.40144,0.18396 0.8838,0.66535 1.08934,1.08727 0.14157,0.29057 0.15766,0.3761 0.15813,0.86041 4.6e-4,0.47922 -0.0166,0.57411 -0.154,0.87178 -0.19192,0.41547 -0.66173,0.87781 -1.09451,1.07745 -0.2552,0.11776 -0.40229,0.14627 -0.82165,0.15864 -0.32647,0.01 -0.5926,-0.0117 -0.73742,-0.0589 -0.56021,-0.18243 -1.09538,-0.65974 -1.34928,-1.20353 -0.12374,-0.265 -0.14371,-0.37831 -0.14417,-0.81856 -4.5e-4,-0.46173 0.0155,-0.54521 0.16794,-0.86713 0.41464,-0.87512 1.16984,-1.32442 2.13889,-1.27331 z"
       sodipodi:nodetypes="cccscccccscscccsccccsccccscccccccccccscscsccccsccccccccccsssssscssccscccscccccccccccscsscscccscsccccccsccccccssccsccsssccccsccc" />
    <g
       id="p-1"
       style="fill:none;stroke-linecap:round;stroke-linejoin:round;stroke:#ff0000;stroke-opacity:1"
       transform="translate(-2.9319582,67.339708)">
      <path
         d="m 26.2,285.6 h -3.5 c -0.1,0 0,0.1 0,0 v -3.4 c 0,-0.1 -0.1,0 0,0 h 7 c 0.1,0 0,-0.1 0,0 v 3.4 c 0,0.1 0.1,0 0,0 z"
         stroke="#0000ff"
         stroke-width="0.2"
         id="path4332"
         style="stroke:#ff0000;stroke-opacity:1" />
      <path
         d="m 201.2,282.2 h 3.5 c 0.1,0 0,-0.1 0,0 v 3.4 c 0,0.1 0.1,0 0,0 h -7 c -0.1,0 0,0.1 0,0 v -3.4 c 0,-0.1 -0.1,0 0,0 z"
         stroke="#0000ff"
         stroke-width="0.2"
         id="path4334"
         style="stroke:#ff0000;stroke-opacity:1" />
      <path
         d="m 13.7,335.8 h 9.9 c 0.1,0 0,-0.1 0,0 v 3.5 c 0,0.055 0.045,0.1 0.1,0.1 h 7.2 c 0.055,0 0.1,-0.045 0.1,-0.1 v -3.5 c 0,-0.1 -0.1,0 0,0 h 7 c 0.1,0 0,-0.1 0,0 v 3.5 c 0,0.055 0.045,0.1 0.1,0.1 h 7.2 c 0.055,0 0.1,-0.045 0.1,-0.1 v -3.5 c 0,-0.1 -0.1,0 0,0 h 7 c 0.1,0 0,-0.1 0,0 v 3.5 c 0,0.055 0.045,0.1 0.1,0.1 h 7.2 c 0.055,0 0.1,-0.045 0.1,-0.1 v -3.5 c 0,-0.1 -0.1,0 0,0 h 7 c 0.1,0 0,-0.1 0,0 v 3.5 c 0,0.055 0.045,0.1 0.1,0.1 h 7.2 c 0.055,0 0.1,-0.045 0.1,-0.1 v -3.5 c 0,-0.1 -0.1,0 0,0 h 7 c 0.1,0 0,-0.1 0,0 v 3.5 c 0,0.055 0.045,0.1 0.1,0.1 h 7.2 c 0.055,0 0.1,-0.045 0.1,-0.1 v -3.5 c 0,-0.1 -0.1,0 0,0 h 7 c 0.1,0 0,-0.1 0,0 v 3.5 c 0,0.055 0.045,0.1 0.1,0.1 h 7.2 c 0.055,0 0.1,-0.045 0.1,-0.1 v -3.5 c 0,-0.1 -0.1,0 0,0 h 7 c 0.1,0 0,-0.1 0,0 v 3.5 c 0,0.055 0.045,0.1 0.1,0.1 h 7.2 c 0.055,0 0.1,-0.045 0.1,-0.1 v -3.5 c 0,-0.1 -0.1,0 0,0 h 7 c 0.1,0 0,-0.1 0,0 v 3.5 c 0,0.055 0.045,0.1 0.1,0.1 h 7.2 c 0.055,0 0.1,-0.045 0.1,-0.1 v -3.5 c 0,-0.1 -0.1,0 0,0 h 7 c 0.1,0 0,-0.1 0,0 v 3.5 c 0,0.055 0.045,0.1 0.1,0.1 h 7.2 c 0.055,0 0.1,-0.045 0.1,-0.1 v -3.5 c 0,-0.1 -0.1,0 0,0 h 7 c 0.1,0 0,-0.1 0,0 v 3.5 c 0,0.055 0.045,0.1 0.1,0.1 h 7.2 c 0.055,0 0.1,-0.045 0.1,-0.1 v -3.5 c 0,-0.1 -0.1,0 0,0 h 7 c 0.1,0 0,-0.1 0,0 v 3.5 c 0,0.055 0.045,0.1 0.1,0.1 h 7.2 c 0.055,0 0.1,-0.045 0.1,-0.1 v -3.5 c 0,-0.1 -0.1,0 0,0 h 7 c 0.1,0 0,-0.1 0,0 v 3.5 c 0,0.055 0.045,0.1 0.1,0.1 h 7.2 c 0.055,0 0.1,-0.045 0.1,-0.1 v -3.5 c 0,-0.1 -0.1,0 0,0 h 7 c 0.1,0 0,-0.1 0,0 v 3.5 c 0,0.055 0.045,0.1 0.1,0.1 h 7.2 c 0.055,0 0.1,-0.045 0.1,-0.1 v -3.5 c 0,-0.1 -0.1,0 0,0 h 9.9 3.6 c 0.055,0 0.1,-0.045 0.1,-0.1 v -10.6 c 0,-0.055 -0.045,-0.1 -0.1,-0.1 h -3.5 c -0.1,0 0,0.1 0,0 v -7 c 0,-0.1 -0.1,0 0,0 h 3.5 c 0.055,0 0.1,-0.045 0.1,-0.1 v -7.2 c 0,-0.055 -0.045,-0.1 -0.1,-0.1 h -3.5 c -0.1,0 0,0.1 0,0 v -7 c 0,-0.1 -0.1,0 0,0 h 3.5 c 0.055,0 0.1,-0.045 0.1,-0.1 v -7.2 c 0,-0.055 -0.045,-0.1 -0.1,-0.1 h -3.5 c -0.1,0 0,0.1 0,0 v -7 c 0,-0.1 -0.1,0 0,0 h 3.5 c 0.055,0 0.1,-0.045 0.1,-0.1 v -10.6 c 0,-0.055 -0.045,-0.1 -0.1,-0.1 h -3.6 -200 -3.6 c -0.055,0 -0.1,0.045 -0.1,0.1 v 10.6 c 0,0.055 0.045,0.1 0.1,0.1 h 3.5 c 0.1,0 0,-0.1 0,0 v 7 c 0,0.1 0.1,0 0,0 h -3.5 c -0.055,0 -0.1,0.045 -0.1,0.1 v 7.2 c 0,0.055 0.045,0.1 0.1,0.1 h 3.5 c 0.1,0 0,-0.1 0,0 v 7 c 0,0.1 0.1,0 0,0 h -3.5 c -0.055,0 -0.1,0.045 -0.1,0.1 v 7.2 c 0,0.055 0.045,0.1 0.1,0.1 h 3.5 c 0.1,0 0,-0.1 0,0 v 7 c 0,0.1 0.1,0 0,0 h -3.5 c -0.055,0 -0.1,0.045 -0.1,0.1 v 10.6 c 0,0.055 0.045,0.1 0.1,0.1 h 3.6"
         stroke="#000000"
         stroke-width="0.2"
         id="path4338"
         style="stroke:#ff0000;stroke-opacity:1" />
    </g>
  </g>
  <g
     id="g5779">
    <rect
       style="fill:none;stroke:#ff0000;stroke-width:0.25;stroke-linejoin:round;paint-order:markers stroke fill"
       id="rect45-4-1"
       width="25"
       height="15"
       x="247.46805"
       y="368.73972"
       rx="2"
       ry="2" />
    <g
       id="p-2"
       style="fill:none;stroke-linecap:round;stroke-linejoin:round;stroke:#ff0000;stroke-opacity:1"
       transform="translate(-2.9319582,67.339708)">
      <path
         d="m 235.4,285.6 h -3.5 c -0.1,0 0,0.1 0,0 v -3.4 c 0,-0.1 -0.1,0 0,0 h 7 c 0.1,0 0,-0.1 0,0 v 3.4 c 0,0.1 0.1,0 0,0 z"
         stroke="#0000ff"
         stroke-width="0.2"
         id="path4341"
         style="stroke:#ff0000;stroke-opacity:1" />
      <path
         d="m 290.4,282.2 h 3.5 c 0.1,0 0,-0.1 0,0 v 3.4 c 0,0.1 0.1,0 0,0 h -7 c -0.1,0 0,0.1 0,0 v -3.4 c 0,-0.1 -0.1,0 0,0 z"
         stroke="#0000ff"
         stroke-width="0.2"
         id="path4343"
         style="stroke:#ff0000;stroke-opacity:1" />
      <path
         d="m 222.9,335.8 h 7.5 c 0.1,0 0,-0.1 0,0 v 3.5 c 0,0.055 0.045,0.1 0.1,0.1 h 7.2 c 0.055,0 0.1,-0.045 0.1,-0.1 v -3.5 c 0,-0.1 -0.1,0 0,0 h 7 c 0.1,0 0,-0.1 0,0 v 3.5 c 0,0.055 0.045,0.1 0.1,0.1 h 7.2 c 0.055,0 0.1,-0.045 0.1,-0.1 v -3.5 c 0,-0.1 -0.1,0 0,0 h 7 c 0.1,0 0,-0.1 0,0 v 3.5 c 0,0.055 0.045,0.1 0.1,0.1 h 7.2 c 0.055,0 0.1,-0.045 0.1,-0.1 v -3.5 c 0,-0.1 -0.1,0 0,0 h 7 c 0.1,0 0,-0.1 0,0 v 3.5 c 0,0.055 0.045,0.1 0.1,0.1 h 7.2 c 0.055,0 0.1,-0.045 0.1,-0.1 v -3.5 c 0,-0.1 -0.1,0 0,0 h 7 c 0.1,0 0,-0.1 0,0 v 3.5 c 0,0.055 0.045,0.1 0.1,0.1 h 7.2 c 0.055,0 0.1,-0.045 0.1,-0.1 v -3.5 c 0,-0.1 -0.1,0 0,0 h 7.5 c 0.055,0 0.1,-0.045 0.1,-0.1 v -10.5 c 0,-0.1 -0.1,0 0,0 h 3.5 c 0.055,0 0.1,-0.045 0.1,-0.1 v -7.2 c 0,-0.055 -0.045,-0.1 -0.1,-0.1 H 303 c -0.1,0 0,0.1 0,0 v -7 c 0,-0.1 -0.1,0 0,0 h 3.5 c 0.055,0 0.1,-0.045 0.1,-0.1 v -7.2 c 0,-0.055 -0.045,-0.1 -0.1,-0.1 H 303 c -0.1,0 0,0.1 0,0 v -7 c 0,-0.1 -0.1,0 0,0 h 3.5 c 0.055,0 0.1,-0.045 0.1,-0.1 v -7.2 c 0,-0.055 -0.045,-0.1 -0.1,-0.1 H 303 c -0.1,0 0,0.1 0,0 v -10.5 c 0,-0.055 -0.045,-0.1 -0.1,-0.1 h -80 c -0.055,0 -0.1,0.045 -0.1,0.1 V 289 c 0,0.1 0.1,0 0,0 h -3.5 c -0.055,0 -0.1,0.045 -0.1,0.1 v 7.2 c 0,0.055 0.045,0.1 0.1,0.1 h 3.5 c 0.1,0 0,-0.1 0,0 v 7 c 0,0.1 0.1,0 0,0 h -3.5 c -0.055,0 -0.1,0.045 -0.1,0.1 v 7.2 c 0,0.055 0.045,0.1 0.1,0.1 h 3.5 c 0.1,0 0,-0.1 0,0 v 7 c 0,0.1 0.1,0 0,0 h -3.5 c -0.055,0 -0.1,0.045 -0.1,0.1 v 7.2 c 0,0.055 0.045,0.1 0.1,0.1 h 3.5 c 0.1,0 0,-0.1 0,0 v 10.5 c 0,0.055 0.045,0.1 0.1,0.1"
         stroke="#000000"
         stroke-width="0.2"
         id="path4347"
         style="stroke:#ff0000;stroke-opacity:1" />
    </g>
  </g>
  <g
     id="g5772">
    <rect
       style="fill:none;stroke:#ff0000;stroke-width:0.25;stroke-linejoin:round;paint-order:markers stroke fill"
       id="rect45-4-1-4"
       width="25"
       height="15"
       x="247.46805"
       y="305.9397"
       rx="2"
       ry="2" />
    <g
       id="p-3"
       style="fill:none;stroke-linecap:round;stroke-linejoin:round;stroke:#ff0000;stroke-opacity:1"
       transform="translate(-2.9319582,67.339708)">
      <path
         d="m 235.4,222.8 h -3.5 c -0.1,0 0,0.1 0,0 v -3.4 c 0,-0.1 -0.1,0 0,0 h 7 c 0.1,0 0,-0.1 0,0 v 3.4 c 0,0.1 0.1,0 0,0 z"
         stroke="#0000ff"
         stroke-width="0.2"
         id="path4350"
         style="stroke:#ff0000;stroke-opacity:1" />
      <path
         d="m 290.4,219.4 h 3.5 c 0.1,0 0,-0.1 0,0 v 3.4 c 0,0.1 0.1,0 0,0 h -7 c -0.1,0 0,0.1 0,0 v -3.4 c 0,-0.1 -0.1,0 0,0 z"
         stroke="#0000ff"
         stroke-width="0.2"
         id="path4352"
         style="stroke:#ff0000;stroke-opacity:1" />
      <path
         d="m 222.9,273 h 7.5 c 0.1,0 0,-0.1 0,0 v 3.5 c 0,0.055 0.045,0.1 0.1,0.1 h 7.2 c 0.055,0 0.1,-0.045 0.1,-0.1 V 273 c 0,-0.1 -0.1,0 0,0 h 7 c 0.1,0 0,-0.1 0,0 v 3.5 c 0,0.055 0.045,0.1 0.1,0.1 h 7.2 c 0.055,0 0.1,-0.045 0.1,-0.1 V 273 c 0,-0.1 -0.1,0 0,0 h 7 c 0.1,0 0,-0.1 0,0 v 3.5 c 0,0.055 0.045,0.1 0.1,0.1 h 7.2 c 0.055,0 0.1,-0.045 0.1,-0.1 V 273 c 0,-0.1 -0.1,0 0,0 h 7 c 0.1,0 0,-0.1 0,0 v 3.5 c 0,0.055 0.045,0.1 0.1,0.1 h 7.2 c 0.055,0 0.1,-0.045 0.1,-0.1 V 273 c 0,-0.1 -0.1,0 0,0 h 7 c 0.1,0 0,-0.1 0,0 v 3.5 c 0,0.055 0.045,0.1 0.1,0.1 h 7.2 c 0.055,0 0.1,-0.045 0.1,-0.1 V 273 c 0,-0.1 -0.1,0 0,0 h 7.5 c 0.055,0 0.1,-0.045 0.1,-0.1 v -10.5 c 0,-0.1 -0.1,0 0,0 h 3.5 c 0.055,0 0.1,-0.045 0.1,-0.1 v -7.2 c 0,-0.055 -0.045,-0.1 -0.1,-0.1 H 303 c -0.1,0 0,0.1 0,0 v -7 c 0,-0.1 -0.1,0 0,0 h 3.5 c 0.055,0 0.1,-0.045 0.1,-0.1 v -7.2 c 0,-0.055 -0.045,-0.1 -0.1,-0.1 H 303 c -0.1,0 0,0.1 0,0 v -7 c 0,-0.1 -0.1,0 0,0 h 3.5 c 0.055,0 0.1,-0.045 0.1,-0.1 v -7.2 c 0,-0.055 -0.045,-0.1 -0.1,-0.1 H 303 c -0.1,0 0,0.1 0,0 v -10.5 c 0,-0.055 -0.045,-0.1 -0.1,-0.1 h -80 c -0.055,0 -0.1,0.045 -0.1,0.1 v 10.5 c 0,0.1 0.1,0 0,0 h -3.5 c -0.055,0 -0.1,0.045 -0.1,0.1 v 7.2 c 0,0.055 0.045,0.1 0.1,0.1 h 3.5 c 0.1,0 0,-0.1 0,0 v 7 c 0,0.1 0.1,0 0,0 h -3.5 c -0.055,0 -0.1,0.045 -0.1,0.1 v 7.2 c 0,0.055 0.045,0.1 0.1,0.1 h 3.5 c 0.1,0 0,-0.1 0,0 v 7 c 0,0.1 0.1,0 0,0 h -3.5 c -0.055,0 -0.1,0.045 -0.1,0.1 v 7.2 c 0,0.055 0.045,0.1 0.1,0.1 h 3.5 c 0.1,0 0,-0.1 0,0 v 10.5 c 0,0.055 0.045,0.1 0.1,0.1"
         stroke="#000000"
         stroke-width="0.2"
         id="path4356"
         style="stroke:#ff0000;stroke-opacity:1" />
    </g>
  </g>
  <g
     id="g5790">
    <rect
       style="fill:none;stroke:#ff0000;stroke-width:0.25;stroke-linejoin:round;paint-order:markers stroke fill"
       id="rect45-46"
       width="25"
       height="15"
       x="33.51936"
       y="305.9397"
       rx="2"
       ry="2" />
    <rect
       style="fill:none;stroke:#ff0000;stroke-width:0.25;stroke-linejoin:round;paint-order:markers stroke fill"
       id="rect45-3-6"
       width="25"
       height="15"
       x="67.272804"
       y="305.9397"
       rx="2"
       ry="2" />
    <rect
       style="fill:none;stroke:#ff0000;stroke-width:0.25;stroke-linejoin:round;paint-order:markers stroke fill"
       id="rect45-4-6"
       width="25"
       height="15"
       x="101.02625"
       y="305.9397"
       rx="2"
       ry="2" />
    <path
       id="path1"
       style="fill:#0000ff;fill-opacity:1;stroke:none;stroke-width:0.11414;stroke-linejoin:round;stroke-dasharray:none;stroke-opacity:1;paint-order:markers stroke fill"
       d="m 177.5578,305.38268 -10.36526,0.0289 -10.69237,-0.017 c -0.58987,0.11779 -1.62784,0.8783 -2.04949,1.75493 -0.3151,0.65507 -0.31614,0.74684 -0.32504,3.29024 l -0.005,2.44016 c 0.54385,0.0326 0.54784,0.19612 0.60151,0.35811 -0.0143,0.33826 0.004,1.53072 -0.004,1.95389 -0.057,0.11909 0.0379,0.2625 -0.62115,0.293 v 0.16175 c 0,0.48258 0.0261,0.15902 0.0584,0.33331 0.12224,0.66121 0.47823,1.12244 1.10329,1.4304 0.36672,0.18068 0.37164,0.18143 1.25677,0.19896 l 0.88883,0.0181 -0.0181,0.3757 c -0.0453,0.94682 0.34369,1.97334 1.19992,2.69699 0.764,0.64567 1.69313,0.7493 2.64015,0.7953 l 0.014,-0.0326 c 1.51812,-0.0731 1.8656,-0.49029 2.51405,-0.81907 0.54599,-0.56576 0.80481,-1.02112 0.98341,-1.73116 0.0678,-0.26971 0.1142,-0.62397 0.1142,-0.87334 v -0.42012 l 3.8933,0.0134 c 0.0127,2.9e-4 0.0232,-0.004 0.0351,-0.005 h 5.5268 c -0.0511,0.54796 0.0181,1.11456 0.22789,1.65726 0.1974,0.51075 0.45659,0.89502 0.89504,1.32705 0.53551,0.35636 0.9869,0.72776 2.70423,0.87489 l 0.0103,0.01 c 1.37188,-0.13898 1.98458,-0.53348 2.55798,-0.94102 0.67919,-0.71502 1.03952,-1.54895 1.05369,-2.43913 l 0.008,-0.49713 0.9679,-10e-4 c 0.53236,-4.5e-4 1.02228,-0.0158 1.08883,-0.0336 0.0271,-0.007 0.0482,-0.0105 0.0646,-0.0114 0.92647,-0.0299 1.48875,-0.92769 1.50172,-1.60765 0.005,-0.10862 0.009,-0.12761 0.01,-0.11059 -0.002,0.002 -0.004,0.0679 -0.004,-0.24805 0,-1.41288 -0.0123,-2.27971 -0.061,-2.46238 -0.21099,-0.79092 -0.54326,-1.25056 -1.21491,-1.70067 -0.21666,-0.14519 -0.73867,-0.24986 -0.77566,-0.27027 -0.037,-0.0205 -0.64029,-1.08441 -1.23507,-2.10478 -0.59481,-1.02036 -1.18562,-2.00224 -1.3131,-2.18178 -0.69693,-0.98138 -1.6488,-1.47348 -2.85357,-1.47485 h -0.38189 z m -2.31924,1.39836 c 0.38059,1.4e-4 0.47336,0.0233 0.62012,0.0982 0.27123,0.13837 0.4783,0.38285 0.54984,0.64854 0.0362,0.13422 0.002,1.84732 -0.007,3.9362 l -0.0139,3.21427 -0.37466,0.22014 c -0.6485,0.38116 -1.13383,0.95305 -1.42162,1.61386 -5.04182,-0.0589 -5.301,0.0514 -5.46116,-0.12402 -0.19411,-0.24007 -0.14538,0.0627 -0.0941,-3.77549 l 0.0408,-5.10511 c -0.0328,-0.45829 0.27156,-0.65142 0.77515,-0.65371 0.32732,-0.0169 4.09902,-0.0502 4.89686,-0.0661 0.20358,-0.004 0.36251,-0.007 0.48937,-0.007 z m 3.31504,0.51315 c 0.32798,-1e-4 1.06227,0.10983 1.22784,0.29198 0.0981,0.1079 1.29746,2.09227 1.79989,2.97811 0.17451,0.30768 0.18918,0.8046 0.0703,1.03456 -0.14691,0.28415 -0.31504,0.31535 -1.67535,0.31523 -1.05861,-5e-5 -1.58351,0.0348 -1.74615,-0.0465 -0.12237,-0.0612 -0.23158,-0.17856 -0.31161,-0.3359 -0.12084,-0.23753 -0.40591,-0.62778 -0.39067,-2.10581 0.0145,-1.40066 -0.0729,-1.58037 0.0289,-1.75545 0.14247,-0.24516 0.63998,-0.37611 0.99683,-0.37621 z m -13.69838,1.14049 h 0.96014 c 0.65438,0.004 1.5083,0.003 1.6304,0.67231 v 1.50585 c 0,1.70387 -0.0125,1.76315 -0.40256,1.96216 -0.20122,0.10278 -0.31226,0.10822 -2.21692,0.10594 -1.59979,-0.002 -2.04061,-0.0173 -2.1792,-0.0775 -0.28696,-0.12474 -0.39045,-0.35897 -0.39067,-0.88367 l -5.2e-4,-0.45268 c 8.8e-4,0 0.002,-0.002 0.003,-0.003 l 0.008,-1.79059 c 0.003,-0.61777 0.0866,-0.7649 0.43098,-0.9436 0.15326,-0.0795 0.28766,-0.0966 0.65681,-0.0842 l 1.4981,-0.007 z m 17.79271,3.85249 c 0.41447,-0.0142 0.93484,0.089 1.09502,0.18139 0.60482,0.34913 0.72431,1.37519 0.51212,1.44073 -0.38968,0.12034 -1.36481,0.20233 -1.75235,-0.1633 -0.23676,-0.22336 -0.52572,-1.04255 -0.38551,-1.279 0.0716,-0.12065 0.28204,-0.17129 0.53072,-0.17982 z m -3.59978,1.00407 c 0.64615,-4.6e-4 1.36886,0.005 2.08773,0.0186 l 0.25579,0.0894 c 0.34196,0.28774 0.15907,0.79271 -0.32039,0.8852 -0.29404,0.0567 -3.40408,0.0859 -3.70003,0.0289 -0.45285,-0.0871 -0.62127,-0.5999 -0.29456,-0.88315 0.0597,-0.0518 0.17664,-0.11028 0.34468,-0.11627 0.41123,-0.0145 0.98064,-0.0221 1.62678,-0.0227 z m -23.51588,0.0336 2.08101,0.0202 10.57403,0.0372 0.16537,0.13953 c 0.34196,0.28773 0.15958,0.79272 -0.31988,0.88522 -0.29404,0.0567 -12.07538,-0.003 -12.37134,-0.06 -0.45283,-0.0871 -0.62532,-0.60467 -0.29455,-0.88315 z m 22.41775,2.5244 c 0.0776,-0.004 0.15655,-0.004 0.23565,9.9e-4 0.18081,0.0104 0.36443,0.0428 0.5488,0.0997 0.93374,0.28841 1.61791,1.36319 1.45883,2.29185 -0.12673,0.73985 -0.55761,1.33759 -1.18804,1.64796 -0.3101,0.15267 -0.41095,0.17438 -0.8661,0.18708 -0.32826,0.009 -0.59717,-0.0125 -0.74156,-0.0594 -0.84141,-0.274 -1.46619,-1.05946 -1.51153,-1.89963 -0.0671,-1.2435 0.89992,-2.21202 2.06395,-2.26859 z m -16.67805,0.005 c 0.32128,0.017 0.5166,0.0604 0.74673,0.16589 0.40144,0.18396 0.8838,0.66534 1.08934,1.08726 0.14157,0.29058 0.15766,0.37611 0.15813,0.86041 4.6e-4,0.47923 -0.0166,0.57412 -0.154,0.87178 -0.19192,0.41548 -0.66173,0.87782 -1.09451,1.07746 -0.2552,0.11776 -0.40229,0.14627 -0.82165,0.15864 -0.32647,0.01 -0.5926,-0.0117 -0.73742,-0.0589 -0.56021,-0.18243 -1.09538,-0.65975 -1.34928,-1.20354 -0.12374,-0.26499 -0.14371,-0.37831 -0.14417,-0.81856 -4.5e-4,-0.46172 0.0155,-0.5452 0.16794,-0.86712 0.41464,-0.87512 1.16984,-1.32442 2.13889,-1.27331 z"
       sodipodi:nodetypes="cccscccccscscccsccccsccccscccccccccccscscsccccsccccccccccsssssscssccscccscccccccccccscsscscccscsccccccsccccccssccsccsssccccsccc" />
    <g
       id="p-4"
       style="fill:none;stroke-linecap:round;stroke-linejoin:round;stroke:#ff0000;stroke-opacity:1"
       transform="translate(-2.9319582,67.339708)">
      <path
         d="m 26.2,222.8 h -3.5 c -0.1,0 0,0.1 0,0 v -3.4 c 0,-0.1 -0.1,0 0,0 h 7 c 0.1,0 0,-0.1 0,0 v 3.4 c 0,0.1 0.1,0 0,0 z"
         stroke="#0000ff"
         stroke-width="0.2"
         id="path4359"
         style="stroke:#ff0000;stroke-opacity:1" />
      <path
         d="m 201.2,219.4 h 3.5 c 0.1,0 0,-0.1 0,0 v 3.4 c 0,0.1 0.1,0 0,0 h -7 c -0.1,0 0,0.1 0,0 v -3.4 c 0,-0.1 -0.1,0 0,0 z"
         stroke="#0000ff"
         stroke-width="0.2"
         id="path4361"
         style="stroke:#ff0000;stroke-opacity:1" />
      <path
         d="m 13.7,273 h 9.9 c 0.1,0 0,-0.1 0,0 v 3.5 c 0,0.055 0.045,0.1 0.1,0.1 h 7.2 c 0.055,0 0.1,-0.045 0.1,-0.1 V 273 c 0,-0.1 -0.1,0 0,0 h 7 c 0.1,0 0,-0.1 0,0 v 3.5 c 0,0.055 0.045,0.1 0.1,0.1 h 7.2 c 0.055,0 0.1,-0.045 0.1,-0.1 V 273 c 0,-0.1 -0.1,0 0,0 h 7 c 0.1,0 0,-0.1 0,0 v 3.5 c 0,0.055 0.045,0.1 0.1,0.1 h 7.2 c 0.055,0 0.1,-0.045 0.1,-0.1 V 273 c 0,-0.1 -0.1,0 0,0 h 7 c 0.1,0 0,-0.1 0,0 v 3.5 c 0,0.055 0.045,0.1 0.1,0.1 h 7.2 c 0.055,0 0.1,-0.045 0.1,-0.1 V 273 c 0,-0.1 -0.1,0 0,0 h 7 c 0.1,0 0,-0.1 0,0 v 3.5 c 0,0.055 0.045,0.1 0.1,0.1 h 7.2 c 0.055,0 0.1,-0.045 0.1,-0.1 V 273 c 0,-0.1 -0.1,0 0,0 h 7 c 0.1,0 0,-0.1 0,0 v 3.5 c 0,0.055 0.045,0.1 0.1,0.1 h 7.2 c 0.055,0 0.1,-0.045 0.1,-0.1 V 273 c 0,-0.1 -0.1,0 0,0 h 7 c 0.1,0 0,-0.1 0,0 v 3.5 c 0,0.055 0.045,0.1 0.1,0.1 h 7.2 c 0.055,0 0.1,-0.045 0.1,-0.1 V 273 c 0,-0.1 -0.1,0 0,0 h 7 c 0.1,0 0,-0.1 0,0 v 3.5 c 0,0.055 0.045,0.1 0.1,0.1 h 7.2 c 0.055,0 0.1,-0.045 0.1,-0.1 V 273 c 0,-0.1 -0.1,0 0,0 h 7 c 0.1,0 0,-0.1 0,0 v 3.5 c 0,0.055 0.045,0.1 0.1,0.1 h 7.2 c 0.055,0 0.1,-0.045 0.1,-0.1 V 273 c 0,-0.1 -0.1,0 0,0 h 7 c 0.1,0 0,-0.1 0,0 v 3.5 c 0,0.055 0.045,0.1 0.1,0.1 h 7.2 c 0.055,0 0.1,-0.045 0.1,-0.1 V 273 c 0,-0.1 -0.1,0 0,0 h 7 c 0.1,0 0,-0.1 0,0 v 3.5 c 0,0.055 0.045,0.1 0.1,0.1 h 7.2 c 0.055,0 0.1,-0.045 0.1,-0.1 V 273 c 0,-0.1 -0.1,0 0,0 h 7 c 0.1,0 0,-0.1 0,0 v 3.5 c 0,0.055 0.045,0.1 0.1,0.1 h 7.2 c 0.055,0 0.1,-0.045 0.1,-0.1 V 273 c 0,-0.1 -0.1,0 0,0 h 7 c 0.1,0 0,-0.1 0,0 v 3.5 c 0,0.055 0.045,0.1 0.1,0.1 h 7.2 c 0.055,0 0.1,-0.045 0.1,-0.1 V 273 c 0,-0.1 -0.1,0 0,0 h 9.9 3.6 c 0.055,0 0.1,-0.045 0.1,-0.1 v -10.6 c 0,-0.055 -0.045,-0.1 -0.1,-0.1 h -3.5 c -0.1,0 0,0.1 0,0 v -7 c 0,-0.1 -0.1,0 0,0 h 3.5 c 0.055,0 0.1,-0.045 0.1,-0.1 v -7.2 c 0,-0.055 -0.045,-0.1 -0.1,-0.1 h -3.5 c -0.1,0 0,0.1 0,0 v -7 c 0,-0.1 -0.1,0 0,0 h 3.5 c 0.055,0 0.1,-0.045 0.1,-0.1 v -7.2 c 0,-0.055 -0.045,-0.1 -0.1,-0.1 h -3.5 c -0.1,0 0,0.1 0,0 v -7 c 0,-0.1 -0.1,0 0,0 h 3.5 c 0.055,0 0.1,-0.045 0.1,-0.1 v -10.6 c 0,-0.055 -0.045,-0.1 -0.1,-0.1 h -3.6 -200 -3.6 c -0.055,0 -0.1,0.045 -0.1,0.1 v 10.6 c 0,0.055 0.045,0.1 0.1,0.1 h 3.5 c 0.1,0 0,-0.1 0,0 v 7 c 0,0.1 0.1,0 0,0 h -3.5 c -0.055,0 -0.1,0.045 -0.1,0.1 v 7.2 c 0,0.055 0.045,0.1 0.1,0.1 h 3.5 c 0.1,0 0,-0.1 0,0 v 7 c 0,0.1 0.1,0 0,0 h -3.5 c -0.055,0 -0.1,0.045 -0.1,0.1 v 7.2 c 0,0.055 0.045,0.1 0.1,0.1 h 3.5 c 0.1,0 0,-0.1 0,0 v 7 c 0,0.1 0.1,0 0,0 h -3.5 c -0.055,0 -0.1,0.045 -0.1,0.1 v 10.6 c 0,0.055 0.045,0.1 0.1,0.1 h 3.6"
         stroke="#000000"
         stroke-width="0.2"
         id="path4365"
         style="stroke:#ff0000;stroke-opacity:1" />
      <text
         xml:space="preserve"
         transform="scale(0.26458333)"
         id="text5020"
         style="font-size:68.0315px;text-align:center;white-space:pre;shape-inside:url(#rect5022);display:inline;fill:none;stroke:#ff0000;stroke-width:0.944882;stroke-linejoin:round;stroke-opacity:1" />
    </g>
  </g>
  <g
     id="g5765">
    <g
       id="g5722"
       transform="translate(-0.64614611,0.02512446)">
      <g
         id="g373"
         transform="rotate(-90,83.661475,227.87532)">
        <g
           id="g47"
           transform="translate(-6.3500003,-3.7041668)">
          <circle
             style="fill:none;stroke:#ff0000;stroke-width:0.25;stroke-linejoin:round;paint-order:markers stroke fill"
             id="path46"
             cx="50.472431"
             cy="188.35309"
             r="1.5" />
          <circle
             style="fill:none;stroke:#ff0000;stroke-width:0.25;stroke-linejoin:round;paint-order:markers stroke fill"
             id="path46-3"
             cx="110.472"
             cy="258.353"
             r="1.5" />
          <circle
             style="fill:none;stroke:#ff0000;stroke-width:0.25;stroke-linejoin:round;paint-order:markers stroke fill"
             id="path46-7"
             cx="50.472431"
             cy="258.353"
             r="1.5" />
          <circle
             style="fill:none;stroke:#ff0000;stroke-width:0.25;stroke-linejoin:round;paint-order:markers stroke fill"
             id="path46-8"
             cx="110.472"
             cy="188.35309"
             r="1.5" />
          <circle
             style="fill:none;stroke:#ff0000;stroke-width:0.25;stroke-linejoin:round;paint-order:markers stroke fill"
             id="path47"
             cx="95.472"
             cy="238.353"
             r="6" />
          <circle
             style="fill:none;stroke:#ff0000;stroke-width:0.25;stroke-linejoin:round;paint-order:markers stroke fill"
             id="path47-8"
             cx="95.472"
             cy="208.353"
             r="6" />
          <circle
             style="fill:none;stroke:#ff0000;stroke-width:0.25;stroke-linejoin:round;paint-order:markers stroke fill"
             id="path46-8-2"
             cx="73.472"
             cy="208.353"
             r="3" />
          <circle
             style="fill:none;stroke:#ff0000;stroke-width:0.25;stroke-linejoin:round;paint-order:markers stroke fill"
             id="path46-8-2-9"
             cx="73.472"
             cy="238.353"
             r="3" />
        </g>
      </g>
      <g
         id="g378"
         transform="rotate(90,152.65068,241.1297)">
        <circle
           style="fill:none;fill-opacity:1;stroke:#ff0000;stroke-width:0.25;stroke-linejoin:round;stroke-opacity:1;paint-order:markers stroke fill"
           id="path48"
           cx="148.93556"
           cy="245.38699"
           r="1.5" />
        <circle
           style="fill:none;fill-opacity:1;stroke:#ff0000;stroke-width:0.25;stroke-linejoin:round;stroke-opacity:1;paint-order:markers stroke fill"
           id="path48-3"
           cx="148.93556"
           cy="190.38699"
           r="1.5" />
      </g>
    </g>
    <g
       id="p-5"
       style="fill:none;stroke-linecap:round;stroke-linejoin:round;stroke:#ff0000;stroke-opacity:1"
       transform="translate(-2.9319582,67.339708)">
      <path
         d="m 18.5,206.7 c 0,0.268 -0.077,0.531 -0.222,0.757 -0.145,0.226 -0.352,0.405 -0.596,0.516 -0.245,0.112 -0.516,0.151 -0.781,0.113 -0.266,-0.038 -0.515,-0.152 -0.718,-0.328 -0.203,-0.176 -0.351,-0.406 -0.426,-0.664 -0.076,-0.257 -0.076,-0.531 0,-0.788 0.075,-0.258 0.223,-0.488 0.426,-0.664 0.203,-0.176 0.452,-0.29 0.718,-0.328 0.265,-0.038 0.536,0.001 0.781,0.113 0.244,0.111 0.451,0.29 0.596,0.516 0.145,0.226 0.222,0.489 0.222,0.757 z"
         stroke="#0000ff"
         stroke-width="0.2"
         id="path4368"
         style="stroke:#ff0000;stroke-opacity:1" />
      <path
         d="m 17.1,213.8 h 10.6 10 c 0.055,0 0.1,-0.045 0.1,-0.1 v -3.5 c 0,-0.1 -0.1,0 0,0 h 7 c 0.1,0 0,-0.1 0,0 v 3.5 c 0,0.055 0.045,0.1 0.1,0.1 h 7.2 c 0.055,0 0.1,-0.045 0.1,-0.1 v -3.5 c 0,-0.1 -0.1,0 0,0 h 7 c 0.1,0 0,-0.1 0,0 v 3.5 c 0,0.055 0.045,0.1 0.1,0.1 h 7.2 c 0.055,0 0.1,-0.045 0.1,-0.1 v -3.5 c 0,-0.1 -0.1,0 0,0 h 7 c 0.1,0 0,-0.1 0,0 v 3.5 c 0,0.055 0.045,0.1 0.1,0.1 h 7.2 c 0.055,0 0.1,-0.045 0.1,-0.1 v -3.5 c 0,-0.1 -0.1,0 0,0 h 7 c 0.1,0 0,-0.1 0,0 v 3.5 c 0,0.055 0.045,0.1 0.1,0.1 h 7.2 c 0.055,0 0.1,-0.045 0.1,-0.1 v -3.5 c 0,-0.1 -0.1,0 0,0 h 7 c 0.1,0 0,-0.1 0,0 v 3.5 c 0,0.055 0.045,0.1 0.1,0.1 h 7.2 c 0.055,0 0.1,-0.045 0.1,-0.1 v -3.5 c 0,-0.1 -0.1,0 0,0 h 7 c 0.1,0 0,-0.1 0,0 v 3.5 c 0,0.055 0.045,0.1 0.1,0.1 h 7.2 c 0.055,0 0.1,-0.045 0.1,-0.1 v -3.5 c 0,-0.1 -0.1,0 0,0 h 7 c 0.1,0 0,-0.1 0,0 v 3.5 c 0,0.055 0.045,0.1 0.1,0.1 h 7.2 c 0.055,0 0.1,-0.045 0.1,-0.1 v -3.5 c 0,-0.1 -0.1,0 0,0 h 7 c 0.1,0 0,-0.1 0,0 v 3.5 c 0,0.055 0.045,0.1 0.1,0.1 h 7.2 c 0.055,0 0.1,-0.045 0.1,-0.1 v -3.5 c 0,-0.1 -0.1,0 0,0 h 7 c 0.1,0 0,-0.1 0,0 v 3.5 c 0,0.055 0.045,0.1 0.1,0.1 h 7.2 c 0.055,0 0.1,-0.045 0.1,-0.1 v -3.5 c 0,-0.1 -0.1,0 0,0 h 7 c 0.1,0 0,-0.1 0,0 v 3.5 c 0,0.055 0.045,0.1 0.1,0.1 h 7.2 c 0.055,0 0.1,-0.045 0.1,-0.1 v -3.5 c 0,-0.1 -0.1,0 0,0 h 7 c 0.1,0 0,-0.1 0,0 v 3.5 c 0,0.055 0.045,0.1 0.1,0.1 h 7.2 c 0.055,0 0.1,-0.045 0.1,-0.1 v -3.5 c 0,-0.1 -0.1,0 0,0 h 7 c 0.1,0 0,-0.1 0,0 v 3.5 c 0,0.055 0.045,0.1 0.1,0.1 h 7.2 c 0.055,0 0.1,-0.045 0.1,-0.1 v -3.5 c 0,-0.1 -0.1,0 0,0 h 7 c 0.1,0 0,-0.1 0,0 v 3.5 c 0,0.055 0.045,0.1 0.1,0.1 h 10 10.6 c 1.246,0 2.471,-0.328 3.55,-0.951 1.079,-0.623 1.976,-1.52 2.599,-2.599 0.623,-1.079 0.951,-2.304 0.951,-3.55 v -73.2 c 0,-1.246 -0.328,-2.471 -0.951,-3.55 -0.623,-1.079 -1.52,-1.976 -2.599,-2.599 -1.079,-0.623 -2.304,-0.951 -3.55,-0.951 h -10.6 -10 c -0.055,0 -0.1,0.045 -0.1,0.1 v 3.5 c 0,0.1 0.1,0 0,0 h -7 c -0.1,0 0,0.1 0,0 v -3.5 c 0,-0.055 -0.045,-0.1 -0.1,-0.1 h -7.2 c -0.055,0 -0.1,0.045 -0.1,0.1 v 3.5 c 0,0.1 0.1,0 0,0 h -7 c -0.1,0 0,0.1 0,0 v -3.5 c 0,-0.055 -0.045,-0.1 -0.1,-0.1 h -7.2 c -0.055,0 -0.1,0.045 -0.1,0.1 v 3.5 c 0,0.1 0.1,0 0,0 h -7 c -0.1,0 0,0.1 0,0 v -3.5 c 0,-0.055 -0.045,-0.1 -0.1,-0.1 h -7.2 c -0.055,0 -0.1,0.045 -0.1,0.1 v 3.5 c 0,0.1 0.1,0 0,0 h -7 c -0.1,0 0,0.1 0,0 v -3.5 c 0,-0.055 -0.045,-0.1 -0.1,-0.1 h -7.2 c -0.055,0 -0.1,0.045 -0.1,0.1 v 3.5 c 0,0.1 0.1,0 0,0 h -7 c -0.1,0 0,0.1 0,0 v -3.5 c 0,-0.055 -0.045,-0.1 -0.1,-0.1 h -7.2 c -0.055,0 -0.1,0.045 -0.1,0.1 v 3.5 c 0,0.1 0.1,0 0,0 h -7 c -0.1,0 0,0.1 0,0 v -3.5 c 0,-0.055 -0.045,-0.1 -0.1,-0.1 h -7.2 c -0.055,0 -0.1,0.045 -0.1,0.1 v 3.5 c 0,0.1 0.1,0 0,0 h -7 c -0.1,0 0,0.1 0,0 v -3.5 c 0,-0.055 -0.045,-0.1 -0.1,-0.1 h -7.2 c -0.055,0 -0.1,0.045 -0.1,0.1 v 3.5 c 0,0.1 0.1,0 0,0 h -7 c -0.1,0 0,0.1 0,0 v -3.5 c 0,-0.055 -0.045,-0.1 -0.1,-0.1 h -7.2 c -0.055,0 -0.1,0.045 -0.1,0.1 v 3.5 c 0,0.1 0.1,0 0,0 h -7 c -0.1,0 0,0.1 0,0 v -3.5 c 0,-0.055 -0.045,-0.1 -0.1,-0.1 h -7.2 c -0.055,0 -0.1,0.045 -0.1,0.1 v 3.5 c 0,0.1 0.1,0 0,0 h -7 c -0.1,0 0,0.1 0,0 v -3.5 c 0,-0.055 -0.045,-0.1 -0.1,-0.1 h -7.2 c -0.055,0 -0.1,0.045 -0.1,0.1 v 3.5 c 0,0.1 0.1,0 0,0 h -7 c -0.1,0 0,0.1 0,0 v -3.5 c 0,-0.055 -0.045,-0.1 -0.1,-0.1 h -7.2 c -0.055,0 -0.1,0.045 -0.1,0.1 v 3.5 c 0,0.1 0.1,0 0,0 h -7 c -0.1,0 0,0.1 0,0 v -3.5 c 0,-0.055 -0.045,-0.1 -0.1,-0.1 h -7.2 c -0.055,0 -0.1,0.045 -0.1,0.1 v 3.5 c 0,0.1 0.1,0 0,0 h -7 c -0.1,0 0,0.1 0,0 v -3.5 c 0,-0.055 -0.045,-0.1 -0.1,-0.1 h -10 -10.6 c -1.246,0 -2.471,0.328 -3.55,0.951 -1.079,0.623 -1.976,1.52 -2.599,2.599 C 10.328,131.029 10,132.254 10,133.5 v 73.2 c 0,1.246 0.328,2.471 0.951,3.55 0.623,1.079 1.52,1.976 2.599,2.599 1.079,0.623 2.304,0.951 3.55,0.951"
         stroke="#000000"
         stroke-width="0.2"
         id="path4372"
         style="stroke:#ff0000;stroke-opacity:1" />
      <path
         d="m 238.3,205.3 c 0.268,0 0.531,0.077 0.757,0.222 0.226,0.145 0.405,0.352 0.516,0.596 0.112,0.245 0.151,0.516 0.113,0.781 -0.038,0.266 -0.152,0.515 -0.328,0.718 -0.176,0.203 -0.406,0.351 -0.664,0.426 -0.257,0.076 -0.531,0.076 -0.788,0 -0.258,-0.075 -0.488,-0.223 -0.664,-0.426 -0.176,-0.203 -0.29,-0.452 -0.328,-0.718 -0.038,-0.265 0.001,-0.536 0.113,-0.781 0.111,-0.244 0.29,-0.451 0.516,-0.596 0.226,-0.145 0.489,-0.222 0.757,-0.222 z"
         stroke="#0000ff"
         stroke-width="0.2"
         id="path4374"
         style="stroke:#ff0000;stroke-opacity:1" />
      <path
         d="m 231.3,198.9 v 3.5 c 0,0.1 0.1,0 0,0 h -3.4 c -0.1,0 0,0.1 0,0 v -7 c 0,-0.1 -0.1,0 0,0 h 3.4 c 0.1,0 0,-0.1 0,0 z"
         stroke="#0000ff"
         stroke-width="0.2"
         id="path4376"
         style="stroke:#ff0000;stroke-opacity:1" />
      <path
         d="m 231.3,184.5 v 3.5 c 0,0.1 0.1,0 0,0 h -3.4 c -0.1,0 0,0.1 0,0 v -7 c 0,-0.1 -0.1,0 0,0 h 3.4 c 0.1,0 0,-0.1 0,0 z"
         stroke="#0000ff"
         stroke-width="0.2"
         id="path4378"
         style="stroke:#ff0000;stroke-opacity:1" />
      <path
         d="m 231.3,170.1 v 3.5 c 0,0.1 0.1,0 0,0 h -3.4 c -0.1,0 0,0.1 0,0 v -7 c 0,-0.1 -0.1,0 0,0 h 3.4 c 0.1,0 0,-0.1 0,0 z"
         stroke="#0000ff"
         stroke-width="0.2"
         id="path4380"
         style="stroke:#ff0000;stroke-opacity:1" />
      <path
         d="m 231.3,155.7 v 3.5 c 0,0.1 0.1,0 0,0 h -3.4 c -0.1,0 0,0.1 0,0 v -7 c 0,-0.1 -0.1,0 0,0 h 3.4 c 0.1,0 0,-0.1 0,0 z"
         stroke="#0000ff"
         stroke-width="0.2"
         id="path4382"
         style="stroke:#ff0000;stroke-opacity:1" />
      <path
         d="m 231.3,141.3 v 3.5 c 0,0.1 0.1,0 0,0 h -3.4 c -0.1,0 0,0.1 0,0 v -7 c 0,-0.1 -0.1,0 0,0 h 3.4 c 0.1,0 0,-0.1 0,0 z"
         stroke="#0000ff"
         stroke-width="0.2"
         id="path4384"
         style="stroke:#ff0000;stroke-opacity:1" />
      <path
         d="m 236.9,133.5 c 0,-0.268 0.077,-0.531 0.222,-0.757 0.145,-0.226 0.352,-0.405 0.596,-0.516 0.245,-0.112 0.516,-0.151 0.781,-0.113 0.266,0.038 0.515,0.152 0.718,0.328 0.203,0.176 0.351,0.406 0.426,0.664 0.076,0.257 0.076,0.531 0,0.788 -0.075,0.258 -0.223,0.488 -0.426,0.664 -0.203,0.176 -0.452,0.29 -0.718,0.328 -0.265,0.038 -0.536,-0.001 -0.781,-0.113 -0.244,-0.111 -0.451,-0.29 -0.596,-0.516 -0.145,-0.226 -0.222,-0.489 -0.222,-0.757 z"
         stroke="#0000ff"
         stroke-width="0.2"
         id="path4386"
         style="stroke:#ff0000;stroke-opacity:1" />
      <path
         d="m 17.1,134.9 c -0.268,0 -0.531,-0.077 -0.757,-0.222 -0.226,-0.145 -0.405,-0.352 -0.516,-0.596 -0.112,-0.245 -0.151,-0.516 -0.113,-0.781 0.038,-0.266 0.152,-0.515 0.328,-0.718 0.176,-0.203 0.406,-0.351 0.664,-0.426 0.257,-0.076 0.531,-0.076 0.788,0 0.258,0.075 0.488,0.223 0.664,0.426 0.176,0.203 0.29,0.452 0.328,0.718 0.038,0.265 -0.001,0.536 -0.113,0.781 -0.111,0.244 -0.29,0.451 -0.516,0.596 -0.226,0.145 -0.489,0.222 -0.757,0.222 z"
         stroke="#0000ff"
         stroke-width="0.2"
         id="path4388"
         style="stroke:#ff0000;stroke-opacity:1" />
      <path
         d="m 24.1,141.3 v -3.5 c 0,-0.1 -0.1,0 0,0 h 3.4 c 0.1,0 0,-0.1 0,0 v 7 c 0,0.1 0.1,0 0,0 h -3.4 c -0.1,0 0,0.1 0,0 z"
         stroke="#0000ff"
         stroke-width="0.2"
         id="path4390"
         style="stroke:#ff0000;stroke-opacity:1" />
      <path
         d="m 24.1,155.7 v -3.5 c 0,-0.1 -0.1,0 0,0 h 3.4 c 0.1,0 0,-0.1 0,0 v 7 c 0,0.1 0.1,0 0,0 h -3.4 c -0.1,0 0,0.1 0,0 z"
         stroke="#0000ff"
         stroke-width="0.2"
         id="path4392"
         style="stroke:#ff0000;stroke-opacity:1" />
      <path
         d="m 24.1,170.1 v -3.5 c 0,-0.1 -0.1,0 0,0 h 3.4 c 0.1,0 0,-0.1 0,0 v 7 c 0,0.1 0.1,0 0,0 h -3.4 c -0.1,0 0,0.1 0,0 z"
         stroke="#0000ff"
         stroke-width="0.2"
         id="path4394"
         style="stroke:#ff0000;stroke-opacity:1" />
      <path
         d="M 24.1,184.5 V 181 c 0,-0.1 -0.1,0 0,0 h 3.4 c 0.1,0 0,-0.1 0,0 v 7 c 0,0.1 0.1,0 0,0 h -3.4 c -0.1,0 0,0.1 0,0 z"
         stroke="#0000ff"
         stroke-width="0.2"
         id="path4396"
         style="stroke:#ff0000;stroke-opacity:1" />
      <path
         d="m 24.1,198.9 v -3.5 c 0,-0.1 -0.1,0 0,0 h 3.4 c 0.1,0 0,-0.1 0,0 v 7 c 0,0.1 0.1,0 0,0 h -3.4 c -0.1,0 0,0.1 0,0 z"
         stroke="#0000ff"
         stroke-width="0.2"
         id="path4398"
         style="stroke:#ff0000;stroke-opacity:1" />
    </g>
  </g>
  <g
     id="g5731">
    <path
       id="path935"
       style="fill:#0000ff;fill-opacity:1;stroke-width:0.0697155"
       d="m 99.908357,131.21934 c -0.27841,0.0164 -0.6377,0.52677 -2.145266,2.77257 -0.959353,1.42913 -2.105323,3.13175 -2.546543,3.78359 -0.441214,0.65185 -2.001496,2.97655 -3.467281,5.16606 l -1.795323,2.68175 c -0.987427,-1.48095 -1.693769,-3.25892 -2.243712,-4.63162 -0.388411,-0.9756 -0.516655,-1.15658 -0.819572,-1.15658 -0.293363,0 -0.458958,0.25779 -0.915431,1.42522 -0.529399,1.35396 -1.167715,2.73299 -1.665695,3.59842 -0.432319,0.75132 -0.517271,0.88064 -1.038932,1.58196 -0.381934,0.51346 -0.435298,0.65425 -0.35852,0.9458 0.07908,0.30027 0.334941,0.38005 1.180408,0.36805 l 0.757752,-0.0108 -0.375405,0.70792 c -0.493381,0.93022 -1.010078,1.74462 -1.613408,2.543 -0.672726,0.89021 -0.754185,1.05205 -0.662302,1.31562 0.118412,0.33968 0.283992,0.38377 1.345028,0.35811 0.524032,-0.0127 0.952544,-0.007 0.952196,0.0118 -0.0015,0.0926 -0.879419,1.60039 -1.185853,2.03673 -0.385515,0.54896 -0.439931,0.83193 -0.213641,1.11015 0.130493,0.16045 0.160341,0.16447 1.188576,0.15768 0.580133,-0.004 1.029708,0.0137 0.999036,0.0388 -0.03067,0.0252 -0.338041,0.27089 -0.683136,0.54615 -0.653068,0.52094 -0.891355,0.80438 -1.050233,1.24972 -0.147444,0.41328 -0.08998,6.39605 0.0586,7.24975 0.305357,1.75451 1.1976,3.47109 2.481591,4.7742 1.381549,1.4021 3.408075,2.34213 5.532618,2.56655 0.306751,0.0324 7.47531,0.0548 15.930101,0.0497 l 15.37238,-0.009 0.75285,-0.15986 c 1.83282,-0.38905 3.28618,-1.11888 4.46849,-2.24398 1.37484,-1.30831 2.34082,-3.09968 2.65588,-4.92533 0.0931,-0.53933 0.0551,-0.15576 0.0386,-4.27362 -0.0148,-3.70113 7e-5,-4.82103 0.064,-4.82103 0.0458,1e-5 0.16862,-0.0735 0.273,-0.16325 0.29992,-0.25797 0.2542,-0.48372 -0.26565,-1.30936 -0.48984,-0.77797 -1.03164,-1.74804 -1.03186,-1.84748 -6e-5,-0.0336 0.41913,-0.0516 0.93151,-0.04 0.92634,0.0209 0.93283,0.0199 1.15752,-0.16912 0.32261,-0.27145 0.2644,-0.51608 -0.28444,-1.19606 -0.5758,-0.71339 -1.24374,-1.74766 -1.74508,-2.70218 -0.2244,-0.42724 -0.40795,-0.79286 -0.40795,-0.81248 0,-0.0197 0.36047,-0.0329 0.80106,-0.0294 0.76582,0.006 0.8084,-0.002 0.9688,-0.16721 0.27892,-0.28819 0.28124,-0.42951 0.0133,-0.80815 -1.36382,-1.92759 -1.93276,-2.98059 -2.86762,-5.30727 -0.28896,-0.71916 -0.57171,-1.37834 -0.62839,-1.46485 -0.14239,-0.21731 -0.5106,-0.21368 -0.71799,0.007 -0.0849,0.0904 -0.40716,0.78843 -0.7161,1.55118 -0.95826,2.36593 -1.6951,3.7932 -2.41813,4.68378 l -0.24291,0.29915 -0.21582,-0.26089 c -0.21283,-0.25728 -0.67922,-0.9113 -1.13548,-1.59231 l -0.23352,-0.34858 0.7086,-0.0396 c 0.6627,-0.037 0.7194,-0.0519 0.87295,-0.23039 0.26158,-0.30411 0.2205,-0.57787 -0.13127,-0.87485 -0.46304,-0.39093 -1.796,-1.73358 -1.796,-1.80908 0,-0.0374 0.0963,-0.02 0.21405,0.0388 0.33635,0.16779 1.12158,0.1013 1.35115,-0.11438 0.26784,-0.25162 0.2271,-0.46219 -0.19716,-1.01905 -0.82676,-1.08514 -1.60046,-2.50992 -2.38206,-4.38706 -0.49075,-1.17863 -0.5451,-1.26895 -0.79792,-1.32447 -0.05,-0.011 -0.095,-0.0187 -0.13684,-0.0204 -0.29275,-0.0117 -0.42989,0.27496 -1.04765,1.8329 -0.6228,1.57067 -1.29077,2.80294 -2.10563,3.88475 -0.2253,0.29912 -0.4055,0.6109 -0.4055,0.70153 0,0.0897 0.088,0.24745 0.19554,0.35048 0.16447,0.15757 0.25584,0.18691 0.57516,0.18436 0.20878,-0.002 0.52079,-0.0304 0.69333,-0.0637 0.17255,-0.0334 0.32512,-0.0494 0.33905,-0.0356 0.0139,0.0138 -0.0587,0.16015 -0.16122,0.32517 -0.10256,0.165 -0.42066,0.69211 -0.70696,1.17141 -0.20448,0.34233 -0.48611,0.76696 -0.74385,1.15781 -0.40014,-0.74454 -0.77686,-1.40766 -0.83783,-1.47453 -0.29168,-0.31993 -0.5928,-0.0872 -1.06929,0.82638 -0.1579,0.30276 -0.43172,0.81717 -0.60838,1.1431 -0.17667,0.32592 -0.42082,0.78867 -0.54262,1.02831 -0.12179,0.23965 -0.24174,0.43573 -0.26647,0.43573 -0.0556,0 -3.48942,-5.08614 -4.78508,-7.08761 -0.64512,-0.99655 -0.77713,-1.12178 -1.09803,-1.04124 -0.16435,0.0413 -0.29615,0.22589 -0.9127,1.27926 -0.18516,0.31633 -0.3541,0.57424 -0.37554,0.5731 -0.0214,-0.001 -0.29539,-0.38543 -0.60879,-0.85401 -0.31341,-0.46857 -0.98756,-1.46374 -1.49808,-2.21144 -0.51052,-0.7477 -1.52715,-2.25357 -2.2591,-3.34637 -0.87328,-1.30383 -1.39411,-2.01786 -1.51509,-2.07691 -0.0687,-0.0335 -0.128703,-0.056 -0.192943,-0.0523 z m 1.211593,3.54802 c 0.0168,-0.0168 0.0928,0.0728 0.16897,0.19908 0.0761,0.12625 0.37031,0.55075 0.6536,0.94334 0.28328,0.39259 0.71826,1.00435 0.96662,1.35946 0.24837,0.35512 1.4279,2.0141 2.62129,3.68664 1.70495,2.3895 2.17827,3.09895 2.20886,3.31151 0.0214,0.14878 0.12217,0.79734 0.22399,1.4413 0.10182,0.64395 0.17533,1.21705 0.16326,1.27341 -0.0121,0.0563 -0.28872,-0.27675 -0.61465,-0.74019 -0.32592,-0.46345 -0.82935,-1.17758 -1.11886,-1.587 -0.2895,-0.40942 -1.35389,-1.92087 -2.36517,-3.35876 -1.01127,-1.43789 -1.95612,-2.78071 -2.09978,-2.98403 -0.15077,-0.21338 -0.28058,-0.49337 -0.30691,-0.6623 -0.0251,-0.16095 -0.15499,-0.86849 -0.28867,-1.57228 -0.13369,-0.7038 -0.22934,-1.29339 -0.21255,-1.31018 z m 22.90591,12.99797 c 0.69008,0 1.25477,0.009 1.25475,0.0197 -7e-5,0.0681 -0.41482,0.82192 -0.66992,1.21772 -0.16682,0.25881 -0.31181,0.47058 -0.32217,0.47045 -0.0705,-0.001 -1.51803,-1.5937 -1.51755,-1.67006 1.4e-4,-0.0208 0.56482,-0.0379 1.25489,-0.0379 z m -5.34961,1.94864 0.002,0.0382 0.49509,4.2e-4 c 1.56193,0.002 2.79607,0.63942 3.69959,1.91174 0.16528,0.23276 0.93146,1.50554 1.70259,2.82841 0.77113,1.32286 1.55326,2.70233 1.60122,2.72878 0.0479,0.0265 0.72412,0.16208 1.00501,0.35031 0.87076,0.58355 1.30211,1.1799 1.57564,2.20529 0.0632,0.23682 0.0787,1.36077 0.0787,3.19251 0,1.18641 0.0189,-0.10069 -0.009,0.46499 -0.0168,0.88153 -0.74571,2.04509 -1.94683,2.08386 -0.0212,10e-4 -0.0485,0.006 -0.0836,0.0151 -0.0863,0.0231 -0.72156,0.0427 -1.41175,0.0434 l -1.25488,0.001 -0.0104,0.6446 c -0.0183,1.15406 -0.48544,2.23542 -1.36599,3.16241 -0.74339,0.52837 -1.53797,1.03959 -3.31655,1.21976 l -0.0136,-0.0127 c -2.22643,-0.19075 -2.81156,-0.67209 -3.50581,-1.13411 -0.56843,-0.5601 -0.90418,-1.05787 -1.16011,-1.72003 -0.82406,-2.13207 -0.007,-4.55745 1.91555,-5.68757 l 0.48528,-0.28527 0.0179,-4.16716 c 0.0117,-2.70813 0.0564,-4.92925 0.009,-5.10326 -0.0928,-0.34446 -0.36144,-0.66128 -0.71308,-0.84067 -0.2537,-0.12943 -0.38214,-0.13997 -1.4379,-0.11888 -1.03435,0.0207 -5.92472,0.064 -6.34906,0.0859 -0.65288,0.003 -1.04723,0.25333 -1.00475,0.84749 l -0.0527,6.61822 -0.0349,6.21616 c -0.0556,0.2024 -0.17231,0.29511 -0.34222,0.29225 l -5.04702,-0.0171 v 0.54411 c 0,0.3233 -0.0601,0.7828 -0.148,1.13248 -0.23156,0.92052 -0.56678,1.51064 -1.27464,2.24412 -0.840683,0.42625 -1.291463,0.96717 -3.259633,1.06194 l -0.01811,0.042 c -1.227759,-0.0596 -2.432807,-0.19399 -3.42329,-1.03108 -1.110066,-0.93817 -1.614179,-2.26863 -1.555402,-3.49615 l 0.02342,-0.48747 -1.152221,-0.0228 c -1.147524,-0.0227 -1.15404,-0.0238 -1.629476,-0.25802 -0.810356,-0.39925 -1.271529,-0.9972 -1.429994,-1.85442 -0.04177,-0.22598 -0.07584,0.19309 -0.07584,-0.43255 v -0.20931 c 0.854418,-0.0395 0.730948,-0.22529 0.804845,-0.3797 0.0082,-0.5486 -0.01443,-2.09524 0.004,-2.53378 -0.06958,-0.21002 -0.07514,-0.42148 -0.78022,-0.46363 l 0.0072,-3.16369 c 0.01155,-3.29739 0.01282,-3.41649 0.421291,-4.26575 0.546649,-1.13653 1.891966,-2.12244 2.656698,-2.27516 l 13.862042,0.0225 z m 1.2907,2.47845 c -0.46265,1.4e-4 -1.1074,0.17004 -1.29211,0.48789 -0.13191,0.22697 -0.0191,0.45955 -0.0379,2.27543 -0.0198,1.9162 0.3503,2.42233 0.50697,2.73028 0.10376,0.20399 0.24493,0.35634 0.40358,0.4356 0.21085,0.10533 0.89145,0.0602 2.2639,0.0603 1.76357,1.5e-4 1.98134,-0.0408 2.17181,-0.40917 0.15418,-0.29813 0.13515,-0.94226 -0.0911,-1.34113 -0.65138,-1.14846 -2.20585,-3.7209 -2.33304,-3.8608 -0.21465,-0.23614 -1.16696,-0.37853 -1.59217,-0.3784 z m -17.76178,1.47875 -0.002,0.006 -1.94211,0.009 c -0.478573,-0.0161 -0.652593,0.006 -0.851299,0.10935 -0.446458,0.23169 -0.555612,0.4221 -0.558951,1.22302 l -0.0098,2.32187 c -5.92e-4,0.001 -0.0018,0.003 -0.003,0.003 l 2.9e-4,0.58659 c 2.9e-4,0.68026 0.134642,0.98382 0.506668,1.14555 0.179669,0.0781 0.750802,0.0984 2.824862,0.10062 2.4693,0.003 2.61341,-0.004 2.87428,-0.13738 0.50576,-0.25802 0.52151,-0.33497 0.52151,-2.54396 v -1.95205 c -0.15828,-0.86818 -1.26504,-0.86705 -2.1134,-0.87145 z m 22.38166,5.22754 c -0.18178,0.30654 0.19321,1.36846 0.50015,1.65804 0.50244,0.47401 1.76689,0.36742 2.2721,0.21139 0.27509,-0.085 0.1198,-1.41502 -0.66432,-1.86765 -0.33226,-0.1918 -1.86056,-0.41894 -2.10793,-0.002 z m -34.465925,1.11177 -0.214459,0.18055 c -0.428837,0.36104 -0.205005,1.03186 0.382076,1.14487 0.383681,0.0739 15.657548,0.15087 16.038748,0.0773 0.62159,-0.11992 0.85823,-0.77455 0.41489,-1.14759 l -0.21446,-0.18055 -13.709,-0.0482 z m 29.063925,3.27292 c -1.50911,0.0733 -2.76332,1.32941 -2.6763,2.94155 0.0588,1.08925 0.86896,2.10731 1.9598,2.46253 0.18721,0.061 0.53603,0.0888 0.96159,0.0769 0.59009,-0.0165 0.72078,-0.0446 1.12281,-0.24251 0.81733,-0.40237 1.37599,-1.17739 1.54028,-2.13655 0.20623,-1.20396 -0.68063,-2.59733 -1.89118,-2.97123 -0.23903,-0.0738 -0.47773,-0.11594 -0.71214,-0.12936 -0.10254,-0.006 -0.20426,-0.006 -0.30486,-0.001 z m -21.622716,0.007 c -1.256313,-0.0663 -2.235157,0.51659 -2.77271,1.65113 -0.197743,0.41735 -0.218627,0.52543 -0.218,1.12404 6.51e-4,0.57075 0.02642,0.71745 0.186818,1.06099 0.329166,0.705 1.023279,1.32419 1.749574,1.56071 0.187747,0.0611 0.532871,0.0886 0.956138,0.0761 0.543686,-0.016 0.734493,-0.0528 1.065352,-0.20547 0.561058,-0.25882 1.169751,-0.85842 1.418551,-1.39705 0.178283,-0.38593 0.199983,-0.50884 0.199353,-1.13015 -5.9e-4,-0.62787 -0.0209,-0.73874 -0.204383,-1.11546 -0.26647,-0.547 -0.892109,-1.17148 -1.412568,-1.40998 -0.298345,-0.13672 -0.551599,-0.1929 -0.968125,-0.21487 z m 20.489896,-3.14302 c -0.42356,0.36721 -0.205,1.03187 0.38209,1.14487 0.38367,0.0738 4.41598,0.0358 4.79718,-0.0377 0.62159,-0.11992 0.85823,-0.77454 0.41489,-1.14759 l -0.33097,-0.11602 c -1.864,-0.0341 -3.74965,-0.0323 -4.81593,0.005 -0.21786,0.008 -0.36973,0.0837 -0.44726,0.15088 z"
       sodipodi:nodetypes="scssccssssscccssscssssssssscccsssssssssssssssssssccscccsssssssssssssssssscsscssssssscssssccccsscssssccsscscsscccsssssscsscccccccsccssssccccccsscccscccssscccccsccccsssscsssccccsccccsssscsccsssscsssccccsssssssscsscsssssssssscsssccss" />
    <g
       id="p-6"
       style="fill:none;stroke-linecap:round;stroke-linejoin:round;stroke:#ff0000;stroke-opacity:1"
       transform="translate(-2.9319582,67.339708)">
      <path
         d="m 19.833,116.167 c 0,0.268 -0.077,0.531 -0.222,0.757 -0.145,0.225 -0.352,0.405 -0.596,0.516 -0.244,0.112 -0.515,0.151 -0.781,0.112 -0.266,-0.038 -0.515,-0.152 -0.717,-0.327 -0.203,-0.176 -0.351,-0.406 -0.427,-0.664 -0.076,-0.257 -0.076,-0.531 0,-0.789 0.076,-0.257 0.224,-0.488 0.427,-0.663 0.202,-0.176 0.451,-0.29 0.717,-0.328 0.266,-0.038 0.537,10e-4 0.781,0.112 0.244,0.112 0.451,0.291 0.596,0.517 0.145,0.226 0.222,0.488 0.222,0.757 z"
         stroke="#0000ff"
         stroke-width="0.2"
         id="path4401"
         style="stroke:#ff0000;stroke-opacity:1" />
      <path
         d="m 10.1,124.6 h 200 c 0.055,0 0.1,-0.045 0.1,-0.1 v -80 c 0,-0.055 -0.045,-0.1 -0.1,-0.1 h -200 c -0.055,0 -0.1,0.045 -0.1,0.1 v 80 c 0,0.055 0.045,0.1 0.1,0.1"
         stroke="#000000"
         stroke-width="0.2"
         id="path4405"
         style="stroke:#ff0000;stroke-opacity:1" />
      <path
         d="m 201.767,114.767 c 0.268,0 0.531,0.077 0.757,0.222 0.225,0.145 0.405,0.352 0.516,0.596 0.112,0.244 0.151,0.515 0.112,0.781 -0.038,0.266 -0.152,0.515 -0.327,0.717 -0.176,0.203 -0.406,0.351 -0.664,0.427 -0.257,0.076 -0.531,0.076 -0.789,0 -0.257,-0.076 -0.488,-0.224 -0.663,-0.427 -0.176,-0.202 -0.29,-0.451 -0.328,-0.717 -0.038,-0.266 0.001,-0.537 0.112,-0.781 0.112,-0.244 0.291,-0.451 0.517,-0.596 0.226,-0.145 0.488,-0.222 0.757,-0.222 z"
         stroke="#0000ff"
         stroke-width="0.2"
         id="path4407"
         style="stroke:#ff0000;stroke-opacity:1" />
      <path
         d="m 200.367,52.833 c 0,-0.268 0.077,-0.531 0.222,-0.757 0.145,-0.225 0.352,-0.405 0.596,-0.516 0.244,-0.112 0.515,-0.151 0.781,-0.112 0.266,0.038 0.515,0.152 0.717,0.327 0.203,0.176 0.351,0.406 0.427,0.664 0.076,0.257 0.076,0.531 0,0.789 -0.076,0.257 -0.224,0.488 -0.427,0.663 -0.202,0.176 -0.451,0.29 -0.717,0.328 -0.266,0.038 -0.537,-10e-4 -0.781,-0.112 -0.244,-0.112 -0.451,-0.291 -0.596,-0.517 -0.145,-0.226 -0.222,-0.488 -0.222,-0.757 z"
         stroke="#0000ff"
         stroke-width="0.2"
         id="path4409"
         style="stroke:#ff0000;stroke-opacity:1" />
      <path
         d="m 18.433,54.233 c -0.268,0 -0.531,-0.077 -0.757,-0.222 -0.225,-0.145 -0.405,-0.352 -0.516,-0.596 -0.112,-0.244 -0.151,-0.515 -0.112,-0.781 0.038,-0.266 0.152,-0.515 0.327,-0.717 0.176,-0.203 0.406,-0.351 0.664,-0.427 0.257,-0.076 0.531,-0.076 0.789,0 0.257,0.076 0.488,0.224 0.663,0.427 0.176,0.202 0.29,0.451 0.328,0.717 0.038,0.266 -10e-4,0.537 -0.112,0.781 -0.112,0.244 -0.291,0.451 -0.517,0.596 -0.226,0.145 -0.488,0.222 -0.757,0.222 z"
         stroke="#0000ff"
         stroke-width="0.2"
         id="path4411"
         style="stroke:#ff0000;stroke-opacity:1" />
    </g>
  </g>
  <g
     id="p-7"
     style="fill:none;stroke-linecap:round;stroke-linejoin:round;stroke:#ff0000;stroke-opacity:1"
     transform="rotate(-90,265.10178,26.037932)">
    <path
       d="m 19.357,39 h 8.8 c 0.1,0 0,-0.1 0,0 v 3.5 c 0,0.055 0.045,0.1 0.1,0.1 h 7.2 c 0.055,0 0.1,-0.045 0.1,-0.1 V 39 c 0,-0.1 -0.1,0 0,0 h 8.8 c 0.055,0 0.1,-0.045 0.1,-0.1 v -8.8 c 0,-0.1 -0.1,0 0,0 h 3.5 c 0.055,0 0.1,-0.045 0.1,-0.1 v -7.2 c 0,-0.055 -0.045,-0.1 -0.1,-0.1 h -3.5 c -0.1,0 0,0.1 0,0 v -8.8 c 0,-0.055 -0.045,-0.1 -0.1,-0.1 -0.027,0 -0.052,0.011 -0.071,0.029 l -25,25 c -0.019,0.019 -0.029,0.044 -0.029,0.071 0,0.055 0.045,0.1 0.1,0.1 z"
       stroke="#000000"
       stroke-width="0.2"
       id="path4414"
       style="stroke:#ff0000;stroke-opacity:1" />
    <path
       d="m 36.024,29.667 c 0.172,0 0.341,0.049 0.486,0.143 0.145,0.093 0.261,0.226 0.332,0.383 0.072,0.157 0.097,0.331 0.072,0.502 -0.024,0.171 -0.097,0.331 -0.21,0.461 -0.113,0.13 -0.261,0.226 -0.427,0.274 -0.165,0.049 -0.341,0.049 -0.507,0 -0.166,-0.048 -0.314,-0.144 -0.427,-0.274 -0.113,-0.13 -0.186,-0.29 -0.21,-0.461 -0.025,-0.171 0,-0.345 0.072,-0.502 0.072,-0.157 0.187,-0.29 0.332,-0.383 0.145,-0.094 0.314,-0.143 0.487,-0.143 z"
       stroke="#0000ff"
       stroke-width="0.2"
       id="path4416"
       style="stroke:#ff0000;stroke-opacity:1" />
    <path
       d="m 38.7,13.6 h -8.8 c -0.1,0 0,0.1 0,0 V 10.1 C 29.9,10.045 29.855,10 29.8,10 h -7.2 c -0.055,0 -0.1,0.045 -0.1,0.1 v 3.5 c 0,0.1 0.1,0 0,0 h -8.8 c -0.055,0 -0.1,0.045 -0.1,0.1 v 8.8 c 0,0.1 0.1,0 0,0 h -3.5 c -0.055,0 -0.1,0.045 -0.1,0.1 v 7.2 c 0,0.055 0.045,0.1 0.1,0.1 h 3.5 c 0.1,0 0,-0.1 0,0 v 8.8 c 0,0.055 0.045,0.1 0.1,0.1 0.027,0 0.052,-0.011 0.071,-0.029 l 25,-25 C 38.789,13.752 38.8,13.727 38.8,13.7 c 0,-0.055 -0.045,-0.1 -0.1,-0.1 z"
       stroke="#000000"
       stroke-width="0.2"
       id="path4418"
       style="stroke:#ff0000;stroke-opacity:1" />
    <path
       d="m 22.033,22.933 c -0.172,0 -0.341,-0.049 -0.486,-0.143 -0.145,-0.093 -0.261,-0.226 -0.332,-0.383 -0.072,-0.157 -0.097,-0.331 -0.073,-0.502 0.025,-0.171 0.098,-0.331 0.211,-0.461 0.113,-0.13 0.261,-0.226 0.427,-0.274 0.165,-0.049 0.341,-0.049 0.507,0 0.165,0.048 0.314,0.144 0.427,0.274 0.112,0.13 0.186,0.29 0.21,0.461 0.025,0.171 0,0.345 -0.072,0.502 -0.072,0.157 -0.187,0.29 -0.332,0.383 -0.145,0.094 -0.314,0.143 -0.487,0.143 z"
       stroke="#0000ff"
       stroke-width="0.2"
       id="path4420"
       style="stroke:#ff0000;stroke-opacity:1" />
    <path
       d="m 59.214,39 h 8.8 c 0.1,0 0,-0.1 0,0 v 3.5 c 0,0.055 0.044,0.1 0.1,0.1 h 7.2 c 0.055,0 0.1,-0.045 0.1,-0.1 V 39 c 0,-0.1 -0.1,0 0,0 h 8.8 c 0.055,0 0.1,-0.045 0.1,-0.1 v -8.8 c 0,-0.1 -0.1,0 0,0 h 3.5 c 0.055,0 0.1,-0.045 0.1,-0.1 v -7.2 c 0,-0.055 -0.045,-0.1 -0.1,-0.1 h -3.5 c -0.1,0 0,0.1 0,0 v -8.8 c 0,-0.055 -0.045,-0.1 -0.1,-0.1 -0.027,0 -0.052,0.011 -0.071,0.029 l -25,25 c -0.019,0.019 -0.029,0.044 -0.029,0.071 0,0.055 0.044,0.1 0.1,0.1 z"
       stroke="#000000"
       stroke-width="0.2"
       id="path4422"
       style="stroke:#ff0000;stroke-opacity:1" />
    <path
       d="m 75.88,29.667 c 0.173,0 0.342,0.049 0.487,0.143 0.145,0.093 0.26,0.226 0.332,0.383 0.072,0.157 0.097,0.331 0.072,0.502 -0.024,0.171 -0.097,0.331 -0.21,0.461 -0.113,0.13 -0.262,0.226 -0.427,0.274 -0.166,0.049 -0.342,0.049 -0.507,0 -0.166,-0.048 -0.314,-0.144 -0.427,-0.274 -0.113,-0.13 -0.186,-0.29 -0.21,-0.461 -0.025,-0.171 0,-0.345 0.072,-0.502 0.071,-0.157 0.187,-0.29 0.332,-0.383 0.145,-0.094 0.314,-0.143 0.486,-0.143 z"
       stroke="#0000ff"
       stroke-width="0.2"
       id="path4424"
       style="stroke:#ff0000;stroke-opacity:1" />
    <path
       d="m 78.557,13.6 h -8.8 c -0.1,0 0,0.1 0,0 v -3.5 c 0,-0.055 -0.045,-0.1 -0.1,-0.1 h -7.2 c -0.055,0 -0.1,0.045 -0.1,0.1 v 3.5 c 0,0.1 0.1,0 0,0 h -8.8 c -0.055,0 -0.1,0.045 -0.1,0.1 v 8.8 c 0,0.1 0.1,0 0,0 h -3.5 c -0.055,0 -0.1,0.045 -0.1,0.1 v 7.2 c 0,0.055 0.045,0.1 0.1,0.1 h 3.5 c 0.1,0 0,-0.1 0,0 v 8.8 c 0,0.055 0.045,0.1 0.1,0.1 0.026,0 0.052,-0.011 0.071,-0.029 l 25,-25 c 0.018,-0.019 0.029,-0.044 0.029,-0.071 0,-0.055 -0.045,-0.1 -0.1,-0.1 z"
       stroke="#000000"
       stroke-width="0.2"
       id="path4426"
       style="stroke:#ff0000;stroke-opacity:1" />
    <path
       d="m 61.89,22.933 c -0.172,0 -0.341,-0.049 -0.486,-0.143 C 61.258,22.697 61.143,22.564 61.072,22.407 61,22.25 60.975,22.076 60.999,21.905 c 0.025,-0.171 0.098,-0.331 0.211,-0.461 0.113,-0.13 0.261,-0.226 0.427,-0.274 0.165,-0.049 0.341,-0.049 0.507,0 0.165,0.048 0.313,0.144 0.426,0.274 0.113,0.13 0.186,0.29 0.211,0.461 0.025,0.171 0,0.345 -0.072,0.502 -0.072,0.157 -0.187,0.29 -0.332,0.383 -0.145,0.094 -0.314,0.143 -0.487,0.143 z"
       stroke="#0000ff"
       stroke-width="0.2"
       id="path4428"
       style="stroke:#ff0000;stroke-opacity:1" />
  </g>
</svg>
