<?xml version="1.0" encoding="UTF-8" standalone="no"?>
<svg
   height="441.40mm"
   viewBox="0.0 0.0 316.60 441.40"
   width="316.60mm"
   version="1.1"
   id="svg45"
   sodipodi:docname="interface.svg"
   inkscape:version="1.4-rc1 (61ec3f2, 2024-09-26)"
   xmlns:inkscape="http://www.inkscape.org/namespaces/inkscape"
   xmlns:sodipodi="http://sodipodi.sourceforge.net/DTD/sodipodi-0.dtd"
   xmlns="http://www.w3.org/2000/svg"
   xmlns:svg="http://www.w3.org/2000/svg"
   xmlns:rdf="http://www.w3.org/1999/02/22-rdf-syntax-ns#"
   xmlns:cc="http://creativecommons.org/ns#"
   xmlns:dc="http://purl.org/dc/elements/1.1/">
  <defs
     id="defs45" />
  <sodipodi:namedview
     id="namedview45"
     pagecolor="#ffffff"
     bordercolor="#000000"
     borderopacity="0.25"
     inkscape:showpageshadow="2"
     inkscape:pageopacity="0.0"
     inkscape:pagecheckerboard="0"
     inkscape:deskcolor="#d1d1d1"
     inkscape:document-units="mm"
     inkscape:zoom="0.68409859"
     inkscape:cx="466.30706"
     inkscape:cy="926.03612"
     inkscape:window-width="1920"
     inkscape:window-height="1009"
     inkscape:window-x="-8"
     inkscape:window-y="-8"
     inkscape:window-maximized="1"
     inkscape:current-layer="svg45" />
  <!--
ElectronicsBox - Closed box with screw on top and mounting holes

Created with Boxes.py (https://boxes.hackerspace-bamberg.de/)
Creation date: 2024-10-13 13:16:33
Command line (remove spaces between dashes): boxes ElectronicsBox - -x=160.0 - -y=120.0 - -h=50.0 - -outside=0 - -thickness=3.6 - -labels=0
Url: https://boxes.hackerspace-bamberg.de/ElectronicsBox?FingerJoint_style=rectangular&FingerJoint_surroundingspaces=2.0&FingerJoint_bottom_lip=0.0&FingerJoint_edge_width=1.0&FingerJoint_extra_length=0.0&FingerJoint_finger=2.0&FingerJoint_play=0.0&FingerJoint_space=2.0&FingerJoint_width=1.0&x=160.0&y=120.0&h=50.0&outside=0&triangle=25.0&d1=2.0&d2=3.0&d3=3.0&outsidemounts=0&outsidemounts=1&holedist=7.0&thickness=3.6&format=svg&tabs=0.0&qr_code=0&debug=0&labels=0&reference=100.0&inner_corners=loop&burn=0.1&language=en&render=1
Url short: https://boxes.hackerspace-bamberg.de/ElectronicsBox?x=160.0&y=120.0&h=50.0&outside=0&thickness=3.6&labels=0
SettingsUrl: https://boxes.hackerspace-bamberg.de/ElectronicsBox?FingerJoint_style=rectangular&FingerJoint_surroundingspaces=2.0&FingerJoint_bottom_lip=0.0&FingerJoint_edge_width=1.0&FingerJoint_extra_length=0.0&FingerJoint_finger=2.0&FingerJoint_play=0.0&FingerJoint_space=2.0&FingerJoint_width=1.0&x=160.0&y=120.0&h=50.0&outside=0&triangle=25.0&d1=2.0&d2=3.0&d3=3.0&outsidemounts=0&outsidemounts=1&holedist=7.0&thickness=3.6&format=svg&tabs=0.0&qr_code=0&debug=0&labels=0&reference=100.0&inner_corners=loop&burn=0.1&language=en
SettingsUrl short: https://boxes.hackerspace-bamberg.de/ElectronicsBox?x=160.0&y=120.0&h=50.0&outside=0&thickness=3.6&labels=0
-->
  <title
     id="title1">ElectronicsBox</title>
  <metadata
     id="metadata1">
    <rdf:RDF>
      <cc:Work>
        <dc:title>Box - ElectronicsBox</dc:title>
        <dc:date>2024-10-13 13:16:33</dc:date>
        <dc:source>https://boxes.hackerspace-bamberg.de/ElectronicsBox?FingerJoint_style=rectangular&amp;FingerJoint_surroundingspaces=2.0&amp;FingerJoint_bottom_lip=0.0&amp;FingerJoint_edge_width=1.0&amp;FingerJoint_extra_length=0.0&amp;FingerJoint_finger=2.0&amp;FingerJoint_play=0.0&amp;FingerJoint_space=2.0&amp;FingerJoint_width=1.0&amp;x=160.0&amp;y=120.0&amp;h=50.0&amp;outside=0&amp;triangle=25.0&amp;d1=2.0&amp;d2=3.0&amp;d3=3.0&amp;outsidemounts=0&amp;outsidemounts=1&amp;holedist=7.0&amp;thickness=3.6&amp;format=svg&amp;tabs=0.0&amp;qr_code=0&amp;debug=0&amp;labels=0&amp;reference=100.0&amp;inner_corners=loop&amp;burn=0.1&amp;language=en&amp;render=1</dc:source>
        <dc:source>https://boxes.hackerspace-bamberg.de/ElectronicsBox?x=160.0&amp;y=120.0&amp;h=50.0&amp;outside=0&amp;thickness=3.6&amp;labels=0</dc:source>
        <dc:description>Closed box with screw on top and mounting holes

Created with Boxes.py (https://boxes.hackerspace-bamberg.de/)
Command line: boxes ElectronicsBox --FingerJoint_style=rectangular --FingerJoint_surroundingspaces=2.0 --FingerJoint_bottom_lip=0.0 --FingerJoint_edge_width=1.0 --FingerJoint_extra_length=0.0 --FingerJoint_finger=2.0 --FingerJoint_play=0.0 --FingerJoint_space=2.0 --FingerJoint_width=1.0 --x=160.0 --y=120.0 --h=50.0 --outside=0 --triangle=25.0 --d1=2.0 --d2=3.0 --d3=3.0 --outsidemounts=0 --outsidemounts=1 --holedist=7.0 --thickness=3.6 --format=svg --tabs=0.0 --qr_code=0 --debug=0 --labels=0 --reference=100.0 --inner_corners=loop --burn=0.1
Command line short: boxes ElectronicsBox --x=160.0 --y=120.0 --h=50.0 --outside=0 --thickness=3.6 --labels=0
Url: https://boxes.hackerspace-bamberg.de/ElectronicsBox?FingerJoint_style=rectangular&amp;FingerJoint_surroundingspaces=2.0&amp;FingerJoint_bottom_lip=0.0&amp;FingerJoint_edge_width=1.0&amp;FingerJoint_extra_length=0.0&amp;FingerJoint_finger=2.0&amp;FingerJoint_play=0.0&amp;FingerJoint_space=2.0&amp;FingerJoint_width=1.0&amp;x=160.0&amp;y=120.0&amp;h=50.0&amp;outside=0&amp;triangle=25.0&amp;d1=2.0&amp;d2=3.0&amp;d3=3.0&amp;outsidemounts=0&amp;outsidemounts=1&amp;holedist=7.0&amp;thickness=3.6&amp;format=svg&amp;tabs=0.0&amp;qr_code=0&amp;debug=0&amp;labels=0&amp;reference=100.0&amp;inner_corners=loop&amp;burn=0.1&amp;language=en&amp;render=1
Url short: https://boxes.hackerspace-bamberg.de/ElectronicsBox?x=160.0&amp;y=120.0&amp;h=50.0&amp;outside=0&amp;thickness=3.6&amp;labels=0
SettingsUrl: https://boxes.hackerspace-bamberg.de/ElectronicsBox?FingerJoint_style=rectangular&amp;FingerJoint_surroundingspaces=2.0&amp;FingerJoint_bottom_lip=0.0&amp;FingerJoint_edge_width=1.0&amp;FingerJoint_extra_length=0.0&amp;FingerJoint_finger=2.0&amp;FingerJoint_play=0.0&amp;FingerJoint_space=2.0&amp;FingerJoint_width=1.0&amp;x=160.0&amp;y=120.0&amp;h=50.0&amp;outside=0&amp;triangle=25.0&amp;d1=2.0&amp;d2=3.0&amp;d3=3.0&amp;outsidemounts=0&amp;outsidemounts=1&amp;holedist=7.0&amp;thickness=3.6&amp;format=svg&amp;tabs=0.0&amp;qr_code=0&amp;debug=0&amp;labels=0&amp;reference=100.0&amp;inner_corners=loop&amp;burn=0.1&amp;language=en
SettingsUrl short: https://boxes.hackerspace-bamberg.de/ElectronicsBox?x=160.0&amp;y=120.0&amp;h=50.0&amp;outside=0&amp;thickness=3.6&amp;labels=0
</dc:description>
      </cc:Work>
    </rdf:RDF>
  </metadata>
  <g
     id="p-1"
     style="fill:none;stroke-linecap:round;stroke-linejoin:round;stroke:#ff0000;stroke-opacity:1">
    <path
       d="M 26.200 365.600 H 22.700 C 22.600 365.600 22.700 365.700 22.700 365.600 V 362.200 C 22.700 362.100 22.600 362.200 22.700 362.200 H 29.700 C 29.800 362.200 29.700 362.100 29.700 362.200 V 365.600 C 29.700 365.700 29.800 365.600 29.700 365.600 H 26.200 Z"
       stroke="rgb(0,0,255)"
       stroke-width="0.20"
       id="path2"
       style="stroke:#ff0000;stroke-opacity:1" />
    <path
       d="M 161.200 362.200 H 164.700 C 164.800 362.200 164.700 362.100 164.700 362.200 V 365.600 C 164.700 365.700 164.800 365.600 164.700 365.600 H 157.700 C 157.600 365.600 157.700 365.700 157.700 365.600 V 362.200 C 157.700 362.100 157.600 362.200 157.700 362.200 H 161.200 Z"
       stroke="rgb(0,0,255)"
       stroke-width="0.20"
       id="path3"
       style="stroke:#ff0000;stroke-opacity:1" />
    <path
       d="M 13.700 415.800 H 25.200 C 25.300 415.800 25.200 415.700 25.200 415.800 V 419.300 C 25.200 419.355 25.245 419.400 25.300 419.400 H 32.500 C 32.555 419.400 32.600 419.355 32.600 419.300 V 415.800 C 32.600 415.700 32.500 415.800 32.600 415.800 H 39.600 C 39.700 415.800 39.600 415.700 39.600 415.800 V 419.300 C 39.600 419.355 39.645 419.400 39.700 419.400 H 46.900 C 46.955 419.400 47.000 419.355 47.000 419.300 V 415.800 C 47.000 415.700 46.900 415.800 47.000 415.800 H 54.000 C 54.100 415.800 54.000 415.700 54.000 415.800 V 419.300 C 54.000 419.355 54.045 419.400 54.100 419.400 H 61.300 C 61.355 419.400 61.400 419.355 61.400 419.300 V 415.800 C 61.400 415.700 61.300 415.800 61.400 415.800 H 68.400 C 68.500 415.800 68.400 415.700 68.400 415.800 V 419.300 C 68.400 419.355 68.445 419.400 68.500 419.400 H 75.700 C 75.755 419.400 75.800 419.355 75.800 419.300 V 415.800 C 75.800 415.700 75.700 415.800 75.800 415.800 H 82.800 C 82.900 415.800 82.800 415.700 82.800 415.800 V 419.300 C 82.800 419.355 82.845 419.400 82.900 419.400 H 90.100 C 90.155 419.400 90.200 419.355 90.200 419.300 V 415.800 C 90.200 415.700 90.100 415.800 90.200 415.800 H 97.200 C 97.300 415.800 97.200 415.700 97.200 415.800 V 419.300 C 97.200 419.355 97.245 419.400 97.300 419.400 H 104.500 C 104.555 419.400 104.600 419.355 104.600 419.300 V 415.800 C 104.600 415.700 104.500 415.800 104.600 415.800 H 111.600 C 111.700 415.800 111.600 415.700 111.600 415.800 V 419.300 C 111.600 419.355 111.645 419.400 111.700 419.400 H 118.900 C 118.955 419.400 119.000 419.355 119.000 419.300 V 415.800 C 119.000 415.700 118.900 415.800 119.000 415.800 H 126.000 C 126.100 415.800 126.000 415.700 126.000 415.800 V 419.300 C 126.000 419.355 126.045 419.400 126.100 419.400 H 133.300 C 133.355 419.400 133.400 419.355 133.400 419.300 V 415.800 C 133.400 415.700 133.300 415.800 133.400 415.800 H 140.400 C 140.500 415.800 140.400 415.700 140.400 415.800 V 419.300 C 140.400 419.355 140.445 419.400 140.500 419.400 H 147.700 C 147.755 419.400 147.800 419.355 147.800 419.300 V 415.800 C 147.800 415.700 147.700 415.800 147.800 415.800 H 154.800 C 154.900 415.800 154.800 415.700 154.800 415.800 V 419.300 C 154.800 419.355 154.845 419.400 154.900 419.400 H 162.100 C 162.155 419.400 162.200 419.355 162.200 419.300 V 415.800 C 162.200 415.700 162.100 415.800 162.200 415.800 H 173.700 H 177.300 C 177.355 415.800 177.400 415.755 177.400 415.700 V 405.100 C 177.400 405.045 177.355 405.000 177.300 405.000 H 173.800 C 173.700 405.000 173.800 405.100 173.800 405.000 V 398.000 C 173.800 397.900 173.700 398.000 173.800 398.000 H 177.300 C 177.355 398.000 177.400 397.955 177.400 397.900 V 390.700 C 177.400 390.645 177.355 390.600 177.300 390.600 H 173.800 C 173.700 390.600 173.800 390.700 173.800 390.600 V 383.600 C 173.800 383.500 173.700 383.600 173.800 383.600 H 177.300 C 177.355 383.600 177.400 383.555 177.400 383.500 V 376.300 C 177.400 376.245 177.355 376.200 177.300 376.200 H 173.800 C 173.700 376.200 173.800 376.300 173.800 376.200 V 369.200 C 173.800 369.100 173.700 369.200 173.800 369.200 H 177.300 C 177.355 369.200 177.400 369.155 177.400 369.100 V 358.500 C 177.400 358.445 177.355 358.400 177.300 358.400 H 173.700 H 13.700 H 10.100 C 10.045 358.400 10.000 358.445 10.000 358.500 V 369.100 C 10.000 369.155 10.045 369.200 10.100 369.200 H 13.600 C 13.700 369.200 13.600 369.100 13.600 369.200 V 376.200 C 13.600 376.300 13.700 376.200 13.600 376.200 H 10.100 C 10.045 376.200 10.000 376.245 10.000 376.300 V 383.500 C 10.000 383.555 10.045 383.600 10.100 383.600 H 13.600 C 13.700 383.600 13.600 383.500 13.600 383.600 V 390.600 C 13.600 390.700 13.700 390.600 13.600 390.600 H 10.100 C 10.045 390.600 10.000 390.645 10.000 390.700 V 397.900 C 10.000 397.955 10.045 398.000 10.100 398.000 H 13.600 C 13.700 398.000 13.600 397.900 13.600 398.000 V 405.000 C 13.600 405.100 13.700 405.000 13.600 405.000 H 10.100 C 10.045 405.000 10.000 405.045 10.000 405.100 V 415.700 C 10.000 415.755 10.045 415.800 10.100 415.800 H 13.700 Z"
       stroke="rgb(0,0,0)"
       stroke-width="0.20"
       id="path4"
       style="stroke:#ff0000;stroke-opacity:1" />
  </g>
  <g
     id="p-2"
     style="fill:none;stroke-linecap:round;stroke-linejoin:round;stroke:#ff0000;stroke-opacity:1">
    <path
       d="M 195.400 365.600 H 191.900 C 191.800 365.600 191.900 365.700 191.900 365.600 V 362.200 C 191.900 362.100 191.800 362.200 191.900 362.200 H 198.900 C 199.000 362.200 198.900 362.100 198.900 362.200 V 365.600 C 198.900 365.700 199.000 365.600 198.900 365.600 H 195.400 Z"
       stroke="rgb(0,0,255)"
       stroke-width="0.20"
       id="path5"
       style="stroke:#ff0000;stroke-opacity:1" />
    <path
       d="M 290.400 362.200 H 293.900 C 294.000 362.200 293.900 362.100 293.900 362.200 V 365.600 C 293.900 365.700 294.000 365.600 293.900 365.600 H 286.900 C 286.800 365.600 286.900 365.700 286.900 365.600 V 362.200 C 286.900 362.100 286.800 362.200 286.900 362.200 H 290.400 Z"
       stroke="rgb(0,0,255)"
       stroke-width="0.20"
       id="path6"
       style="stroke:#ff0000;stroke-opacity:1" />
    <path
       d="M 182.900 415.800 H 196.000 C 196.100 415.800 196.000 415.700 196.000 415.800 V 419.300 C 196.000 419.355 196.045 419.400 196.100 419.400 H 203.300 C 203.355 419.400 203.400 419.355 203.400 419.300 V 415.800 C 203.400 415.700 203.300 415.800 203.400 415.800 H 210.400 C 210.500 415.800 210.400 415.700 210.400 415.800 V 419.300 C 210.400 419.355 210.445 419.400 210.500 419.400 H 217.700 C 217.755 419.400 217.800 419.355 217.800 419.300 V 415.800 C 217.800 415.700 217.700 415.800 217.800 415.800 H 224.800 C 224.900 415.800 224.800 415.700 224.800 415.800 V 419.300 C 224.800 419.355 224.845 419.400 224.900 419.400 H 232.100 C 232.155 419.400 232.200 419.355 232.200 419.300 V 415.800 C 232.200 415.700 232.100 415.800 232.200 415.800 H 239.200 C 239.300 415.800 239.200 415.700 239.200 415.800 V 419.300 C 239.200 419.355 239.245 419.400 239.300 419.400 H 246.500 C 246.555 419.400 246.600 419.355 246.600 419.300 V 415.800 C 246.600 415.700 246.500 415.800 246.600 415.800 H 253.600 C 253.700 415.800 253.600 415.700 253.600 415.800 V 419.300 C 253.600 419.355 253.645 419.400 253.700 419.400 H 260.900 C 260.955 419.400 261.000 419.355 261.000 419.300 V 415.800 C 261.000 415.700 260.900 415.800 261.000 415.800 H 268.000 C 268.100 415.800 268.000 415.700 268.000 415.800 V 419.300 C 268.000 419.355 268.045 419.400 268.100 419.400 H 275.300 C 275.355 419.400 275.400 419.355 275.400 419.300 V 415.800 C 275.400 415.700 275.300 415.800 275.400 415.800 H 282.400 C 282.500 415.800 282.400 415.700 282.400 415.800 V 419.300 C 282.400 419.355 282.445 419.400 282.500 419.400 H 289.700 C 289.755 419.400 289.800 419.355 289.800 419.300 V 415.800 C 289.800 415.700 289.700 415.800 289.800 415.800 H 302.900 C 302.955 415.800 303.000 415.755 303.000 415.700 V 405.200 C 303.000 405.100 302.900 405.200 303.000 405.200 H 306.500 C 306.555 405.200 306.600 405.155 306.600 405.100 V 397.900 C 306.600 397.845 306.555 397.800 306.500 397.800 H 303.000 C 302.900 397.800 303.000 397.900 303.000 397.800 V 390.800 C 303.000 390.700 302.900 390.800 303.000 390.800 H 306.500 C 306.555 390.800 306.600 390.755 306.600 390.700 V 383.500 C 306.600 383.445 306.555 383.400 306.500 383.400 H 303.000 C 302.900 383.400 303.000 383.500 303.000 383.400 V 376.400 C 303.000 376.300 302.900 376.400 303.000 376.400 H 306.500 C 306.555 376.400 306.600 376.355 306.600 376.300 V 369.100 C 306.600 369.045 306.555 369.000 306.500 369.000 H 303.000 C 302.900 369.000 303.000 369.100 303.000 369.000 V 358.500 C 303.000 358.445 302.955 358.400 302.900 358.400 H 182.900 C 182.845 358.400 182.800 358.445 182.800 358.500 V 369.000 C 182.800 369.100 182.900 369.000 182.800 369.000 H 179.300 C 179.245 369.000 179.200 369.045 179.200 369.100 V 376.300 C 179.200 376.355 179.245 376.400 179.300 376.400 H 182.800 C 182.900 376.400 182.800 376.300 182.800 376.400 V 383.400 C 182.800 383.500 182.900 383.400 182.800 383.400 H 179.300 C 179.245 383.400 179.200 383.445 179.200 383.500 V 390.700 C 179.200 390.755 179.245 390.800 179.300 390.800 H 182.800 C 182.900 390.800 182.800 390.700 182.800 390.800 V 397.800 C 182.800 397.900 182.900 397.800 182.800 397.800 H 179.300 C 179.245 397.800 179.200 397.845 179.200 397.900 V 405.100 C 179.200 405.155 179.245 405.200 179.300 405.200 H 182.800 C 182.900 405.200 182.800 405.100 182.800 405.200 V 415.700 C 182.800 415.755 182.845 415.800 182.900 415.800 Z"
       stroke="rgb(0,0,0)"
       stroke-width="0.20"
       id="path7"
       style="stroke:#ff0000;stroke-opacity:1" />
  </g>
  <g
     id="p-3"
     style="fill:none;stroke-linecap:round;stroke-linejoin:round;stroke:#ff0000;stroke-opacity:1">
    <path
       d="M 195.400 302.800 H 191.900 C 191.800 302.800 191.900 302.900 191.900 302.800 V 299.400 C 191.900 299.300 191.800 299.400 191.900 299.400 H 198.900 C 199.000 299.400 198.900 299.300 198.900 299.400 V 302.800 C 198.900 302.900 199.000 302.800 198.900 302.800 H 195.400 Z"
       stroke="rgb(0,0,255)"
       stroke-width="0.20"
       id="path8"
       style="stroke:#ff0000;stroke-opacity:1" />
    <path
       d="M 290.400 299.400 H 293.900 C 294.000 299.400 293.900 299.300 293.900 299.400 V 302.800 C 293.900 302.900 294.000 302.800 293.900 302.800 H 286.900 C 286.800 302.800 286.900 302.900 286.900 302.800 V 299.400 C 286.900 299.300 286.800 299.400 286.900 299.400 H 290.400 Z"
       stroke="rgb(0,0,255)"
       stroke-width="0.20"
       id="path9"
       style="stroke:#ff0000;stroke-opacity:1" />
    <path
       d="M 182.900 353.000 H 196.000 C 196.100 353.000 196.000 352.900 196.000 353.000 V 356.500 C 196.000 356.555 196.045 356.600 196.100 356.600 H 203.300 C 203.355 356.600 203.400 356.555 203.400 356.500 V 353.000 C 203.400 352.900 203.300 353.000 203.400 353.000 H 210.400 C 210.500 353.000 210.400 352.900 210.400 353.000 V 356.500 C 210.400 356.555 210.445 356.600 210.500 356.600 H 217.700 C 217.755 356.600 217.800 356.555 217.800 356.500 V 353.000 C 217.800 352.900 217.700 353.000 217.800 353.000 H 224.800 C 224.900 353.000 224.800 352.900 224.800 353.000 V 356.500 C 224.800 356.555 224.845 356.600 224.900 356.600 H 232.100 C 232.155 356.600 232.200 356.555 232.200 356.500 V 353.000 C 232.200 352.900 232.100 353.000 232.200 353.000 H 239.200 C 239.300 353.000 239.200 352.900 239.200 353.000 V 356.500 C 239.200 356.555 239.245 356.600 239.300 356.600 H 246.500 C 246.555 356.600 246.600 356.555 246.600 356.500 V 353.000 C 246.600 352.900 246.500 353.000 246.600 353.000 H 253.600 C 253.700 353.000 253.600 352.900 253.600 353.000 V 356.500 C 253.600 356.555 253.645 356.600 253.700 356.600 H 260.900 C 260.955 356.600 261.000 356.555 261.000 356.500 V 353.000 C 261.000 352.900 260.900 353.000 261.000 353.000 H 268.000 C 268.100 353.000 268.000 352.900 268.000 353.000 V 356.500 C 268.000 356.555 268.045 356.600 268.100 356.600 H 275.300 C 275.355 356.600 275.400 356.555 275.400 356.500 V 353.000 C 275.400 352.900 275.300 353.000 275.400 353.000 H 282.400 C 282.500 353.000 282.400 352.900 282.400 353.000 V 356.500 C 282.400 356.555 282.445 356.600 282.500 356.600 H 289.700 C 289.755 356.600 289.800 356.555 289.800 356.500 V 353.000 C 289.800 352.900 289.700 353.000 289.800 353.000 H 302.900 C 302.955 353.000 303.000 352.955 303.000 352.900 V 342.400 C 303.000 342.300 302.900 342.400 303.000 342.400 H 306.500 C 306.555 342.400 306.600 342.355 306.600 342.300 V 335.100 C 306.600 335.045 306.555 335.000 306.500 335.000 H 303.000 C 302.900 335.000 303.000 335.100 303.000 335.000 V 328.000 C 303.000 327.900 302.900 328.000 303.000 328.000 H 306.500 C 306.555 328.000 306.600 327.955 306.600 327.900 V 320.700 C 306.600 320.645 306.555 320.600 306.500 320.600 H 303.000 C 302.900 320.600 303.000 320.700 303.000 320.600 V 313.600 C 303.000 313.500 302.900 313.600 303.000 313.600 H 306.500 C 306.555 313.600 306.600 313.555 306.600 313.500 V 306.300 C 306.600 306.245 306.555 306.200 306.500 306.200 H 303.000 C 302.900 306.200 303.000 306.300 303.000 306.200 V 295.700 C 303.000 295.645 302.955 295.600 302.900 295.600 H 182.900 C 182.845 295.600 182.800 295.645 182.800 295.700 V 306.200 C 182.800 306.300 182.900 306.200 182.800 306.200 H 179.300 C 179.245 306.200 179.200 306.245 179.200 306.300 V 313.500 C 179.200 313.555 179.245 313.600 179.300 313.600 H 182.800 C 182.900 313.600 182.800 313.500 182.800 313.600 V 320.600 C 182.800 320.700 182.900 320.600 182.800 320.600 H 179.300 C 179.245 320.600 179.200 320.645 179.200 320.700 V 327.900 C 179.200 327.955 179.245 328.000 179.300 328.000 H 182.800 C 182.900 328.000 182.800 327.900 182.800 328.000 V 335.000 C 182.800 335.100 182.900 335.000 182.800 335.000 H 179.300 C 179.245 335.000 179.200 335.045 179.200 335.100 V 342.300 C 179.200 342.355 179.245 342.400 179.300 342.400 H 182.800 C 182.900 342.400 182.800 342.300 182.800 342.400 V 352.900 C 182.800 352.955 182.845 353.000 182.900 353.000 Z"
       stroke="rgb(0,0,0)"
       stroke-width="0.20"
       id="path10"
       style="stroke:#ff0000;stroke-opacity:1" />
  </g>
  <g
     id="p-4"
     style="fill:none;stroke-linecap:round;stroke-linejoin:round;stroke:#ff0000;stroke-opacity:1">
    <path
       d="M 26.200 302.800 H 22.700 C 22.600 302.800 22.700 302.900 22.700 302.800 V 299.400 C 22.700 299.300 22.600 299.400 22.700 299.400 H 29.700 C 29.800 299.400 29.700 299.300 29.700 299.400 V 302.800 C 29.700 302.900 29.800 302.800 29.700 302.800 H 26.200 Z"
       stroke="rgb(0,0,255)"
       stroke-width="0.20"
       id="path11"
       style="stroke:#ff0000;stroke-opacity:1" />
    <path
       d="M 161.200 299.400 H 164.700 C 164.800 299.400 164.700 299.300 164.700 299.400 V 302.800 C 164.700 302.900 164.800 302.800 164.700 302.800 H 157.700 C 157.600 302.800 157.700 302.900 157.700 302.800 V 299.400 C 157.700 299.300 157.600 299.400 157.700 299.400 H 161.200 Z"
       stroke="rgb(0,0,255)"
       stroke-width="0.20"
       id="path12"
       style="stroke:#ff0000;stroke-opacity:1" />
    <path
       d="M 13.700 353.000 H 25.200 C 25.300 353.000 25.200 352.900 25.200 353.000 V 356.500 C 25.200 356.555 25.245 356.600 25.300 356.600 H 32.500 C 32.555 356.600 32.600 356.555 32.600 356.500 V 353.000 C 32.600 352.900 32.500 353.000 32.600 353.000 H 39.600 C 39.700 353.000 39.600 352.900 39.600 353.000 V 356.500 C 39.600 356.555 39.645 356.600 39.700 356.600 H 46.900 C 46.955 356.600 47.000 356.555 47.000 356.500 V 353.000 C 47.000 352.900 46.900 353.000 47.000 353.000 H 54.000 C 54.100 353.000 54.000 352.900 54.000 353.000 V 356.500 C 54.000 356.555 54.045 356.600 54.100 356.600 H 61.300 C 61.355 356.600 61.400 356.555 61.400 356.500 V 353.000 C 61.400 352.900 61.300 353.000 61.400 353.000 H 68.400 C 68.500 353.000 68.400 352.900 68.400 353.000 V 356.500 C 68.400 356.555 68.445 356.600 68.500 356.600 H 75.700 C 75.755 356.600 75.800 356.555 75.800 356.500 V 353.000 C 75.800 352.900 75.700 353.000 75.800 353.000 H 82.800 C 82.900 353.000 82.800 352.900 82.800 353.000 V 356.500 C 82.800 356.555 82.845 356.600 82.900 356.600 H 90.100 C 90.155 356.600 90.200 356.555 90.200 356.500 V 353.000 C 90.200 352.900 90.100 353.000 90.200 353.000 H 97.200 C 97.300 353.000 97.200 352.900 97.200 353.000 V 356.500 C 97.200 356.555 97.245 356.600 97.300 356.600 H 104.500 C 104.555 356.600 104.600 356.555 104.600 356.500 V 353.000 C 104.600 352.900 104.500 353.000 104.600 353.000 H 111.600 C 111.700 353.000 111.600 352.900 111.600 353.000 V 356.500 C 111.600 356.555 111.645 356.600 111.700 356.600 H 118.900 C 118.955 356.600 119.000 356.555 119.000 356.500 V 353.000 C 119.000 352.900 118.900 353.000 119.000 353.000 H 126.000 C 126.100 353.000 126.000 352.900 126.000 353.000 V 356.500 C 126.000 356.555 126.045 356.600 126.100 356.600 H 133.300 C 133.355 356.600 133.400 356.555 133.400 356.500 V 353.000 C 133.400 352.900 133.300 353.000 133.400 353.000 H 140.400 C 140.500 353.000 140.400 352.900 140.400 353.000 V 356.500 C 140.400 356.555 140.445 356.600 140.500 356.600 H 147.700 C 147.755 356.600 147.800 356.555 147.800 356.500 V 353.000 C 147.800 352.900 147.700 353.000 147.800 353.000 H 154.800 C 154.900 353.000 154.800 352.900 154.800 353.000 V 356.500 C 154.800 356.555 154.845 356.600 154.900 356.600 H 162.100 C 162.155 356.600 162.200 356.555 162.200 356.500 V 353.000 C 162.200 352.900 162.100 353.000 162.200 353.000 H 173.700 H 177.300 C 177.355 353.000 177.400 352.955 177.400 352.900 V 342.300 C 177.400 342.245 177.355 342.200 177.300 342.200 H 173.800 C 173.700 342.200 173.800 342.300 173.800 342.200 V 335.200 C 173.800 335.100 173.700 335.200 173.800 335.200 H 177.300 C 177.355 335.200 177.400 335.155 177.400 335.100 V 327.900 C 177.400 327.845 177.355 327.800 177.300 327.800 H 173.800 C 173.700 327.800 173.800 327.900 173.800 327.800 V 320.800 C 173.800 320.700 173.700 320.800 173.800 320.800 H 177.300 C 177.355 320.800 177.400 320.755 177.400 320.700 V 313.500 C 177.400 313.445 177.355 313.400 177.300 313.400 H 173.800 C 173.700 313.400 173.800 313.500 173.800 313.400 V 306.400 C 173.800 306.300 173.700 306.400 173.800 306.400 H 177.300 C 177.355 306.400 177.400 306.355 177.400 306.300 V 295.700 C 177.400 295.645 177.355 295.600 177.300 295.600 H 173.700 H 13.700 H 10.100 C 10.045 295.600 10.000 295.645 10.000 295.700 V 306.300 C 10.000 306.355 10.045 306.400 10.100 306.400 H 13.600 C 13.700 306.400 13.600 306.300 13.600 306.400 V 313.400 C 13.600 313.500 13.700 313.400 13.600 313.400 H 10.100 C 10.045 313.400 10.000 313.445 10.000 313.500 V 320.700 C 10.000 320.755 10.045 320.800 10.100 320.800 H 13.600 C 13.700 320.800 13.600 320.700 13.600 320.800 V 327.800 C 13.600 327.900 13.700 327.800 13.600 327.800 H 10.100 C 10.045 327.800 10.000 327.845 10.000 327.900 V 335.100 C 10.000 335.155 10.045 335.200 10.100 335.200 H 13.600 C 13.700 335.200 13.600 335.100 13.600 335.200 V 342.200 C 13.600 342.300 13.700 342.200 13.600 342.200 H 10.100 C 10.045 342.200 10.000 342.245 10.000 342.300 V 352.900 C 10.000 352.955 10.045 353.000 10.100 353.000 H 13.700 Z"
       stroke="rgb(0,0,0)"
       stroke-width="0.20"
       id="path13"
       style="stroke:#ff0000;stroke-opacity:1" />
  </g>
  <g
     id="p-5"
     style="fill:none;stroke-linecap:round;stroke-linejoin:round;stroke:#ff0000;stroke-opacity:1">
    <path
       d="M 18.500 286.700 C 18.500 286.968 18.423 287.231 18.278 287.457 C 18.133 287.683 17.926 287.862 17.682 287.973 C 17.437 288.085 17.166 288.124 16.901 288.086 C 16.635 288.048 16.386 287.934 16.183 287.758 C 15.980 287.582 15.832 287.352 15.757 287.094 C 15.681 286.837 15.681 286.563 15.757 286.306 C 15.832 286.048 15.980 285.818 16.183 285.642 C 16.386 285.466 16.635 285.352 16.901 285.314 C 17.166 285.276 17.437 285.315 17.682 285.427 C 17.926 285.538 18.133 285.717 18.278 285.943 C 18.423 286.169 18.500 286.432 18.500 286.700 Z"
       stroke="rgb(0,0,255)"
       stroke-width="0.20"
       id="path14"
       style="stroke:#ff0000;stroke-opacity:1" />
    <path
       d="M 17.100 293.800 H 27.700 H 39.300 C 39.355 293.800 39.400 293.755 39.400 293.700 V 290.200 C 39.400 290.100 39.300 290.200 39.400 290.200 H 46.400 C 46.500 290.200 46.400 290.100 46.400 290.200 V 293.700 C 46.400 293.755 46.445 293.800 46.500 293.800 H 53.700 C 53.755 293.800 53.800 293.755 53.800 293.700 V 290.200 C 53.800 290.100 53.700 290.200 53.800 290.200 H 60.800 C 60.900 290.200 60.800 290.100 60.800 290.200 V 293.700 C 60.800 293.755 60.845 293.800 60.900 293.800 H 68.100 C 68.155 293.800 68.200 293.755 68.200 293.700 V 290.200 C 68.200 290.100 68.100 290.200 68.200 290.200 H 75.200 C 75.300 290.200 75.200 290.100 75.200 290.200 V 293.700 C 75.200 293.755 75.245 293.800 75.300 293.800 H 82.500 C 82.555 293.800 82.600 293.755 82.600 293.700 V 290.200 C 82.600 290.100 82.500 290.200 82.600 290.200 H 89.600 C 89.700 290.200 89.600 290.100 89.600 290.200 V 293.700 C 89.600 293.755 89.645 293.800 89.700 293.800 H 96.900 C 96.955 293.800 97.000 293.755 97.000 293.700 V 290.200 C 97.000 290.100 96.900 290.200 97.000 290.200 H 104.000 C 104.100 290.200 104.000 290.100 104.000 290.200 V 293.700 C 104.000 293.755 104.045 293.800 104.100 293.800 H 111.300 C 111.355 293.800 111.400 293.755 111.400 293.700 V 290.200 C 111.400 290.100 111.300 290.200 111.400 290.200 H 118.400 C 118.500 290.200 118.400 290.100 118.400 290.200 V 293.700 C 118.400 293.755 118.445 293.800 118.500 293.800 H 125.700 C 125.755 293.800 125.800 293.755 125.800 293.700 V 290.200 C 125.800 290.100 125.700 290.200 125.800 290.200 H 132.800 C 132.900 290.200 132.800 290.100 132.800 290.200 V 293.700 C 132.800 293.755 132.845 293.800 132.900 293.800 H 140.100 C 140.155 293.800 140.200 293.755 140.200 293.700 V 290.200 C 140.200 290.100 140.100 290.200 140.200 290.200 H 147.200 C 147.300 290.200 147.200 290.100 147.200 290.200 V 293.700 C 147.200 293.755 147.245 293.800 147.300 293.800 H 154.500 C 154.555 293.800 154.600 293.755 154.600 293.700 V 290.200 C 154.600 290.100 154.500 290.200 154.600 290.200 H 161.600 C 161.700 290.200 161.600 290.100 161.600 290.200 V 293.700 C 161.600 293.755 161.645 293.800 161.700 293.800 H 168.900 C 168.955 293.800 169.000 293.755 169.000 293.700 V 290.200 C 169.000 290.100 168.900 290.200 169.000 290.200 H 176.000 C 176.100 290.200 176.000 290.100 176.000 290.200 V 293.700 C 176.000 293.755 176.045 293.800 176.100 293.800 H 187.700 H 198.300 C 199.546 293.800 200.771 293.472 201.850 292.849 C 202.929 292.226 203.826 291.329 204.449 290.250 C 205.072 289.171 205.400 287.946 205.400 286.700 V 173.500 C 205.400 172.254 205.072 171.029 204.449 169.950 C 203.826 168.871 202.929 167.974 201.850 167.351 C 200.771 166.728 199.546 166.400 198.300 166.400 H 187.700 H 176.100 C 176.045 166.400 176.000 166.445 176.000 166.500 V 170.000 C 176.000 170.100 176.100 170.000 176.000 170.000 H 169.000 C 168.900 170.000 169.000 170.100 169.000 170.000 V 166.500 C 169.000 166.445 168.955 166.400 168.900 166.400 H 161.700 C 161.645 166.400 161.600 166.445 161.600 166.500 V 170.000 C 161.600 170.100 161.700 170.000 161.600 170.000 H 154.600 C 154.500 170.000 154.600 170.100 154.600 170.000 V 166.500 C 154.600 166.445 154.555 166.400 154.500 166.400 H 147.300 C 147.245 166.400 147.200 166.445 147.200 166.500 V 170.000 C 147.200 170.100 147.300 170.000 147.200 170.000 H 140.200 C 140.100 170.000 140.200 170.100 140.200 170.000 V 166.500 C 140.200 166.445 140.155 166.400 140.100 166.400 H 132.900 C 132.845 166.400 132.800 166.445 132.800 166.500 V 170.000 C 132.800 170.100 132.900 170.000 132.800 170.000 H 125.800 C 125.700 170.000 125.800 170.100 125.800 170.000 V 166.500 C 125.800 166.445 125.755 166.400 125.700 166.400 H 118.500 C 118.445 166.400 118.400 166.445 118.400 166.500 V 170.000 C 118.400 170.100 118.500 170.000 118.400 170.000 H 111.400 C 111.300 170.000 111.400 170.100 111.400 170.000 V 166.500 C 111.400 166.445 111.355 166.400 111.300 166.400 H 104.100 C 104.045 166.400 104.000 166.445 104.000 166.500 V 170.000 C 104.000 170.100 104.100 170.000 104.000 170.000 H 97.000 C 96.900 170.000 97.000 170.100 97.000 170.000 V 166.500 C 97.000 166.445 96.955 166.400 96.900 166.400 H 89.700 C 89.645 166.400 89.600 166.445 89.600 166.500 V 170.000 C 89.600 170.100 89.700 170.000 89.600 170.000 H 82.600 C 82.500 170.000 82.600 170.100 82.600 170.000 V 166.500 C 82.600 166.445 82.555 166.400 82.500 166.400 H 75.300 C 75.245 166.400 75.200 166.445 75.200 166.500 V 170.000 C 75.200 170.100 75.300 170.000 75.200 170.000 H 68.200 C 68.100 170.000 68.200 170.100 68.200 170.000 V 166.500 C 68.200 166.445 68.155 166.400 68.100 166.400 H 60.900 C 60.845 166.400 60.800 166.445 60.800 166.500 V 170.000 C 60.800 170.100 60.900 170.000 60.800 170.000 H 53.800 C 53.700 170.000 53.800 170.100 53.800 170.000 V 166.500 C 53.800 166.445 53.755 166.400 53.700 166.400 H 46.500 C 46.445 166.400 46.400 166.445 46.400 166.500 V 170.000 C 46.400 170.100 46.500 170.000 46.400 170.000 H 39.400 C 39.300 170.000 39.400 170.100 39.400 170.000 V 166.500 C 39.400 166.445 39.355 166.400 39.300 166.400 H 27.700 H 17.100 C 15.854 166.400 14.629 166.728 13.550 167.351 C 12.471 167.974 11.574 168.871 10.951 169.950 C 10.328 171.029 10.000 172.254 10.000 173.500 V 286.700 C 10.000 287.946 10.328 289.171 10.951 290.250 C 11.574 291.329 12.471 292.226 13.550 292.849 C 14.629 293.472 15.854 293.800 17.100 293.800 Z"
       stroke="rgb(0,0,0)"
       stroke-width="0.20"
       id="path15"
       style="stroke:#ff0000;stroke-opacity:1" />
    <path
       d="M 198.300 285.300 C 198.568 285.300 198.831 285.377 199.057 285.522 C 199.283 285.667 199.462 285.874 199.573 286.118 C 199.685 286.363 199.724 286.634 199.686 286.899 C 199.648 287.165 199.534 287.414 199.358 287.617 C 199.182 287.820 198.952 287.968 198.694 288.043 C 198.437 288.119 198.163 288.119 197.906 288.043 C 197.648 287.968 197.418 287.820 197.242 287.617 C 197.066 287.414 196.952 287.165 196.914 286.899 C 196.876 286.634 196.915 286.363 197.027 286.118 C 197.138 285.874 197.317 285.667 197.543 285.522 C 197.769 285.377 198.032 285.300 198.300 285.300 Z"
       stroke="rgb(0,0,255)"
       stroke-width="0.20"
       id="path16"
       style="stroke:#ff0000;stroke-opacity:1" />
    <path
       d="M 191.300 273.300 V 276.800 C 191.300 276.900 191.400 276.800 191.300 276.800 H 187.900 C 187.800 276.800 187.900 276.900 187.900 276.800 V 269.800 C 187.900 269.700 187.800 269.800 187.900 269.800 H 191.300 C 191.400 269.800 191.300 269.700 191.300 269.800 V 273.300 Z"
       stroke="rgb(0,0,255)"
       stroke-width="0.20"
       id="path17"
       style="stroke:#ff0000;stroke-opacity:1" />
    <path
       d="M 191.300 258.900 V 262.400 C 191.300 262.500 191.400 262.400 191.300 262.400 H 187.900 C 187.800 262.400 187.900 262.500 187.900 262.400 V 255.400 C 187.900 255.300 187.800 255.400 187.900 255.400 H 191.300 C 191.400 255.400 191.300 255.300 191.300 255.400 V 258.900 Z"
       stroke="rgb(0,0,255)"
       stroke-width="0.20"
       id="path18"
       style="stroke:#ff0000;stroke-opacity:1" />
    <path
       d="M 191.300 244.500 V 248.000 C 191.300 248.100 191.400 248.000 191.300 248.000 H 187.900 C 187.800 248.000 187.900 248.100 187.900 248.000 V 241.000 C 187.900 240.900 187.800 241.000 187.900 241.000 H 191.300 C 191.400 241.000 191.300 240.900 191.300 241.000 V 244.500 Z"
       stroke="rgb(0,0,255)"
       stroke-width="0.20"
       id="path19"
       style="stroke:#ff0000;stroke-opacity:1" />
    <path
       d="M 191.300 230.100 V 233.600 C 191.300 233.700 191.400 233.600 191.300 233.600 H 187.900 C 187.800 233.600 187.900 233.700 187.900 233.600 V 226.600 C 187.900 226.500 187.800 226.600 187.900 226.600 H 191.300 C 191.400 226.600 191.300 226.500 191.300 226.600 V 230.100 Z"
       stroke="rgb(0,0,255)"
       stroke-width="0.20"
       id="path20"
       style="stroke:#ff0000;stroke-opacity:1" />
    <path
       d="M 191.300 215.700 V 219.200 C 191.300 219.300 191.400 219.200 191.300 219.200 H 187.900 C 187.800 219.200 187.900 219.300 187.900 219.200 V 212.200 C 187.900 212.100 187.800 212.200 187.900 212.200 H 191.300 C 191.400 212.200 191.300 212.100 191.300 212.200 V 215.700 Z"
       stroke="rgb(0,0,255)"
       stroke-width="0.20"
       id="path21"
       style="stroke:#ff0000;stroke-opacity:1" />
    <path
       d="M 191.300 201.300 V 204.800 C 191.300 204.900 191.400 204.800 191.300 204.800 H 187.900 C 187.800 204.800 187.900 204.900 187.900 204.800 V 197.800 C 187.900 197.700 187.800 197.800 187.900 197.800 H 191.300 C 191.400 197.800 191.300 197.700 191.300 197.800 V 201.300 Z"
       stroke="rgb(0,0,255)"
       stroke-width="0.20"
       id="path22"
       style="stroke:#ff0000;stroke-opacity:1" />
    <path
       d="M 191.300 186.900 V 190.400 C 191.300 190.500 191.400 190.400 191.300 190.400 H 187.900 C 187.800 190.400 187.900 190.500 187.900 190.400 V 183.400 C 187.900 183.300 187.800 183.400 187.900 183.400 H 191.300 C 191.400 183.400 191.300 183.300 191.300 183.400 V 186.900 Z"
       stroke="rgb(0,0,255)"
       stroke-width="0.20"
       id="path23"
       style="stroke:#ff0000;stroke-opacity:1" />
    <path
       d="M 196.900 173.500 C 196.900 173.232 196.977 172.969 197.122 172.743 C 197.267 172.517 197.474 172.338 197.718 172.227 C 197.963 172.115 198.234 172.076 198.499 172.114 C 198.765 172.152 199.014 172.266 199.217 172.442 C 199.420 172.618 199.568 172.848 199.643 173.106 C 199.719 173.363 199.719 173.637 199.643 173.894 C 199.568 174.152 199.420 174.382 199.217 174.558 C 199.014 174.734 198.765 174.848 198.499 174.886 C 198.234 174.924 197.963 174.885 197.718 174.773 C 197.474 174.662 197.267 174.483 197.122 174.257 C 196.977 174.031 196.900 173.768 196.900 173.500 Z"
       stroke="rgb(0,0,255)"
       stroke-width="0.20"
       id="path24"
       style="stroke:#ff0000;stroke-opacity:1" />
    <path
       d="M 17.100 174.900 C 16.832 174.900 16.569 174.823 16.343 174.678 C 16.117 174.533 15.938 174.326 15.827 174.082 C 15.715 173.837 15.676 173.566 15.714 173.301 C 15.752 173.035 15.866 172.786 16.042 172.583 C 16.218 172.380 16.448 172.232 16.706 172.157 C 16.963 172.081 17.237 172.081 17.494 172.157 C 17.752 172.232 17.982 172.380 18.158 172.583 C 18.334 172.786 18.448 173.035 18.486 173.301 C 18.524 173.566 18.485 173.837 18.373 174.082 C 18.262 174.326 18.083 174.533 17.857 174.678 C 17.631 174.823 17.368 174.900 17.100 174.900 Z"
       stroke="rgb(0,0,255)"
       stroke-width="0.20"
       id="path25"
       style="stroke:#ff0000;stroke-opacity:1" />
    <path
       d="M 24.100 186.900 V 183.400 C 24.100 183.300 24.000 183.400 24.100 183.400 H 27.500 C 27.600 183.400 27.500 183.300 27.500 183.400 V 190.400 C 27.500 190.500 27.600 190.400 27.500 190.400 H 24.100 C 24.000 190.400 24.100 190.500 24.100 190.400 V 186.900 Z"
       stroke="rgb(0,0,255)"
       stroke-width="0.20"
       id="path26"
       style="stroke:#ff0000;stroke-opacity:1" />
    <path
       d="M 24.100 201.300 V 197.800 C 24.100 197.700 24.000 197.800 24.100 197.800 H 27.500 C 27.600 197.800 27.500 197.700 27.500 197.800 V 204.800 C 27.500 204.900 27.600 204.800 27.500 204.800 H 24.100 C 24.000 204.800 24.100 204.900 24.100 204.800 V 201.300 Z"
       stroke="rgb(0,0,255)"
       stroke-width="0.20"
       id="path27"
       style="stroke:#ff0000;stroke-opacity:1" />
    <path
       d="M 24.100 215.700 V 212.200 C 24.100 212.100 24.000 212.200 24.100 212.200 H 27.500 C 27.600 212.200 27.500 212.100 27.500 212.200 V 219.200 C 27.500 219.300 27.600 219.200 27.500 219.200 H 24.100 C 24.000 219.200 24.100 219.300 24.100 219.200 V 215.700 Z"
       stroke="rgb(0,0,255)"
       stroke-width="0.20"
       id="path28"
       style="stroke:#ff0000;stroke-opacity:1" />
    <path
       d="M 24.100 230.100 V 226.600 C 24.100 226.500 24.000 226.600 24.100 226.600 H 27.500 C 27.600 226.600 27.500 226.500 27.500 226.600 V 233.600 C 27.500 233.700 27.600 233.600 27.500 233.600 H 24.100 C 24.000 233.600 24.100 233.700 24.100 233.600 V 230.100 Z"
       stroke="rgb(0,0,255)"
       stroke-width="0.20"
       id="path29"
       style="stroke:#ff0000;stroke-opacity:1" />
    <path
       d="M 24.100 244.500 V 241.000 C 24.100 240.900 24.000 241.000 24.100 241.000 H 27.500 C 27.600 241.000 27.500 240.900 27.500 241.000 V 248.000 C 27.500 248.100 27.600 248.000 27.500 248.000 H 24.100 C 24.000 248.000 24.100 248.100 24.100 248.000 V 244.500 Z"
       stroke="rgb(0,0,255)"
       stroke-width="0.20"
       id="path30"
       style="stroke:#ff0000;stroke-opacity:1" />
    <path
       d="M 24.100 258.900 V 255.400 C 24.100 255.300 24.000 255.400 24.100 255.400 H 27.500 C 27.600 255.400 27.500 255.300 27.500 255.400 V 262.400 C 27.500 262.500 27.600 262.400 27.500 262.400 H 24.100 C 24.000 262.400 24.100 262.500 24.100 262.400 V 258.900 Z"
       stroke="rgb(0,0,255)"
       stroke-width="0.20"
       id="path31"
       style="stroke:#ff0000;stroke-opacity:1" />
    <path
       d="M 24.100 273.300 V 269.800 C 24.100 269.700 24.000 269.800 24.100 269.800 H 27.500 C 27.600 269.800 27.500 269.700 27.500 269.800 V 276.800 C 27.500 276.900 27.600 276.800 27.500 276.800 H 24.100 C 24.000 276.800 24.100 276.900 24.100 276.800 V 273.300 Z"
       stroke="rgb(0,0,255)"
       stroke-width="0.20"
       id="path32"
       style="stroke:#ff0000;stroke-opacity:1" />
  </g>
  <g
     id="p-6"
     style="fill:none;stroke-linecap:round;stroke-linejoin:round;stroke:#ff0000;stroke-opacity:1">
    <path
       d="M 19.833 156.167 C 19.833 156.435 19.756 156.698 19.611 156.924 C 19.466 157.149 19.259 157.329 19.015 157.440 C 18.771 157.552 18.500 157.591 18.234 157.552 C 17.968 157.514 17.719 157.400 17.517 157.225 C 17.314 157.049 17.166 156.819 17.090 156.561 C 17.014 156.304 17.014 156.030 17.090 155.772 C 17.166 155.515 17.314 155.284 17.517 155.109 C 17.719 154.933 17.968 154.819 18.234 154.781 C 18.500 154.743 18.771 154.782 19.015 154.893 C 19.259 155.005 19.466 155.184 19.611 155.410 C 19.756 155.636 19.833 155.898 19.833 156.167 Z"
       stroke="rgb(0,0,255)"
       stroke-width="0.20"
       id="path33"
       style="stroke:#ff0000;stroke-opacity:1" />
    <path
       d="M 10.100 164.600 H 170.100 C 170.155 164.600 170.200 164.555 170.200 164.500 V 44.500 C 170.200 44.445 170.155 44.400 170.100 44.400 H 10.100 C 10.045 44.400 10.000 44.445 10.000 44.500 V 164.500 C 10.000 164.555 10.045 164.600 10.100 164.600 Z"
       stroke="rgb(0,0,0)"
       stroke-width="0.20"
       id="path34"
       style="stroke:#ff0000;stroke-opacity:1" />
    <path
       d="M 161.767 154.767 C 162.035 154.767 162.298 154.844 162.524 154.989 C 162.749 155.134 162.929 155.341 163.040 155.585 C 163.152 155.829 163.191 156.100 163.152 156.366 C 163.114 156.632 163.000 156.881 162.825 157.083 C 162.649 157.286 162.419 157.434 162.161 157.510 C 161.904 157.586 161.630 157.586 161.372 157.510 C 161.115 157.434 160.884 157.286 160.709 157.083 C 160.533 156.881 160.419 156.632 160.381 156.366 C 160.343 156.100 160.382 155.829 160.493 155.585 C 160.605 155.341 160.784 155.134 161.010 154.989 C 161.236 154.844 161.498 154.767 161.767 154.767 Z"
       stroke="rgb(0,0,255)"
       stroke-width="0.20"
       id="path35"
       style="stroke:#ff0000;stroke-opacity:1" />
    <path
       d="M 160.367 52.833 C 160.367 52.565 160.444 52.302 160.589 52.076 C 160.734 51.851 160.941 51.671 161.185 51.560 C 161.429 51.448 161.700 51.409 161.966 51.448 C 162.232 51.486 162.481 51.600 162.683 51.775 C 162.886 51.951 163.034 52.181 163.110 52.439 C 163.186 52.696 163.186 52.970 163.110 53.228 C 163.034 53.485 162.886 53.716 162.683 53.891 C 162.481 54.067 162.232 54.181 161.966 54.219 C 161.700 54.257 161.429 54.218 161.185 54.107 C 160.941 53.995 160.734 53.816 160.589 53.590 C 160.444 53.364 160.367 53.102 160.367 52.833 Z"
       stroke="rgb(0,0,255)"
       stroke-width="0.20"
       id="path36"
       style="stroke:#ff0000;stroke-opacity:1" />
    <path
       d="M 18.433 54.233 C 18.165 54.233 17.902 54.156 17.676 54.011 C 17.451 53.866 17.271 53.659 17.160 53.415 C 17.048 53.171 17.009 52.900 17.048 52.634 C 17.086 52.368 17.200 52.119 17.375 51.917 C 17.551 51.714 17.781 51.566 18.039 51.490 C 18.296 51.414 18.570 51.414 18.828 51.490 C 19.085 51.566 19.316 51.714 19.491 51.917 C 19.667 52.119 19.781 52.368 19.819 52.634 C 19.857 52.900 19.818 53.171 19.707 53.415 C 19.595 53.659 19.416 53.866 19.190 54.011 C 18.964 54.156 18.702 54.233 18.433 54.233 Z"
       stroke="rgb(0,0,255)"
       stroke-width="0.20"
       id="path37"
       style="stroke:#ff0000;stroke-opacity:1" />
  </g>
  <g
     id="p-7"
     style="fill:none;stroke-linecap:round;stroke-linejoin:round;stroke:#ff0000;stroke-opacity:1"
     transform="translate(172.63119,109.48981)">
    <path
       d="m 19.357,39 h 8.8 c 0.1,0 0,-0.1 0,0 v 3.5 c 0,0.055 0.045,0.1 0.1,0.1 h 7.2 c 0.055,0 0.1,-0.045 0.1,-0.1 V 39 c 0,-0.1 -0.1,0 0,0 h 8.8 c 0.055,0 0.1,-0.045 0.1,-0.1 v -8.8 c 0,-0.1 -0.1,0 0,0 h 3.5 c 0.055,0 0.1,-0.045 0.1,-0.1 v -7.2 c 0,-0.055 -0.045,-0.1 -0.1,-0.1 h -3.5 c -0.1,0 0,0.1 0,0 v -8.8 c 0,-0.055 -0.045,-0.1 -0.1,-0.1 -0.027,0 -0.052,0.011 -0.071,0.029 l -25,25 c -0.019,0.019 -0.029,0.044 -0.029,0.071 0,0.055 0.045,0.1 0.1,0.1 z"
       stroke="#000000"
       stroke-width="0.2"
       id="path38"
       style="stroke:#ff0000;stroke-opacity:1" />
    <path
       d="m 36.024,29.667 c 0.172,0 0.341,0.049 0.486,0.143 0.145,0.093 0.261,0.226 0.332,0.383 0.072,0.157 0.097,0.331 0.072,0.502 -0.024,0.171 -0.097,0.331 -0.21,0.461 -0.113,0.13 -0.261,0.226 -0.427,0.274 -0.165,0.049 -0.341,0.049 -0.507,0 -0.166,-0.048 -0.314,-0.144 -0.427,-0.274 -0.113,-0.13 -0.186,-0.29 -0.21,-0.461 -0.025,-0.171 0,-0.345 0.072,-0.502 0.072,-0.157 0.187,-0.29 0.332,-0.383 0.145,-0.094 0.314,-0.143 0.487,-0.143 z"
       stroke="#0000ff"
       stroke-width="0.2"
       id="path39"
       style="stroke:#ff0000;stroke-opacity:1" />
    <path
       d="m 38.7,13.6 h -8.8 c -0.1,0 0,0.1 0,0 V 10.1 C 29.9,10.045 29.855,10 29.8,10 h -7.2 c -0.055,0 -0.1,0.045 -0.1,0.1 v 3.5 c 0,0.1 0.1,0 0,0 h -8.8 c -0.055,0 -0.1,0.045 -0.1,0.1 v 8.8 c 0,0.1 0.1,0 0,0 h -3.5 c -0.055,0 -0.1,0.045 -0.1,0.1 v 7.2 c 0,0.055 0.045,0.1 0.1,0.1 h 3.5 c 0.1,0 0,-0.1 0,0 v 8.8 c 0,0.055 0.045,0.1 0.1,0.1 0.027,0 0.052,-0.011 0.071,-0.029 l 25,-25 C 38.789,13.752 38.8,13.727 38.8,13.7 c 0,-0.055 -0.045,-0.1 -0.1,-0.1 z"
       stroke="#000000"
       stroke-width="0.2"
       id="path40"
       style="stroke:#ff0000;stroke-opacity:1" />
    <path
       d="m 22.033,22.933 c -0.172,0 -0.341,-0.049 -0.486,-0.143 -0.145,-0.093 -0.261,-0.226 -0.332,-0.383 -0.072,-0.157 -0.097,-0.331 -0.073,-0.502 0.025,-0.171 0.098,-0.331 0.211,-0.461 0.113,-0.13 0.261,-0.226 0.427,-0.274 0.165,-0.049 0.341,-0.049 0.507,0 0.165,0.048 0.314,0.144 0.427,0.274 0.112,0.13 0.186,0.29 0.21,0.461 0.025,0.171 0,0.345 -0.072,0.502 -0.072,0.157 -0.187,0.29 -0.332,0.383 -0.145,0.094 -0.314,0.143 -0.487,0.143 z"
       stroke="#0000ff"
       stroke-width="0.2"
       id="path41"
       style="stroke:#ff0000;stroke-opacity:1" />
    <path
       d="m 59.214,39 h 8.8 c 0.1,0 0,-0.1 0,0 v 3.5 c 0,0.055 0.044,0.1 0.1,0.1 h 7.2 c 0.055,0 0.1,-0.045 0.1,-0.1 V 39 c 0,-0.1 -0.1,0 0,0 h 8.8 c 0.055,0 0.1,-0.045 0.1,-0.1 v -8.8 c 0,-0.1 -0.1,0 0,0 h 3.5 c 0.055,0 0.1,-0.045 0.1,-0.1 v -7.2 c 0,-0.055 -0.045,-0.1 -0.1,-0.1 h -3.5 c -0.1,0 0,0.1 0,0 v -8.8 c 0,-0.055 -0.045,-0.1 -0.1,-0.1 -0.027,0 -0.052,0.011 -0.071,0.029 l -25,25 c -0.019,0.019 -0.029,0.044 -0.029,0.071 0,0.055 0.044,0.1 0.1,0.1 z"
       stroke="#000000"
       stroke-width="0.2"
       id="path42"
       style="stroke:#ff0000;stroke-opacity:1" />
    <path
       d="m 75.88,29.667 c 0.173,0 0.342,0.049 0.487,0.143 0.145,0.093 0.26,0.226 0.332,0.383 0.072,0.157 0.097,0.331 0.072,0.502 -0.024,0.171 -0.097,0.331 -0.21,0.461 -0.113,0.13 -0.262,0.226 -0.427,0.274 -0.166,0.049 -0.342,0.049 -0.507,0 -0.166,-0.048 -0.314,-0.144 -0.427,-0.274 -0.113,-0.13 -0.186,-0.29 -0.21,-0.461 -0.025,-0.171 0,-0.345 0.072,-0.502 0.071,-0.157 0.187,-0.29 0.332,-0.383 0.145,-0.094 0.314,-0.143 0.486,-0.143 z"
       stroke="#0000ff"
       stroke-width="0.2"
       id="path43"
       style="stroke:#ff0000;stroke-opacity:1" />
    <path
       d="m 78.557,13.6 h -8.8 c -0.1,0 0,0.1 0,0 v -3.5 c 0,-0.055 -0.045,-0.1 -0.1,-0.1 h -7.2 c -0.055,0 -0.1,0.045 -0.1,0.1 v 3.5 c 0,0.1 0.1,0 0,0 h -8.8 c -0.055,0 -0.1,0.045 -0.1,0.1 v 8.8 c 0,0.1 0.1,0 0,0 h -3.5 c -0.055,0 -0.1,0.045 -0.1,0.1 v 7.2 c 0,0.055 0.045,0.1 0.1,0.1 h 3.5 c 0.1,0 0,-0.1 0,0 v 8.8 c 0,0.055 0.045,0.1 0.1,0.1 0.026,0 0.052,-0.011 0.071,-0.029 l 25,-25 c 0.018,-0.019 0.029,-0.044 0.029,-0.071 0,-0.055 -0.045,-0.1 -0.1,-0.1 z"
       stroke="#000000"
       stroke-width="0.2"
       id="path44"
       style="stroke:#ff0000;stroke-opacity:1" />
    <path
       d="m 61.89,22.933 c -0.172,0 -0.341,-0.049 -0.486,-0.143 C 61.258,22.697 61.143,22.564 61.072,22.407 61,22.25 60.975,22.076 60.999,21.905 c 0.025,-0.171 0.098,-0.331 0.211,-0.461 0.113,-0.13 0.261,-0.226 0.427,-0.274 0.165,-0.049 0.341,-0.049 0.507,0 0.165,0.048 0.313,0.144 0.426,0.274 0.113,0.13 0.186,0.29 0.211,0.461 0.025,0.171 0,0.345 -0.072,0.502 -0.072,0.157 -0.187,0.29 -0.332,0.383 -0.145,0.094 -0.314,0.143 -0.487,0.143 z"
       stroke="#0000ff"
       stroke-width="0.2"
       id="path45"
       style="stroke:#ff0000;stroke-opacity:1" />
  </g>
  <rect
     style="fill:none;stroke:#ff0000;stroke-width:0.25;stroke-linejoin:round;paint-order:markers stroke fill"
     id="rect45"
     width="25"
     height="15"
     x="25.015915"
     y="373.39999"
     rx="2"
     ry="2" />
  <rect
     style="fill:none;stroke:#ff0000;stroke-width:0.25;stroke-linejoin:round;paint-order:markers stroke fill"
     id="rect45-3"
     width="25"
     height="15"
     x="58.76936"
     y="373.39999"
     rx="2"
     ry="2" />
  <rect
     style="fill:none;stroke:#ff0000;stroke-width:0.25;stroke-linejoin:round;paint-order:markers stroke fill"
     id="rect45-4"
     width="25"
     height="15"
     x="92.522804"
     y="373.39999"
     rx="2"
     ry="2" />
  <rect
     style="fill:none;stroke:#ff0000;stroke-width:0.25;stroke-linejoin:round;paint-order:markers stroke fill"
     id="rect45-46"
     width="25"
     height="15"
     x="25.015915"
     y="310.625"
     rx="2"
     ry="2" />
  <rect
     style="fill:none;stroke:#ff0000;stroke-width:0.25;stroke-linejoin:round;paint-order:markers stroke fill"
     id="rect45-3-6"
     width="25"
     height="15"
     x="58.76936"
     y="310.625"
     rx="2"
     ry="2" />
  <rect
     style="fill:none;stroke:#ff0000;stroke-width:0.25;stroke-linejoin:round;paint-order:markers stroke fill"
     id="rect45-4-6"
     width="25"
     height="15"
     x="92.522804"
     y="310.625"
     rx="2"
     ry="2" />
  <rect
     style="fill:none;stroke:#ff0000;stroke-width:0.25;stroke-linejoin:round;paint-order:markers stroke fill"
     id="rect45-4-1"
     width="25"
     height="15"
     x="230.39999"
     y="373.39999"
     rx="2"
     ry="2" />
  <rect
     style="fill:none;stroke:#ff0000;stroke-width:0.25;stroke-linejoin:round;paint-order:markers stroke fill"
     id="rect45-4-1-4"
     width="25"
     height="15"
     x="230.39999"
     y="310.60001"
     rx="2"
     ry="2" />
  <path
     id="path935"
     style="fill:#0000ff;fill-opacity:1;stroke-width:0.0697155"
     d="m 82.840312,83.879638 c -0.27841,0.0164 -0.6377,0.52677 -2.145266,2.77257 -0.959353,1.42913 -2.105323,3.13175 -2.546543,3.78359 -0.441214,0.65185 -2.001496,2.976558 -3.467281,5.166068 l -1.795323,2.68175 c -0.987427,-1.48095 -1.693769,-3.25892 -2.243712,-4.63162 -0.388411,-0.9756 -0.516655,-1.15658 -0.819572,-1.15658 -0.293363,0 -0.458958,0.25779 -0.915431,1.42522 -0.529399,1.35396 -1.167715,2.73299 -1.665695,3.59842 -0.432319,0.75132 -0.517271,0.88064 -1.038932,1.58196 -0.381934,0.51346 -0.435298,0.65425 -0.35852,0.945794 0.07908,0.30027 0.334941,0.38005 1.180408,0.36805 l 0.757752,-0.0108 -0.375405,0.70792 c -0.493381,0.93022 -1.010078,1.74462 -1.613408,2.543 -0.672726,0.89021 -0.754185,1.05205 -0.662302,1.31562 0.118412,0.33968 0.283992,0.38377 1.345028,0.35811 0.524032,-0.0127 0.952544,-0.007 0.952196,0.0118 -0.0015,0.0926 -0.879419,1.60039 -1.185853,2.03673 -0.385515,0.54896 -0.439931,0.83193 -0.213641,1.11015 0.130493,0.16045 0.160341,0.16447 1.188576,0.15768 0.580133,-0.004 1.029708,0.0137 0.999036,0.0388 -0.03067,0.0252 -0.338041,0.27089 -0.683136,0.54615 -0.653068,0.52094 -0.891355,0.80438 -1.050233,1.24972 -0.147444,0.41328 -0.08998,6.39605 0.0586,7.24975 0.305357,1.75451 1.1976,3.47109 2.481591,4.7742 1.381549,1.4021 3.408075,2.34213 5.532618,2.56655 0.306751,0.0324 7.47531,0.0548 15.930098,0.0497 l 15.372388,-0.009 0.75285,-0.15986 c 1.83282,-0.38905 3.28618,-1.11888 4.46849,-2.24398 1.37484,-1.30831 2.34082,-3.09968 2.65588,-4.92533 0.0931,-0.53933 0.0551,-0.15576 0.0386,-4.27362 -0.0148,-3.70113 7e-5,-4.82103 0.064,-4.82103 0.0458,1e-5 0.16862,-0.0735 0.273,-0.16325 0.29992,-0.25797 0.2542,-0.48372 -0.26565,-1.30936 -0.48984,-0.77797 -1.03164,-1.74804 -1.03186,-1.84748 -6e-5,-0.0336 0.41913,-0.0516 0.93151,-0.04 0.92634,0.0209 0.93283,0.0199 1.15752,-0.16912 0.32261,-0.27145 0.2644,-0.51608 -0.28444,-1.19606 -0.5758,-0.71339 -1.24374,-1.74766 -1.74508,-2.70218 -0.2244,-0.42724 -0.40795,-0.79286 -0.40795,-0.81248 0,-0.0197 0.36047,-0.0329 0.80106,-0.0294 0.76582,0.006 0.8084,-0.002 0.9688,-0.16721 0.27892,-0.288184 0.28124,-0.429504 0.0133,-0.808144 -1.36382,-1.92759 -1.93276,-2.98059 -2.86762,-5.30727 -0.28896,-0.71916 -0.57171,-1.37834 -0.62839,-1.46485 -0.14239,-0.21731 -0.5106,-0.21368 -0.71799,0.007 -0.0849,0.0904 -0.40716,0.78843 -0.7161,1.55118 -0.95826,2.36593 -1.6951,3.7932 -2.41813,4.68378 l -0.24291,0.29915 -0.21582,-0.26089 c -0.21283,-0.25728 -0.67922,-0.9113 -1.13548,-1.59231 l -0.23352,-0.34858 0.7086,-0.0396 c 0.6627,-0.037 0.7194,-0.0519 0.87295,-0.23039 0.26158,-0.30411 0.2205,-0.57787 -0.13127,-0.87485 -0.46304,-0.39093 -1.796,-1.73358 -1.796,-1.80908 0,-0.0374 0.0963,-0.02 0.21405,0.0388 0.33635,0.16779 1.12158,0.1013 1.35115,-0.11438 0.26784,-0.25162 0.2271,-0.46219 -0.19716,-1.01905 -0.82676,-1.085148 -1.60046,-2.509928 -2.38206,-4.387068 -0.49075,-1.17863 -0.5451,-1.26895 -0.79792,-1.32447 -0.05,-0.011 -0.095,-0.0187 -0.13684,-0.0204 -0.29275,-0.0117 -0.42989,0.27496 -1.04765,1.8329 -0.6228,1.57067 -1.29077,2.80294 -2.105638,3.884758 -0.2253,0.29912 -0.4055,0.6109 -0.4055,0.70153 0,0.0897 0.088,0.24745 0.19554,0.35048 0.16447,0.15757 0.25584,0.18691 0.57516,0.18436 0.208788,-0.002 0.520798,-0.0304 0.693338,-0.0637 0.17255,-0.0334 0.32512,-0.0494 0.33905,-0.0356 0.0139,0.0138 -0.0587,0.16015 -0.16122,0.32517 -0.10256,0.165 -0.42066,0.69211 -0.70696,1.17141 -0.204488,0.34233 -0.486118,0.76696 -0.743858,1.15781 -0.40014,-0.74454 -0.77686,-1.40766 -0.83783,-1.47453 -0.29168,-0.31993 -0.5928,-0.0872 -1.06929,0.82638 -0.1579,0.30276 -0.43172,0.81717 -0.60838,1.1431 -0.17667,0.32592 -0.42082,0.78867 -0.54262,1.02831 -0.12179,0.23965 -0.24174,0.43573 -0.26647,0.43573 -0.0556,0 -3.48942,-5.08614 -4.78508,-7.087618 -0.64512,-0.99655 -0.77713,-1.12178 -1.09803,-1.04124 -0.16435,0.0413 -0.29615,0.22589 -0.9127,1.27926 -0.18516,0.31633 -0.3541,0.574248 -0.37554,0.573108 -0.0214,-0.001 -0.29539,-0.385438 -0.60879,-0.854018 -0.31341,-0.46857 -0.98756,-1.46374 -1.49808,-2.21144 -0.51052,-0.7477 -1.52715,-2.25357 -2.2591,-3.34637 -0.87328,-1.30383 -1.39411,-2.01786 -1.51509,-2.07691 -0.0687,-0.0335 -0.1287,-0.056 -0.19294,-0.0523 z m 1.21159,3.54802 c 0.0168,-0.0168 0.0928,0.0728 0.16897,0.19908 0.0761,0.12625 0.37031,0.55075 0.6536,0.94334 0.28328,0.39259 0.71826,1.00435 0.96662,1.35946 0.24837,0.35512 1.4279,2.0141 2.62129,3.686648 1.70495,2.3895 2.17827,3.09895 2.20886,3.31151 0.0214,0.14878 0.12217,0.79734 0.22399,1.4413 0.10182,0.64395 0.17533,1.21705 0.16326,1.27341 -0.0121,0.0563 -0.28872,-0.27675 -0.61465,-0.74019 -0.32592,-0.46345 -0.82935,-1.17758 -1.11886,-1.587 -0.2895,-0.40942 -1.35389,-1.92087 -2.36517,-3.35876 -1.01127,-1.43789 -1.95612,-2.780718 -2.09978,-2.984038 -0.15077,-0.21338 -0.28058,-0.49337 -0.30691,-0.6623 -0.0251,-0.16095 -0.15499,-0.86849 -0.28867,-1.57228 -0.13369,-0.7038 -0.22934,-1.29339 -0.21255,-1.31018 z m 22.905918,12.997972 c 0.69008,0 1.25477,0.009 1.25475,0.0197 -7e-5,0.0681 -0.41482,0.82192 -0.66992,1.21772 -0.16682,0.25881 -0.31181,0.47058 -0.32217,0.47045 -0.0705,-0.001 -1.51803,-1.5937 -1.51755,-1.67006 1.4e-4,-0.0208 0.56482,-0.0379 1.25489,-0.0379 z m -5.34961,1.94864 0.002,0.0382 0.49509,4.2e-4 c 1.56193,0.002 2.79607,0.63942 3.69959,1.91174 0.16528,0.23276 0.93146,1.50554 1.70259,2.82841 0.77113,1.32286 1.55326,2.70233 1.60122,2.72878 0.0479,0.0265 0.72412,0.16208 1.00501,0.35031 0.87076,0.58355 1.30211,1.1799 1.57564,2.20529 0.0632,0.23682 0.0787,1.36077 0.0787,3.19251 0,1.18641 0.0189,-0.10069 -0.009,0.46499 -0.0168,0.88153 -0.74571,2.04509 -1.94683,2.08386 -0.0212,10e-4 -0.0485,0.006 -0.0836,0.0151 -0.0863,0.0231 -0.72156,0.0427 -1.41175,0.0434 l -1.25488,0.001 -0.0104,0.6446 c -0.0183,1.15406 -0.48544,2.23542 -1.36599,3.16241 -0.74339,0.52837 -1.53797,1.03959 -3.31655,1.21976 l -0.0136,-0.0127 c -2.22643,-0.19075 -2.811568,-0.67209 -3.505818,-1.13411 -0.56843,-0.5601 -0.90418,-1.05787 -1.16011,-1.72003 -0.82406,-2.13207 -0.007,-4.55745 1.91555,-5.68757 l 0.485288,-0.28527 0.0179,-4.16716 c 0.0117,-2.70813 0.0564,-4.92925 0.009,-5.10326 -0.0928,-0.34446 -0.361448,-0.66128 -0.713088,-0.84067 -0.2537,-0.12943 -0.38214,-0.13997 -1.4379,-0.11888 -1.03435,0.0207 -5.92472,0.064 -6.34906,0.0859 -0.65288,0.003 -1.04723,0.25333 -1.00475,0.84749 l -0.0527,6.61822 -0.0349,6.21616 c -0.0556,0.2024 -0.17231,0.29511 -0.34222,0.29225 l -5.04702,-0.0171 v 0.54411 c 0,0.3233 -0.0601,0.7828 -0.148,1.13248 -0.23156,0.92052 -0.56678,1.51064 -1.27464,2.24412 -0.84068,0.42625 -1.29146,0.96717 -3.25963,1.06194 l -0.01811,0.042 c -1.227759,-0.0596 -2.432807,-0.19399 -3.42329,-1.03108 -1.110066,-0.93817 -1.614179,-2.26863 -1.555402,-3.49615 l 0.02342,-0.48747 -1.152221,-0.0228 c -1.147524,-0.0227 -1.15404,-0.0238 -1.629476,-0.25802 -0.810356,-0.39925 -1.271529,-0.9972 -1.429994,-1.85442 -0.04177,-0.22598 -0.07584,0.19309 -0.07584,-0.43255 v -0.20931 c 0.854418,-0.0395 0.730948,-0.22529 0.804845,-0.3797 0.0082,-0.5486 -0.01443,-2.09524 0.004,-2.53378 -0.06958,-0.21002 -0.07514,-0.42148 -0.78022,-0.46363 l 0.0072,-3.16369 c 0.01155,-3.29739 0.01282,-3.41649 0.421291,-4.26575 0.546649,-1.13653 1.891966,-2.12244 2.656698,-2.27516 l 13.862039,0.0225 z m 1.2907,2.47845 c -0.46265,1.4e-4 -1.1074,0.17004 -1.29211,0.48789 -0.13191,0.22697 -0.0191,0.45955 -0.0379,2.27543 -0.0198,1.9162 0.3503,2.42233 0.50697,2.73028 0.10376,0.20399 0.24493,0.35634 0.40358,0.4356 0.21085,0.10533 0.89145,0.0602 2.2639,0.0603 1.76357,1.5e-4 1.98134,-0.0408 2.17181,-0.40917 0.15418,-0.29813 0.13515,-0.94226 -0.0911,-1.34113 -0.65138,-1.14846 -2.20585,-3.7209 -2.33304,-3.8608 -0.21465,-0.23614 -1.16696,-0.37853 -1.59217,-0.3784 z m -17.761788,1.47875 -0.002,0.006 -1.94211,0.009 c -0.47857,-0.0161 -0.65259,0.006 -0.851296,0.10935 -0.446458,0.23169 -0.555612,0.4221 -0.558951,1.22302 l -0.0098,2.32187 c -5.92e-4,0.001 -0.0018,0.003 -0.003,0.003 l 2.9e-4,0.58659 c 2.9e-4,0.68026 0.134642,0.98382 0.506668,1.14555 0.179669,0.0781 0.750799,0.0984 2.824859,0.10062 2.4693,0.003 2.61341,-0.004 2.87428,-0.13738 0.50576,-0.25802 0.52151,-0.33497 0.52151,-2.54396 v -1.95205 c -0.15828,-0.86818 -1.26504,-0.86705 -2.1134,-0.87145 z m 22.381668,5.22754 c -0.18178,0.30654 0.19321,1.36846 0.50015,1.65804 0.50244,0.47401 1.76689,0.36742 2.2721,0.21139 0.27509,-0.085 0.1198,-1.41502 -0.66432,-1.86765 -0.33226,-0.1918 -1.86056,-0.41894 -2.10793,-0.002 z m -34.46593,1.11177 -0.214459,0.18055 c -0.428837,0.36104 -0.205005,1.03186 0.382076,1.14487 0.383681,0.0739 15.657545,0.15087 16.038745,0.0773 0.62159,-0.11992 0.85823,-0.77455 0.41489,-1.14759 l -0.21446,-0.18055 -13.708997,-0.0482 z m 29.06393,3.27292 c -1.50911,0.0733 -2.763328,1.32941 -2.676308,2.94155 0.0588,1.08925 0.868968,2.10731 1.959808,2.46253 0.18721,0.061 0.53603,0.0888 0.96159,0.0769 0.59009,-0.0165 0.72078,-0.0446 1.12281,-0.24251 0.81733,-0.40237 1.37599,-1.17739 1.54028,-2.13655 0.20623,-1.20396 -0.68063,-2.59733 -1.89118,-2.97123 -0.23903,-0.0738 -0.47773,-0.11594 -0.71214,-0.12936 -0.10254,-0.006 -0.20426,-0.006 -0.30486,-0.001 z m -21.622721,0.007 c -1.256313,-0.0663 -2.235157,0.51659 -2.77271,1.65113 -0.197743,0.41735 -0.218627,0.52543 -0.218,1.12404 6.51e-4,0.57075 0.02642,0.71745 0.186818,1.06099 0.329166,0.705 1.023279,1.32419 1.749574,1.56071 0.187747,0.0611 0.532871,0.0886 0.956138,0.0761 0.543686,-0.016 0.734493,-0.0528 1.065352,-0.20547 0.561058,-0.25882 1.169751,-0.85842 1.418551,-1.39705 0.17828,-0.38593 0.19998,-0.50884 0.19935,-1.13015 -5.9e-4,-0.62787 -0.0209,-0.73874 -0.20438,-1.11546 -0.26647,-0.547 -0.892109,-1.17148 -1.412568,-1.40998 -0.298345,-0.13672 -0.551599,-0.1929 -0.968125,-0.21487 z m 20.489901,-3.14302 c -0.42356,0.36721 -0.205,1.03187 0.38209,1.14487 0.38367,0.0738 4.41598,0.0358 4.79718,-0.0377 0.62159,-0.11992 0.85823,-0.77454 0.41489,-1.14759 l -0.33097,-0.11602 c -1.864,-0.0341 -3.74965,-0.0323 -4.81593,0.005 -0.21786,0.008 -0.36973,0.0837 -0.44726,0.15088 z"
     sodipodi:nodetypes="scssccssssscccssscssssssssscccsssssssssssssssssssccscccsssssssssssssssssscsscssssssscssssccccsscssssccsscscsscccsssssscsscccccccsccssssccccccsscccscccssscccccsccccsssscsssccccsccccsssscsccsssscsssccccsssssssscsscsssssssssscsssccss" />
  <path
     id="path1"
     style="fill:#0000ff;fill-opacity:1;stroke:none;stroke-width:0.11414;stroke-linejoin:round;stroke-dasharray:none;stroke-opacity:1;paint-order:markers stroke fill"
     d="m 152.41566,318.04298 -10.36526,0.0289 -10.69237,-0.017 c -0.58987,0.11779 -1.62784,0.8783 -2.04949,1.75493 -0.3151,0.65507 -0.31614,0.74684 -0.32504,3.29024 l -0.005,2.44016 c 0.54385,0.0326 0.54784,0.19612 0.60151,0.35811 -0.0143,0.33826 0.004,1.53072 -0.004,1.95389 -0.057,0.11909 0.0379,0.2625 -0.62115,0.293 v 0.16175 c 0,0.48258 0.0261,0.15902 0.0584,0.33331 0.12224,0.66121 0.47823,1.12244 1.10329,1.4304 0.36672,0.18068 0.37164,0.18143 1.25677,0.19896 l 0.88883,0.0181 -0.0181,0.3757 c -0.0453,0.94682 0.34369,1.97334 1.19992,2.69699 0.764,0.64567 1.69313,0.7493 2.64015,0.7953 l 0.014,-0.0326 c 1.51812,-0.0731 1.8656,-0.49029 2.51405,-0.81907 0.54599,-0.56576 0.80481,-1.02112 0.98341,-1.73116 0.0678,-0.26971 0.1142,-0.62397 0.1142,-0.87334 v -0.42012 l 3.8933,0.0134 c 0.0127,2.9e-4 0.0232,-0.004 0.0351,-0.005 h 5.5268 c -0.0511,0.54796 0.0181,1.11456 0.22789,1.65726 0.1974,0.51075 0.45659,0.89502 0.89504,1.32705 0.53551,0.35636 0.9869,0.72776 2.70423,0.87489 l 0.0103,0.01 c 1.37188,-0.13898 1.98458,-0.53348 2.55798,-0.94102 0.67919,-0.71502 1.03952,-1.54895 1.05369,-2.43913 l 0.008,-0.49713 0.9679,-10e-4 c 0.53236,-4.5e-4 1.02228,-0.0158 1.08883,-0.0336 0.0271,-0.007 0.0482,-0.0105 0.0646,-0.0114 0.92647,-0.0299 1.48875,-0.92769 1.50172,-1.60765 0.005,-0.10862 0.009,-0.12761 0.01,-0.11059 -0.002,0.002 -0.004,0.0679 -0.004,-0.24805 0,-1.41288 -0.0123,-2.27971 -0.061,-2.46238 -0.21099,-0.79092 -0.54326,-1.25056 -1.21491,-1.70067 -0.21666,-0.14519 -0.73867,-0.24986 -0.77566,-0.27027 -0.037,-0.0205 -0.64029,-1.08441 -1.23507,-2.10478 -0.59481,-1.02036 -1.18562,-2.00224 -1.3131,-2.18178 -0.69693,-0.98138 -1.6488,-1.47348 -2.85357,-1.47485 h -0.38189 z m -2.31924,1.39836 c 0.38059,1.4e-4 0.47336,0.0233 0.62012,0.0982 0.27123,0.13837 0.4783,0.38285 0.54984,0.64854 0.0362,0.13422 0.002,1.84732 -0.007,3.9362 l -0.0139,3.21427 -0.37466,0.22014 c -0.6485,0.38116 -1.13383,0.95305 -1.42162,1.61386 -5.04182,-0.0589 -5.301,0.0514 -5.46116,-0.12402 -0.19411,-0.24007 -0.14538,0.0627 -0.0941,-3.77549 l 0.0408,-5.10511 c -0.0328,-0.45829 0.27156,-0.65142 0.77515,-0.65371 0.32732,-0.0169 4.09902,-0.0502 4.89686,-0.0661 0.20358,-0.004 0.36251,-0.007 0.48937,-0.007 z m 3.31504,0.51315 c 0.32798,-1e-4 1.06227,0.10983 1.22784,0.29198 0.0981,0.1079 1.29746,2.09227 1.79989,2.97811 0.17451,0.30768 0.18918,0.8046 0.0703,1.03456 -0.14691,0.28415 -0.31504,0.31535 -1.67535,0.31523 -1.05861,-5e-5 -1.58351,0.0348 -1.74615,-0.0465 -0.12237,-0.0612 -0.23158,-0.17856 -0.31161,-0.3359 -0.12084,-0.23753 -0.40591,-0.62778 -0.39067,-2.10581 0.0145,-1.40066 -0.0729,-1.58037 0.0289,-1.75545 0.14247,-0.24516 0.63998,-0.37611 0.99683,-0.37621 z m -13.69838,1.14049 h 0.96014 c 0.65438,0.004 1.5083,0.003 1.6304,0.67231 v 1.50585 c 0,1.70387 -0.0125,1.76315 -0.40256,1.96216 -0.20122,0.10278 -0.31226,0.10822 -2.21692,0.10594 -1.59979,-0.002 -2.04061,-0.0173 -2.1792,-0.0775 -0.28696,-0.12474 -0.39045,-0.35897 -0.39067,-0.88367 l -5.2e-4,-0.45268 c 8.8e-4,0 0.002,-0.002 0.003,-0.003 l 0.008,-1.79059 c 0.003,-0.61777 0.0866,-0.7649 0.43098,-0.9436 0.15326,-0.0795 0.28766,-0.0966 0.65681,-0.0842 l 1.4981,-0.007 z m 17.79271,3.85249 c 0.41447,-0.0142 0.93484,0.089 1.09502,0.18139 0.60482,0.34913 0.72431,1.37519 0.51212,1.44073 -0.38968,0.12034 -1.36481,0.20233 -1.75235,-0.1633 -0.23676,-0.22336 -0.52572,-1.04255 -0.38551,-1.279 0.0716,-0.12065 0.28204,-0.17129 0.53072,-0.17982 z m -3.59978,1.00407 c 0.64615,-4.6e-4 1.36886,0.005 2.08773,0.0186 l 0.25579,0.0894 c 0.34196,0.28774 0.15907,0.79271 -0.32039,0.8852 -0.29404,0.0567 -3.40408,0.0859 -3.70003,0.0289 -0.45285,-0.0871 -0.62127,-0.5999 -0.29456,-0.88315 0.0597,-0.0518 0.17664,-0.11028 0.34468,-0.11627 0.41123,-0.0145 0.98064,-0.0221 1.62678,-0.0227 z m -23.51588,0.0336 2.08101,0.0202 10.57403,0.0372 0.16537,0.13953 c 0.34196,0.28773 0.15958,0.79272 -0.31988,0.88522 -0.29404,0.0567 -12.07538,-0.003 -12.37134,-0.06 -0.45283,-0.0871 -0.62532,-0.60467 -0.29455,-0.88315 z m 22.41775,2.5244 c 0.0776,-0.004 0.15655,-0.004 0.23565,9.9e-4 0.18081,0.0104 0.36443,0.0428 0.5488,0.0997 0.93374,0.28841 1.61791,1.36319 1.45883,2.29185 -0.12673,0.73985 -0.55761,1.33759 -1.18804,1.64796 -0.3101,0.15267 -0.41095,0.17438 -0.8661,0.18708 -0.32826,0.009 -0.59717,-0.0125 -0.74156,-0.0594 -0.84141,-0.274 -1.46619,-1.05946 -1.51153,-1.89963 -0.0671,-1.2435 0.89992,-2.21202 2.06395,-2.26859 z m -16.67805,0.005 c 0.32128,0.017 0.5166,0.0604 0.74673,0.16589 0.40144,0.18396 0.8838,0.66534 1.08934,1.08726 0.14157,0.29058 0.15766,0.37611 0.15813,0.86041 4.6e-4,0.47923 -0.0166,0.57412 -0.154,0.87178 -0.19192,0.41548 -0.66173,0.87782 -1.09451,1.07746 -0.2552,0.11776 -0.40229,0.14627 -0.82165,0.15864 -0.32647,0.01 -0.5926,-0.0117 -0.73742,-0.0589 -0.56021,-0.18243 -1.09538,-0.65975 -1.34928,-1.20354 -0.12374,-0.26499 -0.14371,-0.37831 -0.14417,-0.81856 -4.5e-4,-0.46172 0.0155,-0.5452 0.16794,-0.86712 0.41464,-0.87512 1.16984,-1.32442 2.13889,-1.27331 z"
     sodipodi:nodetypes="cccscccccscscccsccccsccccscccccccccccscscsccccsccccccccccsssssscssccscccscccccccccccscsscscccscsccccccsccccccssccsccsssccccsccc" />
  <path
     id="path1-6"
     style="fill:#0000ff;fill-opacity:1;stroke:none;stroke-width:0.11414;stroke-linejoin:round;stroke-dasharray:none;stroke-opacity:1;paint-order:markers stroke fill"
     d="m 153.6358,380.84298 -10.36526,0.0289 -10.69237,-0.017 c -0.58987,0.11779 -1.62784,0.8783 -2.04949,1.75493 -0.3151,0.65507 -0.31614,0.74684 -0.32504,3.29024 l -0.005,2.44016 c 0.54385,0.0326 0.54784,0.19612 0.60151,0.35811 -0.0143,0.33826 0.004,1.53072 -0.004,1.95389 -0.057,0.11909 0.0379,0.2625 -0.62115,0.29301 v 0.16174 c 0,0.48258 0.0261,0.15902 0.0584,0.33331 0.12224,0.66121 0.47823,1.12244 1.10329,1.4304 0.36672,0.18068 0.37164,0.18143 1.25677,0.19896 l 0.88883,0.0181 -0.0181,0.3757 c -0.0453,0.94682 0.34369,1.97334 1.19992,2.69699 0.764,0.64567 1.69313,0.7493 2.64015,0.7953 l 0.014,-0.0326 c 1.51812,-0.0731 1.8656,-0.49029 2.51405,-0.81907 0.54599,-0.56576 0.80481,-1.02112 0.98341,-1.73116 0.0678,-0.26971 0.1142,-0.62397 0.1142,-0.87334 v -0.42012 l 3.8933,0.0134 c 0.0127,2.9e-4 0.0232,-0.004 0.0351,-0.005 h 5.5268 c -0.0511,0.54796 0.0181,1.11456 0.22789,1.65726 0.1974,0.51075 0.45659,0.89502 0.89504,1.32705 0.53551,0.35636 0.9869,0.72776 2.70423,0.87489 l 0.0103,0.01 c 1.37188,-0.13898 1.98458,-0.53347 2.55798,-0.94102 0.67919,-0.71502 1.03952,-1.54895 1.05369,-2.43913 l 0.008,-0.49713 0.9679,-10e-4 c 0.53236,-4.5e-4 1.02228,-0.0158 1.08883,-0.0336 0.0271,-0.007 0.0482,-0.0105 0.0646,-0.0114 0.92647,-0.0299 1.48875,-0.92769 1.50172,-1.60765 0.005,-0.10862 0.009,-0.12761 0.01,-0.11059 -0.002,0.002 -0.004,0.0679 -0.004,-0.24805 0,-1.41288 -0.0123,-2.27971 -0.061,-2.46238 -0.21099,-0.79092 -0.54326,-1.25056 -1.21491,-1.70067 -0.21666,-0.14519 -0.73867,-0.24986 -0.77566,-0.27027 -0.037,-0.0205 -0.64029,-1.08441 -1.23507,-2.10478 -0.59481,-1.02036 -1.18562,-2.00224 -1.3131,-2.18178 -0.69693,-0.98138 -1.6488,-1.47348 -2.85357,-1.47485 h -0.38189 z m -2.31924,1.39837 c 0.38059,1.3e-4 0.47336,0.0233 0.62012,0.0982 0.27123,0.13837 0.4783,0.38285 0.54984,0.64854 0.0362,0.13422 0.002,1.84732 -0.007,3.9362 l -0.0139,3.21427 -0.37466,0.22014 c -0.6485,0.38116 -1.13383,0.95305 -1.42162,1.61386 -5.04182,-0.0589 -5.301,0.0514 -5.46116,-0.12402 -0.19411,-0.24007 -0.14538,0.0627 -0.0941,-3.77549 l 0.0408,-5.10511 c -0.0328,-0.45829 0.27156,-0.65142 0.77515,-0.65371 0.32732,-0.0169 4.09902,-0.0502 4.89686,-0.0661 0.20358,-0.004 0.36251,-0.007 0.48937,-0.007 z m 3.31504,0.51314 c 0.32798,-10e-5 1.06227,0.10983 1.22784,0.29198 0.0981,0.1079 1.29746,2.09227 1.79989,2.97811 0.17451,0.30768 0.18918,0.8046 0.0703,1.03456 -0.14691,0.28415 -0.31504,0.31535 -1.67535,0.31523 -1.05861,-5e-5 -1.58351,0.0348 -1.74615,-0.0465 -0.12237,-0.0612 -0.23158,-0.17856 -0.31161,-0.3359 -0.12084,-0.23753 -0.40591,-0.62778 -0.39067,-2.10581 0.0145,-1.40066 -0.0729,-1.58037 0.0289,-1.75545 0.14247,-0.24516 0.63998,-0.37611 0.99683,-0.37621 z m -13.69838,1.1405 h 0.96014 c 0.65438,0.004 1.5083,0.003 1.6304,0.6723 v 1.50585 c 0,1.70387 -0.0125,1.76315 -0.40256,1.96216 -0.20122,0.10278 -0.31226,0.10822 -2.21692,0.10594 -1.59979,-0.002 -2.04061,-0.0173 -2.1792,-0.0775 -0.28696,-0.12474 -0.39045,-0.35897 -0.39067,-0.88367 l -5.2e-4,-0.45268 c 8.8e-4,0 0.002,-0.002 0.003,-0.003 l 0.008,-1.7906 c 0.003,-0.61777 0.0866,-0.7649 0.43098,-0.9436 0.15326,-0.0795 0.28766,-0.0966 0.65681,-0.0842 l 1.4981,-0.007 z m 17.79271,3.85248 c 0.41447,-0.0142 0.93484,0.089 1.09502,0.18139 0.60482,0.34913 0.72431,1.37519 0.51212,1.44073 -0.38968,0.12034 -1.36481,0.20234 -1.75235,-0.1633 -0.23676,-0.22336 -0.52572,-1.04255 -0.38551,-1.27899 0.0716,-0.12066 0.28204,-0.17129 0.53072,-0.17983 z m -3.59978,1.00407 c 0.64615,-4.6e-4 1.36886,0.005 2.08773,0.0186 l 0.25579,0.0894 c 0.34196,0.28774 0.15907,0.79271 -0.32039,0.88521 -0.29404,0.0567 -3.40408,0.0859 -3.70003,0.0289 -0.45285,-0.0871 -0.62127,-0.5999 -0.29456,-0.88315 0.0597,-0.0518 0.17664,-0.11028 0.34468,-0.11627 0.41123,-0.0145 0.98064,-0.0221 1.62678,-0.0227 z m -23.51588,0.0336 2.08101,0.0202 10.57403,0.0372 0.16537,0.13953 c 0.34196,0.28773 0.15958,0.79272 -0.31988,0.88522 -0.29404,0.0567 -12.07538,-0.003 -12.37134,-0.06 -0.45283,-0.0871 -0.62532,-0.60467 -0.29455,-0.88315 z m 22.41775,2.5244 c 0.0776,-0.004 0.15655,-0.004 0.23565,10e-4 0.18081,0.0104 0.36443,0.0428 0.5488,0.0997 0.93374,0.28841 1.61791,1.36319 1.45883,2.29185 -0.12673,0.73985 -0.55761,1.33759 -1.18804,1.64797 -0.3101,0.15267 -0.41095,0.17437 -0.8661,0.18707 -0.32826,0.009 -0.59717,-0.0125 -0.74156,-0.0594 -0.84141,-0.27399 -1.46619,-1.05946 -1.51153,-1.89963 -0.0671,-1.2435 0.89992,-2.21201 2.06395,-2.26859 z m -16.67805,0.005 c 0.32128,0.017 0.5166,0.0604 0.74673,0.16589 0.40144,0.18396 0.8838,0.66535 1.08934,1.08727 0.14157,0.29057 0.15766,0.3761 0.15813,0.86041 4.6e-4,0.47922 -0.0166,0.57411 -0.154,0.87178 -0.19192,0.41547 -0.66173,0.87781 -1.09451,1.07745 -0.2552,0.11776 -0.40229,0.14627 -0.82165,0.15864 -0.32647,0.01 -0.5926,-0.0117 -0.73742,-0.0589 -0.56021,-0.18243 -1.09538,-0.65974 -1.34928,-1.20353 -0.12374,-0.265 -0.14371,-0.37831 -0.14417,-0.81856 -4.5e-4,-0.46173 0.0155,-0.54521 0.16794,-0.86713 0.41464,-0.87512 1.16984,-1.32442 2.13889,-1.27331 z"
     sodipodi:nodetypes="cccscccccscscccsccccsccccscccccccccccscscsccccsccccccccccsssssscssccscccscccccccccccscsscscccscsccccccsccccccssccsccsssccccsccc" />
  <g
     id="g47"
     transform="translate(-6.3500003,-3.7041668)">
    <circle
       style="fill:none;stroke:#ff0000;stroke-width:0.25;stroke-linejoin:round;paint-order:markers stroke fill"
       id="path46"
       cx="50.472431"
       cy="188.35309"
       r="1.3" />
    <circle
       style="fill:none;stroke:#ff0000;stroke-width:0.25;stroke-linejoin:round;paint-order:markers stroke fill"
       id="path46-3"
       cx="110.472"
       cy="258.353"
       r="1.3" />
    <circle
       style="fill:none;stroke:#ff0000;stroke-width:0.25;stroke-linejoin:round;paint-order:markers stroke fill"
       id="path46-7"
       cx="50.472431"
       cy="258.353"
       r="1.3" />
    <circle
       style="fill:none;stroke:#ff0000;stroke-width:0.25;stroke-linejoin:round;paint-order:markers stroke fill"
       id="path46-8"
       cx="110.472"
       cy="188.35309"
       r="1.3" />
    <circle
       style="fill:none;stroke:#ff0000;stroke-width:0.25;stroke-linejoin:round;paint-order:markers stroke fill"
       id="path47"
       cx="95.472"
       cy="238.353"
       r="6" />
    <circle
       style="fill:none;stroke:#ff0000;stroke-width:0.25;stroke-linejoin:round;paint-order:markers stroke fill"
       id="path47-8"
       cx="95.472"
       cy="208.353"
       r="6" />
    <circle
       style="fill:none;stroke:#ff0000;stroke-width:0.25;stroke-linejoin:round;paint-order:markers stroke fill"
       id="path46-8-2"
       cx="73.472"
       cy="208.353"
       r="3" />
    <circle
       style="fill:none;stroke:#ff0000;stroke-width:0.25;stroke-linejoin:round;paint-order:markers stroke fill"
       id="path46-8-2-9"
       cx="73.472"
       cy="238.353"
       r="3" />
  </g>
  <rect
     style="fill:none;stroke:#0000ff;stroke-width:0.25;stroke-linejoin:round;stroke-opacity:1;paint-order:markers stroke fill"
     id="rect47"
     width="70"
     height="80"
     x="39.122211"
     y="179.64893" />
  <rect
     style="fill:none;stroke:#0000ff;stroke-width:0.25;stroke-linejoin:round;stroke-opacity:1;paint-order:markers stroke fill"
     id="rect47-1"
     width="52"
     height="90"
     x="122.93556"
     y="178.38708" />
  <circle
     style="fill:none;fill-opacity:1;stroke:#ff0000;stroke-width:0.25;stroke-linejoin:round;stroke-opacity:1;paint-order:markers stroke fill"
     id="path48"
     cx="148.93556"
     cy="245.38699"
     r="1.5" />
  <circle
     style="fill:none;fill-opacity:1;stroke:#ff0000;stroke-width:0.25;stroke-linejoin:round;stroke-opacity:1;paint-order:markers stroke fill"
     id="path48-3"
     cx="148.93556"
     cy="190.38699"
     r="1.5" />
</svg>
